<svg width="20" height="17" viewBox="0 0 20 17" fill="none" xmlns="http://www.w3.org/2000/svg">
<path d="M4.47368 0C3.97953 0 3.57895 0.400587 3.57895 0.894737V2.68421C3.57895 3.17836 3.97953 3.57895 4.47368 3.57895C4.96783 3.57895 5.36842 3.17836 5.36842 2.68421V0.894737C5.36842 0.400587 4.96783 0 4.47368 0Z" fill="#FFFFFF"/>
<path fill-rule="evenodd" clip-rule="evenodd" d="M10.7368 17C13.3969 17 15.6051 15.0653 16.031 12.5263H16.1053C18.0819 12.5263 19.6842 10.924 19.6842 8.94737C19.6842 6.97077 18.0819 5.36842 16.1053 5.36842V4.47368H0V11.6316C0 14.5965 2.40352 17 5.36842 17H10.7368ZM1.78947 6.26316V11.6316C1.78947 13.6082 3.39182 15.2105 5.36842 15.2105H10.7368C12.7134 15.2105 14.3158 13.6082 14.3158 11.6316V6.26316H1.78947ZM17.8947 8.94737C17.8947 9.93567 17.0936 10.7368 16.1053 10.7368V7.15789C17.0936 7.15789 17.8947 7.95907 17.8947 8.94737Z" fill="#FFFFFF"/>
<path d="M7.1579 0.894737C7.1579 0.400587 7.55848 0 8.05263 0C8.54678 0 8.94737 0.400587 8.94737 0.894737V2.68421C8.94737 3.17836 8.54678 3.57895 8.05263 3.57895C7.55848 3.57895 7.1579 3.17836 7.1579 2.68421V0.894737Z" fill="#FFFFFF"/>
<path d="M11.6316 0C11.1374 0 10.7368 0.400587 10.7368 0.894737V2.68421C10.7368 3.17836 11.1374 3.57895 11.6316 3.57895C12.1257 3.57895 12.5263 3.17836 12.5263 2.68421V0.894737C12.5263 0.400587 12.1257 0 11.6316 0Z" fill="#FFFFFF"/>
</svg>
