<svg width="17" height="18" viewBox="0 0 17 18" fill="none" xmlns="http://www.w3.org/2000/svg">
<path fill-rule="evenodd" clip-rule="evenodd" d="M16.4581 7.18474L10.0768 0.8034C9.00555 -0.267815 7.26877 -0.267815 6.19755 0.8034L0 7.00095V18H6.40038V13.5851C6.40038 12.5752 7.2191 11.7564 8.22905 11.7564C9.23901 11.7564 10.0577 12.5752 10.0577 13.5851V18H16.4581V7.18474ZM7.49062 2.09647L1.82868 7.75841V16.1713H4.5717V13.5851C4.5717 11.5652 6.20915 9.92776 8.22905 9.92776C10.249 9.92776 11.8864 11.5652 11.8864 13.5851V16.1713H14.6294V7.94221L8.78369 2.09647C8.42662 1.7394 7.84769 1.7394 7.49062 2.09647Z" fill="#FFFFFF"/>
</svg>
