<svg width="17" height="18" viewBox="0 0 17 18" fill="none" xmlns="http://www.w3.org/2000/svg">
<path d="M3.6 14.4H12.6V12.6H3.6V14.4Z" fill="white"/>
<path d="M12.6 10.8H3.6V9H12.6V10.8Z" fill="white"/>
<path d="M3.6 7.2H7.2V5.4H3.6V7.2Z" fill="white"/>
<path fill-rule="evenodd" clip-rule="evenodd" d="M2.7 0C1.20883 0 0 1.20883 0 2.7V15.3C0 16.7912 1.20883 18 2.7 18H13.5C14.9912 18 16.2 16.7912 16.2 15.3V6.3C16.2 2.82061 13.3794 0 9.9 0H2.7ZM2.7 1.8H9V6.3H14.4V15.3C14.4 15.7971 13.9971 16.2 13.5 16.2H2.7C2.20294 16.2 1.8 15.7971 1.8 15.3V2.7C1.8 2.20294 2.20294 1.8 2.7 1.8ZM10.8 1.89002C12.2502 2.18439 13.4471 3.17615 14.0256 4.5H10.8V1.89002Z" fill="white"/>
</svg>
