<svg width="24" height="24" viewBox="0 0 24 24" fill="none" xmlns="http://www.w3.org/2000/svg">
<path d="M12.0132 15.6365L5.4375 12.5083L11.1452 22.483C11.5293 23.1542 12.4971 23.1542 12.8811 22.483L18.5891 12.5083L12.0132 15.6365ZM8.89984 15.718L12.0132 17.1991L15.1267 15.718L12.0132 21.1588L8.89984 15.718Z" fill="white"/>
<path d="M18.3677 11.0372L12.8795 1.50518C12.4949 0.837137 11.5309 0.837143 11.1463 1.50519L5.6582 11.0372L12.0129 14.0473L18.3677 11.0372ZM12.0129 2.82788L15.6375 9.12305L12.0129 7.40625L8.38849 9.12305L12.0129 2.82788ZM12.0129 8.96759L15.7268 10.7269L12.0129 12.486L8.29913 10.7269L12.0129 8.96759Z" fill="white"/>
</svg>
