<svg width="16" height="19" viewBox="0 0 16 19" fill="none" xmlns="http://www.w3.org/2000/svg">
<path fill-rule="evenodd" clip-rule="evenodd" d="M8.30307 13.6026C7.63321 14.357 6.72673 14.8966 5.7 15.105V18.05C5.7 18.5747 5.27467 19 4.75 19C4.22533 19 3.8 18.5747 3.8 18.05V15.105C1.63187 14.6649 0 12.748 0 10.45V4.75C0 2.12665 2.12665 0 4.75 0C7.22827 0 9.26325 1.89792 9.48076 4.31958C10.044 3.98933 10.6999 3.8 11.4 3.8C13.4987 3.8 15.2 5.50132 15.2 7.6V11.4C15.2 13.1706 13.989 14.6584 12.35 15.0803V18.05C12.35 18.5747 11.9247 19 11.4 19C10.8753 19 10.45 18.5747 10.45 18.05V15.0803C9.571 14.854 8.8151 14.3212 8.30307 13.6026ZM7.6 4.75V10.45C7.6 11.6909 6.80693 12.7466 5.7 13.1378V10.45C5.7 9.92533 5.27467 9.5 4.75 9.5C4.22533 9.5 3.8 9.92533 3.8 10.45V13.1378C2.69307 12.7466 1.9 11.6909 1.9 10.45V4.75C1.9 3.17599 3.17599 1.9 4.75 1.9C6.32401 1.9 7.6 3.17599 7.6 4.75ZM12.35 13.0458V10.45C12.35 9.92533 11.9247 9.5 11.4 9.5C10.8753 9.5 10.45 9.92533 10.45 10.45V13.0458C9.88209 12.7173 9.5 12.1033 9.5 11.4V7.6C9.5 6.55066 10.3507 5.7 11.4 5.7C12.4493 5.7 13.3 6.55066 13.3 7.6V11.4C13.3 12.1033 12.9179 12.7173 12.35 13.0458Z" fill="#FFFFFF"/>
</svg>
