<svg width="19" height="20" viewBox="0 0 19 20" fill="none" xmlns="http://www.w3.org/2000/svg">
<path fill-rule="evenodd" clip-rule="evenodd" d="M2.73853 16.6114C4.50404 18.3769 6.85319 19.3499 9.35 19.3499C11.8468 19.3499 14.196 18.3769 15.9615 16.6114C17.7269 14.8458 18.7 12.4967 18.7 9.9999C18.7 7.5031 17.727 5.15395 15.9615 3.38843C14.196 1.62292 11.8468 0.649902 9.35 0.649902C6.8532 0.649902 4.50401 1.62288 2.73852 3.38844C0.973052 5.15398 0 7.50309 0 9.9999C0 12.4967 0.973013 14.8459 2.73853 16.6114ZM1.825 9.9999C1.825 5.85091 5.20101 2.4749 9.35 2.4749C13.499 2.4749 16.875 5.85091 16.875 9.9999C16.875 14.1489 13.499 17.5249 9.35 17.5249C5.20101 17.5249 1.825 14.1489 1.825 9.9999ZM9.35 9.0874C8.76789 9.0874 8.29375 8.61326 8.29375 8.03115C8.29375 7.44905 8.76789 6.9749 9.35 6.9749C9.93211 6.9749 10.4062 7.44905 10.4062 8.03115C10.4062 8.53508 10.8148 8.94365 11.3188 8.94365C11.8227 8.94365 12.2313 8.53508 12.2313 8.03115C12.2313 6.76031 11.4049 5.68119 10.2625 5.2988V4.9374C10.2625 4.43348 9.85399 4.0249 9.35 4.0249C8.84601 4.0249 8.4375 4.43348 8.4375 4.9374V5.2988C7.29505 5.68119 6.46875 6.76031 6.46875 8.03115C6.46875 9.62019 7.76096 10.9124 9.35 10.9124C9.93211 10.9124 10.4062 11.3865 10.4062 11.9687C10.4062 12.5508 9.93211 13.0249 9.35 13.0249C8.76789 13.0249 8.29375 12.5508 8.29375 11.9687C8.29375 11.4647 7.88524 11.0562 7.38125 11.0562C6.87726 11.0562 6.46875 11.4647 6.46875 11.9687C6.46875 13.2395 7.29505 14.3186 8.4375 14.701V15.0624C8.4375 15.5663 8.84601 15.9749 9.35 15.9749C9.85399 15.9749 10.2625 15.5663 10.2625 15.0624V14.701C11.4049 14.3186 12.2313 13.2395 12.2313 11.9687C12.2313 10.3796 10.939 9.0874 9.35 9.0874ZM9.9125 4.9374V5.56368C11.0383 5.82025 11.8813 6.82877 11.8813 8.03115C11.8813 8.06998 11.8773 8.10789 11.8698 8.14451C11.8773 8.10792 11.8812 8.07004 11.8812 8.03125C11.8812 6.82887 11.0382 5.82034 9.91248 5.56377V4.9375C9.91248 4.62686 9.66065 4.375 9.34998 4.375C9.08665 4.375 8.8656 4.55594 8.80434 4.80025C8.86556 4.55589 9.08664 4.3749 9.35 4.3749C9.66068 4.3749 9.9125 4.62676 9.9125 4.9374ZM7.98489 7.69282C7.958 7.80126 7.94373 7.91462 7.94373 8.03125C7.94373 8.80666 8.57457 9.4375 9.34998 9.4375C10.7457 9.4375 11.8812 10.573 11.8812 11.9688C11.8812 12.1836 11.8543 12.3923 11.8037 12.5916C11.8543 12.3923 11.8813 12.1835 11.8813 11.9687C11.8813 10.5729 10.7457 9.4374 9.35 9.4374C8.57459 9.4374 7.94375 8.80656 7.94375 8.03115C7.94375 7.91456 7.95801 7.80123 7.98489 7.69282ZM9.9125 14.4362C9.91249 14.4362 9.91248 14.4362 9.91248 14.4362V15.0625C9.91248 15.1013 9.90855 15.1392 9.90107 15.1758C9.90857 15.1391 9.9125 15.1012 9.9125 15.0624V14.4362ZM6.83559 11.8315C6.89685 11.5872 7.1179 11.4062 7.38123 11.4062C7.6919 11.4062 7.94373 11.6581 7.94373 11.9688C7.94373 12.7442 8.57457 13.375 9.34998 13.375C10.0058 13.375 10.5581 12.9238 10.713 12.3155C10.5581 12.9237 10.0057 13.3749 9.35 13.3749C8.57459 13.3749 7.94375 12.7441 7.94375 11.9687C7.94375 11.658 7.69193 11.4062 7.38125 11.4062C7.11789 11.4062 6.89681 11.5871 6.83559 11.8315ZM6.89302 7.42141C7.12208 6.49919 7.85849 5.77541 8.78748 5.56368V5.56377C7.85851 5.77549 7.12211 6.49923 6.89302 7.42141ZM0.620661 7.79442C1.01196 6.23403 1.81902 4.80296 2.98602 3.63592C4.68586 1.93601 6.94602 0.999902 9.35 0.999902C11.754 0.999902 14.0141 1.93604 15.714 3.63592C17.4139 5.33579 18.35 7.59592 18.35 9.9999C18.35 10.3139 18.334 10.6254 18.3025 10.9336C18.334 10.6255 18.35 10.314 18.35 10C18.35 7.59602 17.4138 5.33589 15.714 3.63602C14.0141 1.93614 11.754 1 9.34998 1C6.94599 1 4.68583 1.93611 2.98599 3.63602C1.81902 4.80303 1.01197 6.23406 0.620661 7.79442ZM1.71281 8.07548C1.55751 8.69156 1.475 9.33628 1.475 9.9999C1.475 14.3422 5.00771 17.8749 9.35 17.8749C12.6149 17.8749 15.4221 15.8778 16.6142 13.041C15.4221 15.8778 12.6149 17.875 9.34998 17.875C5.00769 17.875 1.47498 14.3423 1.47498 10C1.47498 9.33634 1.5575 8.69159 1.71281 8.07548Z" fill="#FFFFFF"/>
</svg>
