<svg width="24" height="24" viewBox="0 0 24 24" fill="none" xmlns="http://www.w3.org/2000/svg">
<path d="M9.76606 14.0939C9.83237 14.0939 9.89598 14.0676 9.94287 14.0207C9.98977 13.9738 10.0161 13.9102 10.0161 13.8439V8.4415H13.3849C13.486 8.4415 13.5772 8.38059 13.6159 8.28717C13.6546 8.19375 13.6332 8.08622 13.5617 8.01472L7.37019 1.82322C7.27256 1.7256 7.11429 1.72559 7.01666 1.8232L0.823247 8.01497C0.751733 8.08647 0.730332 8.194 0.769024 8.28743C0.807715 8.38086 0.898878 8.44177 1 8.44177H4.36934V13.8428C4.36934 13.9808 4.48124 14.0928 4.61929 14.0928L9.76606 14.0939ZM8.87941 7.55507V12.9576L5.50607 12.9564L5.50659 7.55509C5.5066 7.48879 5.48026 7.42519 5.43337 7.3783C5.38649 7.33141 5.3229 7.30507 5.25659 7.30507H3.14117L7.19338 3.25381L11.2444 7.30507H9.12941C8.99134 7.30507 8.87941 7.417 8.87941 7.55507ZM9.71078 15.5588C9.60967 15.5588 9.51851 15.6197 9.47981 15.7131C9.44112 15.8065 9.46251 15.9141 9.53401 15.9856L15.7255 22.1768C15.8231 22.2744 15.9814 22.2744 16.079 22.1768L22.2719 15.9856C22.3434 15.9141 22.3648 15.8065 22.3261 15.7131C22.2874 15.6197 22.1963 15.5588 22.0952 15.5588H18.7261V10.1569C18.7261 10.0189 18.6142 9.90698 18.4761 9.90694L13.3296 9.90558C13.2633 9.90556 13.1997 9.93189 13.1528 9.97878C13.1059 10.0257 13.0796 10.0893 13.0796 10.1556V15.5588H9.71078ZM15.9023 20.7459L11.8518 16.6952H13.9641C14.1022 16.6952 14.2141 16.5833 14.2141 16.4452V11.0424L17.5883 11.0433V16.4452C17.5883 16.5833 17.7002 16.6952 17.8383 16.6952H19.9535L15.9023 20.7459ZM13.7141 16.4452H11.6018L13.9641 11.0423V16.1952V16.4452H13.7141Z" fill="white" stroke="white" stroke-width="0.5" stroke-linejoin="round"/>
</svg>
