<svg width="19" height="17" viewBox="0 0 19 17" fill="none" xmlns="http://www.w3.org/2000/svg">
<path fill-rule="evenodd" clip-rule="evenodd" d="M2.3125 0.75C1.03668 0.75 0 1.78668 0 3.0625V12.4375C0 13.7133 1.03668 14.75 2.3125 14.75H6.6875V13.125H2.3125C1.93382 13.125 1.625 12.8162 1.625 12.4375V11H5.6875C6.96332 11 8 9.96333 8 8.68751V6.81251C8 5.53669 6.96332 4.50001 5.6875 4.50001H1.625V3.0625C1.625 2.68382 1.93382 2.375 2.3125 2.375H16.1875C16.5662 2.375 16.875 2.68382 16.875 3.0625V6.6875H18.5V3.0625C18.5 1.78668 17.4633 0.75 16.1875 0.75H2.3125ZM1.625 9.37501V6.12501H5.6875C6.06618 6.12501 6.375 6.43383 6.375 6.81251V8.68751C6.375 9.06619 6.06618 9.37501 5.6875 9.37501H1.625ZM3.99999 6.74998C3.44771 6.74998 2.99999 7.19769 2.99999 7.74998C2.99999 8.30226 3.44771 8.74998 3.99999 8.74998C4.55228 8.74998 5 8.30226 5 7.74998C5 7.19769 4.55228 6.74998 3.99999 6.74998ZM13.375 6.74998C10.5489 6.74998 8.25 9.04891 8.25 11.875C8.25 14.701 10.5489 17 13.375 17C16.2011 17 18.5 14.701 18.5 11.875C18.5 9.04891 16.2011 6.74998 13.375 6.74998ZM9.875 11.875C9.875 9.9453 11.4453 8.37498 13.375 8.37498C15.3047 8.37498 16.875 9.9453 16.875 11.875C16.875 13.8047 15.3047 15.375 13.375 15.375C11.4453 15.375 9.875 13.8047 9.875 11.875ZM14.8757 12.7458C14.8757 13.3852 14.4807 13.9275 13.9375 14.1114V14.875H12.8125V14.1783H11.875V13.0533H12.8125H13.531C13.6345 13.0533 13.75 12.9273 13.75 12.7458C13.75 12.5643 13.6345 12.4375 13.531 12.4375H13.2182C12.4772 12.4375 11.8742 11.7948 11.8742 11.0043C11.8742 10.3645 12.2691 9.82209 12.8125 9.63841V8.87498H13.9375V9.57176H14.875V10.6968H13.219C13.1155 10.6968 13 10.8228 13 11.0043C13 11.1858 13.1155 11.3125 13.219 11.3125H13.5317C14.2727 11.3125 14.8757 11.9553 14.8757 12.7458Z" fill="white"/>
</svg>
