<svg width="449" height="455" viewBox="0 0 449 455" fill="none" xmlns="http://www.w3.org/2000/svg">
<mask id="mask0" mask-type="alpha" maskUnits="userSpaceOnUse" x="20" y="17" width="409" height="415">
<rect x="20" y="17" width="409" height="415" fill="white"/>
</mask>
<g mask="url(#mask0)">
<path d="M-51 356.97C-51 349.383 -51 341.796 -51 334.208C-50.3619 334.046 -49.7239 333.883 -49.0858 333.612C-31.278 326.133 -13.5283 318.655 4.27953 311.176C43.7815 294.592 83.3414 278.009 122.901 261.371C149.236 250.315 175.571 239.259 201.847 228.15C204.806 226.903 208.112 226.253 210.606 224.139C210.954 224.085 211.302 224.031 211.708 224.031C211.708 223.977 211.65 223.868 211.65 223.814C211.302 223.922 211.012 224.031 210.664 224.193C209.91 224.41 209.156 224.573 208.46 224.79C179.979 234.382 151.44 243.974 122.959 253.567C92.7964 263.701 62.6914 273.89 32.5283 283.97C4.56955 293.4 -23.2152 302.667 -51 311.989C-51 305.106 -51 298.277 -51 291.395C-50.0139 291.611 -49.0858 291.232 -48.1577 291.015C-12.1361 281.206 23.8855 271.451 59.9071 261.642C92.3323 252.808 124.7 243.974 157.125 235.195C172.844 230.914 188.564 226.686 204.574 222.351C203.239 221.863 202.195 222.026 201.209 222.188C168.32 228.637 135.373 235.141 102.425 241.536C72.4363 247.389 42.3893 253.188 12.4003 258.986C-8.71377 263.105 -29.8859 267.224 -51 271.343C-51 265.002 -51 258.715 -51 252.375C-47.5777 251.941 -44.0973 251.507 -40.675 251.02C-25.4194 248.96 -10.1639 246.847 5.0916 244.787C20.5211 242.728 36.0087 240.669 51.4382 238.609C68.1439 236.333 84.8496 234.057 101.497 231.835C116.985 229.775 132.414 227.77 147.902 225.657C164.782 223.38 181.661 221.104 198.541 218.72C202.601 218.178 206.72 218.069 211.07 216.877C209.852 216.877 209.098 216.823 208.344 216.877C192.334 217.907 176.383 218.936 160.373 219.912C151.15 220.508 141.869 221.05 132.646 221.592C115.999 222.622 99.351 223.706 82.7034 224.735C73.0744 225.331 63.4454 225.873 53.8165 226.47C37.1688 227.499 20.5211 228.583 3.87348 229.613C-3.26123 230.046 -10.3959 230.534 -17.4726 230.968C-28.6678 231.618 -39.8049 232.214 -51 232.865C-51 226.741 -51 220.562 -51 214.438C-49.9559 214.438 -48.8538 214.493 -47.8097 214.493C-8.30774 214.276 31.1942 214.438 70.7542 214.113C112.402 213.734 154.05 213.896 195.699 213.842C199.817 213.842 203.935 213.842 208.808 213.842C205.212 212.542 202.195 212.975 199.237 212.758C184.62 211.674 170.002 210.645 155.385 209.669C146.452 209.073 137.461 208.531 128.528 207.881C113.794 206.851 99.119 205.767 84.3855 204.792C75.5106 204.196 66.6938 203.654 57.8189 203.003C43.0274 201.974 28.1779 200.89 13.3864 199.86C4.51155 199.264 -4.30534 198.668 -13.1802 198.072C-25.7675 197.204 -38.3547 196.337 -51 195.524C-51 189.184 -51 182.897 -51 176.556C-44.6194 177.911 -38.0647 178.345 -31.5681 179.212C-17.8207 181.055 -4.07331 182.735 9.67406 184.523C24.1175 186.366 38.5029 188.208 52.9464 190.051C66.6938 191.785 80.4411 193.519 94.1885 195.308C107.298 196.988 120.349 198.668 133.458 200.348C147.09 202.082 160.779 203.816 174.469 205.55C186.128 207.014 197.729 208.531 209.388 210.049C208.576 209.561 207.706 209.29 206.836 209.127C167.334 201.161 127.89 193.194 88.3879 185.227C55.3826 178.562 22.4353 171.896 -10.57 165.23C-24.0273 162.52 -37.5427 159.81 -51 157.155C-51 150.651 -51 144.148 -51 137.645C-40.791 140.3 -30.582 142.956 -20.3729 145.611C50.7422 164.363 121.799 183.114 192.914 201.865C197.497 203.057 202.021 204.196 206.604 205.388C202.311 203.274 197.787 201.703 193.262 200.185C151.962 185.986 110.662 171.787 69.42 157.534C34.6746 145.557 -0.128918 133.58 -34.8744 121.657C-40.2109 119.815 -45.3734 117.593 -50.942 116.455C-50.942 109.247 -50.942 101.985 -50.942 94.7767C-36.5566 100.684 -22.1711 106.591 -7.78568 112.498C22.3193 124.909 52.4243 137.319 82.5293 149.676C117.681 164.146 152.774 178.616 187.984 193.032C194.713 195.795 201.267 198.83 208.17 201.052C208.46 201.486 208.924 201.54 209.446 201.432C209.62 202.082 210.084 202.028 210.606 201.974C210.78 202.136 210.896 202.299 211.07 202.407C211.128 202.299 211.244 202.245 211.302 202.136C211.07 202.082 210.838 202.028 210.548 201.974C210.316 201.486 209.91 201.432 209.388 201.432C209.214 200.944 208.75 200.836 208.286 200.836C207.88 200.565 207.532 200.294 207.126 200.077C195.467 194.224 183.865 188.371 172.206 182.518C124.41 158.564 76.5547 134.556 28.758 110.602C8.16591 100.25 -12.4261 89.9534 -33.0182 79.6022C-38.9928 76.6215 -44.9674 73.8034 -51 70.8769C-51 62.7477 -51 54.6185 -51 46.4893C-49.8979 47.0313 -48.7958 47.5732 -47.6937 48.1694C-12.8902 68.3298 21.8553 88.436 56.6588 108.596C100.221 133.797 143.783 158.997 187.346 184.198C194.655 188.425 202.021 192.49 209.33 196.663C209.794 197.096 210.084 197.692 210.954 197.475C210.896 196.663 210.142 196.608 209.562 196.392C208.692 195.687 207.822 194.983 206.894 194.332C188.912 181.976 170.93 169.674 152.948 157.371C116.869 132.713 80.7892 108.054 44.7096 83.3959C17.3888 64.6987 -9.93189 45.9474 -37.3106 27.3045C-41.7771 24.2696 -46.0115 20.7469 -51 18.4166C-51 8.66154 -51 -1.09349 -51 -10.8485C-49.8979 -10.8485 -49.3758 -9.9814 -48.6218 -9.43946C-35.3964 0.803322 -22.2291 11.1545 -9.0038 21.3973C14.2565 39.4441 37.5169 57.4367 60.7192 75.4835C80.1511 90.6037 99.525 105.778 118.957 120.899C141.695 138.62 164.492 156.342 187.288 174.009C194.771 179.808 202.311 185.553 209.852 191.351C210.084 191.514 210.258 191.677 210.49 191.839C211.708 193.086 212.868 194.386 214.609 195.037C215.305 196.121 216.407 196.825 217.567 197.421C216.697 196.554 216.175 195.145 214.609 195.091C214.086 193.248 212.346 192.49 210.838 191.568C210.664 191.406 210.49 191.189 210.316 191.026C209.91 189.942 208.866 189.346 208.054 188.588C180.733 163.712 153.354 138.891 126.034 114.07C111.648 100.955 97.3208 87.8398 82.9354 74.7247C60.8352 54.6727 38.735 34.6207 16.6348 14.5687C3.29342 2.42916 -10.1059 -9.65623 -23.4472 -21.85C-29.1898 -27.2153 -35.2224 -32.3096 -40.559 -38C-28.9578 -38 -17.3566 -38 -5.75548 -38C-5.52346 -37.729 -5.34944 -37.4039 -5.11742 -37.1329C8.57195 -23.0423 22.2613 -8.9517 35.9507 5.13889C49.6401 19.2295 63.3874 33.3201 77.0768 47.4107C104.049 75.2125 131.022 103.068 157.995 130.87C174.817 148.158 191.58 165.501 208.402 182.789C211.476 185.932 214.551 189.021 217.625 192.11C217.799 191.514 217.683 191.243 217.451 190.972C199.353 169.132 181.255 147.345 163.157 125.559C138.157 95.4813 113.214 65.4033 88.2139 35.3253C72.3203 16.1404 56.3687 -2.9903 40.5331 -22.2294C36.2987 -27.4321 31.6583 -32.418 27.8879 -38C37.1688 -38 46.4497 -38 55.7307 -38C56.9488 -36.1574 58.1669 -34.3148 59.443 -32.5263C100.047 23.2399 140.709 79.0603 181.313 134.881C194.655 153.198 207.996 171.516 221.337 189.888C221.859 188.75 221.047 188.1 220.583 187.341C215.247 178.562 209.852 169.782 204.458 161.057C184.794 128.974 165.13 96.8903 145.466 64.7529C127.484 35.3795 109.444 6.0602 91.5202 -23.3133C88.562 -28.1366 85.1976 -32.7973 82.9354 -37.9458C90.6501 -37.9458 98.4229 -37.9458 106.138 -37.9458C123.017 -5.91681 139.897 26.1122 156.777 58.1412C175.223 93.0425 193.668 127.998 212.114 162.899C216.581 171.299 220.641 179.862 225.514 188.046C225.572 188.262 225.688 188.533 225.746 188.75C225.862 188.696 226.036 188.533 226.036 188.533C225.92 188.317 225.804 188.154 225.63 187.937C225.63 186.528 224.876 185.336 224.354 184.089C212.984 157.588 201.615 131.033 190.304 104.532C172.032 61.8264 153.818 19.1753 135.605 -23.53C133.574 -28.2992 131.08 -32.8515 129.92 -37.8916C136.881 -37.8916 143.841 -37.8916 150.802 -37.8916C150.686 -36.6451 151.324 -35.6154 151.672 -34.5315C157.821 -17.0809 163.969 0.369766 170.118 17.8746C180.559 47.5732 191 77.3261 201.441 107.025C210.258 132.117 219.133 157.155 228.008 182.247C228.588 183.873 229.168 185.498 229.806 187.124C229.052 181.922 227.776 176.882 226.442 171.841C219.249 144.582 212.056 117.267 204.864 90.0076C195.409 54.0766 186.012 18.0914 176.615 -17.8396C174.875 -24.5055 172.786 -31.0631 171.684 -37.8374C178.065 -37.8374 184.446 -37.8374 190.826 -37.8374C193.494 -24.0178 196.221 -10.1982 198.889 3.62144C204.167 31.1523 209.446 58.7373 214.783 86.2682C219.539 110.981 224.354 135.694 229.168 160.406C230.966 169.782 232.764 179.158 234.621 188.479C234.795 187.287 234.911 186.095 234.795 184.956C233.692 175.093 232.59 165.284 231.488 155.42C230.27 143.931 229.11 132.496 227.834 121.007C226.558 108.922 225.166 96.8361 223.889 84.7507C222.845 75.3209 221.859 65.9452 220.873 56.5154C219.597 44.5925 218.263 32.6697 216.987 20.7469C215.943 11.0461 214.899 1.39946 213.854 -8.30137C212.81 -18.1648 211.708 -28.0282 210.606 -37.8374C216.813 -37.8374 222.961 -37.8374 229.168 -37.8374C229.342 -36.2116 229.574 -34.6399 229.69 -33.0141C230.096 -24.1804 230.444 -15.3467 230.85 -6.51295C231.604 12.2926 232.416 31.1523 233.17 49.9578C233.75 63.8316 234.331 77.7054 234.911 91.5793C235.723 110.602 236.535 129.57 237.231 148.592C237.753 162.032 238.159 175.472 238.681 188.859C238.681 189.509 238.855 190.105 238.913 190.755C239.899 184.252 239.667 177.749 240.015 171.299C241.001 152.223 241.639 133.092 242.451 114.016C243.031 100.521 243.611 86.9727 244.133 73.4782C244.946 53.914 245.758 34.3498 246.512 14.8397C246.976 2.86272 247.208 -9.16848 247.962 -21.0913C248.31 -26.6733 247.788 -32.3096 248.89 -37.8374C255.097 -37.8374 261.245 -37.8374 267.452 -37.8374C266.814 -31.6592 266.234 -25.4811 265.538 -19.3029C264.262 -7.65103 262.927 4.0008 261.709 15.6526C260.665 25.5161 259.621 35.3795 258.577 45.2429C257.301 56.8947 256.025 68.5466 254.749 80.1984C253.704 89.8992 252.66 99.5459 251.616 109.247C250.34 120.899 249.064 132.55 247.788 144.202C246.86 152.44 245.99 160.677 245.062 168.915C244.191 176.611 243.379 184.36 242.567 192.056C242.683 192.056 242.741 192.056 242.857 192.11C257.649 115.479 272.44 38.8479 287.232 -37.7832C293.612 -37.7832 299.993 -37.7832 306.374 -37.7832C306.316 -36.9703 306.374 -36.1574 306.142 -35.3987C302.081 -19.8448 298.021 -4.23678 293.902 11.3171C288.276 32.7239 282.533 54.185 276.907 75.5918C269.192 104.965 261.477 134.393 253.82 163.766C251.848 171.299 249.47 178.724 248.194 186.366C247.15 187.883 246.976 189.617 247.092 191.406C247.556 189.78 247.962 188.154 248.426 186.528C248.774 185.715 249.238 184.902 249.528 184.089C253.82 171.841 258.113 159.593 262.463 147.345C277.139 105.832 291.756 64.3194 306.432 22.8063C313.45 2.37496 320.585 -17.7854 327.72 -38C334.681 -38 341.641 -38 348.602 -38C348.486 -37.6748 348.428 -37.2955 348.312 -36.9703C340.423 -18.49 332.476 0.0446014 324.53 18.525C301.559 72.286 278.531 125.993 255.561 179.754C253.936 183.602 252.312 187.395 250.688 191.243C251.442 190.972 251.732 190.484 251.964 189.997C264.261 166.585 276.501 143.173 288.856 119.815C313.566 72.8821 338.393 26.0038 363.045 -20.9829C366.062 -26.6191 369.368 -32.0928 371.804 -38C379.751 -38 387.64 -38 395.587 -38C395.355 -37.4039 395.181 -36.8077 394.891 -36.2658C386.248 -22.121 377.547 -7.92201 368.846 6.22278C350.052 36.8969 331.258 67.571 312.464 98.2452C295.295 126.318 278.009 154.391 260.897 182.518C258.403 186.637 255.271 190.484 253.53 194.983C253.356 195.145 253.124 195.362 252.95 195.524C252.892 195.579 252.892 195.633 252.834 195.687C252.834 195.741 252.776 195.795 252.776 195.85C252.834 195.741 252.892 195.579 252.892 195.47C253.066 195.308 253.298 195.091 253.472 194.928C255.271 193.14 256.489 190.972 257.939 188.967C287.812 147.942 317.743 106.971 347.558 65.9452C370.934 33.862 394.253 1.77882 417.513 -30.3044C419.369 -32.7973 421.515 -35.1277 422.791 -38C432.246 -38 441.759 -38 451.214 -38C431.956 -14.7505 412.756 8.55315 393.498 31.8026C371.572 58.2496 349.588 84.6965 327.662 111.089C311.188 130.925 294.773 150.706 278.299 170.541C272.382 177.64 266.582 184.848 260.723 192.056C259.331 193.194 258.113 194.441 257.475 196.121C257.359 196.175 257.243 196.283 257.185 196.337C257.243 196.337 257.301 196.337 257.359 196.283C257.417 196.229 257.417 196.121 257.475 196.066C258.983 195.091 260.201 193.844 261.071 192.381C270.062 183.222 279.111 174.063 288.102 164.905C311.826 140.463 335.551 116.021 359.275 91.5793C373.486 76.9467 387.698 62.3684 401.909 47.7358C424.009 24.9741 446.168 2.21238 468.268 -20.6035C473.836 -26.3482 479.289 -32.147 484.858 -37.9458C496.633 -37.9458 508.466 -37.9458 520.241 -37.9458C519.255 -36.9703 518.327 -35.9406 517.283 -35.0193C507.422 -26.0772 497.561 -17.1893 487.758 -8.24717C472.502 5.57244 457.305 19.4463 442.049 33.3201C414.09 58.7373 386.074 84.1546 358.115 109.572C336.363 129.353 314.611 149.08 292.916 168.861C286.362 174.822 279.691 180.784 273.194 186.799C269.366 190.322 265.712 193.953 261.941 197.53C262.521 197.801 262.811 197.259 263.101 197.042C275.051 187.775 287 178.453 298.949 169.132C323.369 150.109 347.79 131.141 372.21 112.119C398.023 92.0128 423.893 72.015 449.764 51.9088C476.215 31.3691 502.607 10.7751 529 -9.76462C529 0.152985 529 10.1248 529 20.0424C528.246 19.934 527.724 20.4218 527.202 20.8011C520.415 25.4077 513.628 30.0684 506.842 34.7291C468.674 60.8509 430.506 86.9727 392.338 113.094C357.535 136.886 322.673 160.732 287.87 184.523C280.561 189.509 273.31 194.657 266.06 199.697C265.828 199.86 265.19 199.806 265.48 200.239C265.654 200.565 266.118 200.294 266.35 199.968C266.872 199.752 267.394 199.535 267.916 199.264C301.037 180.079 334.159 160.894 367.338 141.709C421.167 110.493 475.055 79.3313 528.942 48.1694C528.942 56.2986 528.942 64.4278 528.942 72.557C514.557 79.7648 500.229 87.0269 485.844 94.2348C457.769 108.325 429.694 122.362 401.619 136.398C360.029 157.263 318.439 178.074 276.907 198.993C272.556 201.215 267.858 202.895 263.913 205.876C263.333 206.038 262.753 206.201 262.173 206.418L262.057 206.526L262.115 206.418C262.695 206.309 263.391 206.418 263.855 205.876C271.222 202.895 278.531 199.914 285.898 196.934C315.829 184.631 345.76 172.275 375.749 159.919C414.264 144.04 452.78 128.215 491.296 112.39C503.825 107.241 516.413 102.147 528.942 96.9987C528.942 104.207 528.942 111.469 528.942 118.677C528.014 118.893 527.028 119.002 526.158 119.327C500.171 128.269 474.185 137.211 448.256 146.153C393.614 164.85 338.973 183.656 284.273 202.516C278.067 204.683 271.86 206.905 265.654 209.073C265.48 209.236 264.958 208.856 265.016 209.452C265.19 209.344 265.422 209.181 265.596 209.073C268.786 209.073 271.57 207.772 274.529 206.96C308.056 198.126 341.525 189.292 374.995 180.458C411.248 170.866 447.56 161.273 483.813 151.681C498.837 147.725 513.86 143.714 528.884 139.704C528.884 146.37 528.884 153.09 528.884 159.756C528.13 159.864 527.376 159.864 526.622 160.027C505.798 164.254 484.974 168.481 464.149 172.709C427.664 180.079 391.236 187.449 354.751 194.82C330.156 199.806 305.562 204.738 280.967 209.723C275.515 210.807 270.062 211.945 264.668 213.029C265.712 213.3 266.64 213.192 267.626 213.083C276.385 211.945 285.202 210.753 293.96 209.615C308.694 207.718 323.369 205.93 338.103 204.033C351.734 202.299 365.424 200.51 379.055 198.776C393.846 196.879 408.638 194.982 423.429 193.086C438.163 191.189 452.838 189.292 467.572 187.449C481.145 185.715 494.661 183.981 508.234 182.247C515.137 181.38 521.981 180.621 528.884 179.808C528.884 185.932 528.884 192.11 528.884 198.234C526.158 199.047 523.315 198.722 520.531 198.939C506.088 200.023 491.702 201.052 477.259 202.028C468.094 202.678 458.987 203.166 449.822 203.816C433 205.009 416.179 206.255 399.357 207.447C387.64 208.26 375.865 208.965 364.147 209.778C347.152 210.97 330.098 212.216 313.102 213.409C301.153 214.222 289.204 214.818 277.313 215.847C273.658 216.173 269.83 215.631 265.77 217.202C271.918 217.202 277.545 217.202 283.113 217.202C331.258 217.311 379.345 217.148 427.49 217.69C434.276 217.744 441.005 217.744 447.792 217.744C474.823 217.798 501.911 217.798 528.942 217.798C528.942 224.139 528.942 230.426 528.942 236.767C522.851 236.387 516.819 235.954 510.728 235.574C493.906 234.49 477.027 233.461 460.205 232.431C450.576 231.835 440.947 231.293 431.318 230.697C414.497 229.667 397.617 228.583 380.795 227.553C362.523 226.415 344.193 225.331 325.922 224.193C319.947 223.814 313.972 223.435 307.998 223.055C293.206 222.08 278.357 221.104 263.565 220.129C263.565 220.237 263.507 220.346 263.507 220.454C351.966 232.377 440.425 244.354 528.942 256.277C528.942 262.617 528.942 268.904 528.942 275.245C528.014 275.136 527.028 275.136 526.1 274.92C491.528 268.199 457.015 261.425 422.501 254.705C375.343 245.492 328.126 236.333 280.909 227.12C275.863 226.144 270.758 225.169 264.9 224.031C265.77 224.573 265.886 224.681 266.06 224.735C293.09 232.106 320.121 239.476 347.152 246.793C403.011 261.967 458.813 277.142 514.673 292.262C519.371 293.508 523.953 295.297 528.884 295.73C528.884 302.613 528.884 309.441 528.884 316.324C527.55 316.487 526.448 315.836 525.288 315.457C486.772 302.559 448.314 289.606 409.798 276.708C365.946 261.967 322.093 247.226 278.299 232.485C274.181 231.076 270.062 229.775 265.944 228.421C266.466 229.233 267.22 229.613 267.974 229.938C283.403 236.387 298.775 242.891 314.204 249.34C350.226 264.46 386.19 279.58 422.211 294.701C453.824 307.978 485.38 321.31 516.993 334.534C520.937 336.159 524.708 338.273 528.942 339.194C528.942 346.944 528.942 354.748 528.942 362.498C512.468 354.423 495.937 346.348 479.463 338.219C435.669 316.649 391.874 295.026 348.022 273.456C320.759 260.016 293.496 246.684 266.234 233.298C265.016 232.702 263.797 232.052 262.579 231.455C263.913 232.865 265.538 233.786 267.104 234.707C301.965 255.247 336.827 275.787 371.688 296.326C418.267 323.749 464.788 351.117 511.366 378.485C517.167 381.9 522.735 385.639 528.826 388.511C528.826 397.562 528.826 406.558 528.826 415.609C524.417 412.682 520.009 409.756 515.659 406.775C471.574 377.076 427.49 347.378 383.463 317.679C344.077 291.178 304.692 264.623 265.306 238.176C263.913 237.254 262.811 235.899 260.897 235.737C260.491 234.382 259.215 234.003 257.997 233.569C257.939 233.515 257.881 233.461 257.765 233.406C257.823 233.461 257.939 233.515 257.997 233.515C258.809 234.436 259.621 235.357 260.897 235.683C261.129 235.954 261.303 236.333 261.593 236.55C273.484 245.925 285.376 255.301 297.209 264.677C318.671 281.64 340.133 298.548 361.595 315.511C380.099 330.144 398.603 344.776 417.107 359.409C438.975 376.697 460.901 394.039 482.769 411.327C498.083 423.413 513.454 435.498 528.826 447.638C528.826 458.639 528.826 469.695 528.826 480.696C525.114 477.445 521.343 474.193 517.631 470.887C493.964 449.751 470.356 428.561 446.69 407.371C423.951 386.994 401.213 366.671 378.475 346.294C359.507 329.331 340.539 312.314 321.571 295.351C300.631 276.6 279.749 257.848 258.867 239.097C258.403 238.718 258.113 238.013 257.069 238.23C262.231 243.649 267.336 249.014 272.44 254.38C286.362 268.904 300.283 283.374 314.204 297.952C336.073 320.822 357.941 343.747 379.809 366.617C395.123 382.658 410.436 398.646 425.75 414.633C444.544 434.252 463.337 453.924 482.073 473.597C491.702 483.677 501.273 493.811 510.902 503.946C499.301 503.946 487.7 503.946 476.041 503.946C469.834 496.467 463.627 488.988 457.363 481.563C434.567 454.466 411.77 427.369 388.974 400.326C366.12 373.283 343.265 346.24 320.411 319.196C298.717 293.454 277.081 267.712 255.387 242.023C254.981 241.536 254.691 240.669 253.646 241.048C254.343 241.969 254.981 242.836 255.619 243.703C278.183 275.19 300.805 306.623 323.311 338.11C355.099 382.496 386.886 426.881 418.615 471.321C426.388 482.214 434.102 493.107 441.817 504C432.304 504 422.791 504 413.22 504C402.895 487.416 392.628 470.779 382.245 454.195C362.117 421.245 341.757 388.62 321.397 355.995C303.937 328.03 286.594 300.066 269.134 272.101C263.217 262.617 257.185 253.188 251.21 243.758C250.978 242.836 250.688 242.023 249.644 241.319C249.818 242.457 250.166 243.324 251.094 243.866C250.978 244.841 251.616 245.6 252.022 246.413C262.057 265.815 272.092 285.271 282.127 304.672C307.708 354.152 333.288 403.577 358.869 453.057C367.628 469.966 376.329 486.875 385.03 503.783C376.735 503.783 368.498 503.783 360.203 503.783C350.11 480.696 339.959 457.555 329.866 434.468C305.736 379.244 281.663 324.074 257.533 268.958C253.936 260.721 250.166 252.537 246.512 244.3C246.454 244.029 246.396 243.812 246.338 243.541C246.222 243.649 246.048 243.703 246.048 243.812C246.048 244.083 246.164 244.3 246.57 244.3C246.338 245.221 246.686 246.088 246.976 246.901C250.978 258.661 254.981 270.421 259.041 282.182C268.902 310.905 278.879 339.628 288.74 368.351C300.573 402.765 312.348 437.124 324.124 471.537C327.778 482.268 331.374 492.999 334.971 503.729C327.488 503.729 320.063 503.729 312.58 503.729C288.914 416.693 265.306 329.656 241.697 242.674C241.987 246.793 242.799 250.803 243.553 254.868C247.672 277.413 251.79 299.957 255.967 322.502C259.911 343.963 263.971 365.424 267.916 386.886C271.512 406.287 275.051 425.743 278.647 445.199C282.243 464.709 285.84 484.219 289.436 503.783C282.301 503.783 275.167 503.783 268.032 503.783C267.974 502.699 267.916 501.615 267.8 500.532C266.524 489.693 265.19 478.854 263.971 468.015C262.753 457.339 261.535 446.716 260.317 436.04C259.041 425.093 257.707 414.2 256.431 403.306C255.155 392.576 253.994 381.791 252.776 371.061C251.5 360.113 250.166 349.22 248.89 338.273C247.672 327.705 246.454 317.137 245.236 306.569C243.785 293.942 242.277 281.315 240.769 268.687C239.725 260.016 238.739 251.345 237.695 242.674C237.637 251.507 237.985 260.341 238.333 269.175C238.971 287.005 239.551 304.889 240.131 322.719C240.479 333.992 240.885 345.264 241.233 356.537C241.871 375.667 242.451 394.744 243.089 413.874C243.437 423.629 243.843 433.33 244.133 443.085C244.772 463.3 245.41 483.46 245.99 503.675C239.029 503.675 232.068 503.675 225.108 503.675C225.456 493.757 225.862 483.84 226.152 473.922C226.732 455.875 227.312 437.828 227.95 419.836C228.298 408.943 228.704 397.995 229.052 387.102C229.632 369.001 230.27 350.846 230.85 332.745C231.314 317.245 231.72 301.692 232.242 286.192C232.474 279.255 232.938 272.318 233.112 265.381C233.286 257.794 233.17 250.261 233.17 242.674C232.996 246.305 232.59 249.936 232.126 253.621C230.908 264.297 229.69 274.92 228.414 285.596C227.138 296.435 225.862 307.274 224.586 318.113C223.367 328.789 222.149 339.411 220.931 350.087C219.655 361.035 218.321 371.928 217.045 382.875C215.769 393.606 214.609 404.39 213.332 415.121C212.056 425.96 210.78 436.799 209.504 447.638C208.402 456.959 207.3 466.281 206.198 475.548C205.096 484.978 204.109 494.353 203.065 503.783C195.931 503.783 188.796 503.783 181.661 503.783C183.111 495.708 184.562 487.633 186.07 479.558C189.434 461.295 192.798 443.031 196.163 424.713C199.353 407.317 202.601 389.92 205.792 372.578C208.982 355.453 212.114 338.327 215.305 321.202C219.249 299.741 223.251 278.28 227.196 256.819C227.95 252.862 228.646 248.852 229.342 244.896C229.11 244.842 228.936 244.842 228.704 244.787C205.212 331.065 181.777 417.397 158.401 503.729C150.86 503.729 143.319 503.729 135.779 503.729C144.654 477.932 153.47 452.082 162.345 426.285C182.067 368.893 201.789 311.555 221.395 254.109C223.077 249.231 225.224 244.462 226.21 239.422C226.268 239.259 226.326 239.097 226.384 238.989C226.326 239.151 226.268 239.314 226.268 239.476C224.876 241.536 224.237 243.92 223.251 246.142C209.678 277.196 196.047 308.195 182.473 339.249C163.911 381.629 145.408 424.009 126.904 466.389C121.451 478.8 116.115 491.264 110.778 503.729C102.483 503.729 94.1305 503.729 85.8357 503.729C86.1837 502.97 86.4737 502.212 86.8218 501.507C98.5389 478.745 110.256 456.038 122.031 433.276C138.969 400.543 155.849 367.863 172.786 335.13C188.97 303.859 205.154 272.643 221.337 241.427C221.743 240.614 222.265 239.856 222.207 238.88C222.265 238.826 222.323 238.772 222.381 238.718C222.323 238.772 222.265 238.88 222.265 238.934C221.569 239.91 220.873 240.885 220.235 241.861C213.216 253.188 206.198 264.514 199.179 275.787C182.589 302.45 165.884 329.06 149.294 355.724C129.688 387.156 110.14 418.535 90.5921 449.968C79.397 467.906 68.2599 485.845 57.1228 503.729C47.6098 503.729 38.0389 503.729 28.526 503.729C28.99 502.97 29.396 502.157 29.9181 501.399C44.0715 481.618 58.2829 461.837 72.4363 442.001C95.0006 410.243 117.681 378.54 140.419 346.782C165.13 312.26 189.84 277.792 214.551 243.324C215.363 242.186 216.117 240.994 216.929 239.801C213.854 242.565 211.186 245.6 208.576 248.689C181.661 280.664 154.747 312.639 127.774 344.614C100.511 376.914 73.2484 409.268 46.0437 441.568C28.584 462.27 11.1822 482.973 -6.21952 503.675C-17.8787 503.675 -29.5379 503.675 -41.197 503.675C-38.7028 500.965 -36.2085 498.147 -33.6563 495.492C-16.4865 477.553 0.741173 459.615 17.9689 441.622C38.5029 420.161 59.037 398.7 79.513 377.185C103.121 352.472 126.73 327.759 150.338 303.101C169.306 283.266 188.332 263.43 207.358 243.595C209.214 241.644 211.07 239.639 213.158 237.417C211.882 237.417 211.534 238.013 211.128 238.447C196.569 251.399 182.067 264.352 167.508 277.358C144.364 298.061 121.161 318.817 98.0169 339.574C81.0212 354.802 64.0255 370.085 47.0298 385.368C21.3332 408.347 -4.36334 431.325 -30.0019 454.249C-36.9626 460.482 -43.9813 466.714 -50.942 472.947C-50.942 462.108 -50.942 451.269 -50.942 440.43C-39.3408 431.325 -27.7397 422.22 -16.1385 413.061C6.94779 394.852 29.9761 376.589 53.0624 358.325C77.5988 338.923 102.193 319.576 126.73 300.174C152.542 279.797 178.355 259.42 204.167 239.043C206.314 237.363 208.402 235.574 210.49 233.894C209.852 233.677 209.504 233.786 209.272 233.948C198.077 241.481 186.882 249.015 175.687 256.548C139.433 280.989 103.179 305.377 66.8678 329.819C36.5307 350.25 6.25172 370.681 -24.0853 391.059C-33.0182 397.074 -42.0091 402.981 -50.942 408.997C-50.942 400.163 -50.942 391.275 -50.942 382.442C-50.1879 382.496 -49.7239 382.062 -49.1438 381.737C-38.5288 375.505 -27.9137 369.218 -17.2986 362.986C21.0432 340.441 59.327 317.896 97.6689 295.351C128.702 277.087 159.735 258.824 190.826 240.56C197.033 236.929 203.181 233.298 209.33 229.613C208.46 229.45 207.764 229.721 207.126 229.992C199.295 233.894 191.464 237.796 183.575 241.644C137.577 264.243 91.6363 286.842 45.6377 309.441C13.3864 325.266 -18.8068 341.145 -51 356.97ZM241.059 240.018C241.001 240.181 241.001 240.343 240.943 240.452C240.943 240.614 240.943 240.777 240.943 240.94C241.001 240.777 241.059 240.614 241.059 240.506C241.059 240.343 241.059 240.181 241.059 240.018ZM263.333 209.832C263.275 209.832 263.159 209.778 263.101 209.778C263.043 209.778 262.985 209.832 262.985 209.886C263.043 209.886 263.159 209.886 263.217 209.886C263.275 209.94 263.275 209.886 263.333 209.832ZM250.34 192.923C250.34 192.869 250.398 192.761 250.398 192.706C250.34 192.761 250.224 192.815 250.166 192.869C250.224 192.869 250.282 192.923 250.34 192.923Z" fill="url(#paint0_radial)"/>
</g>
<defs>
<radialGradient id="paint0_radial" cx="0" cy="0" r="1" gradientUnits="userSpaceOnUse" gradientTransform="translate(243.122 214.545) rotate(-134.958) scale(125.941 223.255)">
<stop offset="0.229167" stop-color="#F47820"/>
<stop offset="1" stop-color="#FFE663" stop-opacity="0"/>
</radialGradient>
</defs>
</svg>
