<svg width="20" height="20" viewBox="0 0 20 20" fill="none" xmlns="http://www.w3.org/2000/svg">
<path d="M8.88889 5.55556H11.1111V10H14.4444V12.2222H8.88889V5.55556Z" fill="#7F7F7F"/>
<path fill-rule="evenodd" clip-rule="evenodd" d="M0 10C0 4.47715 4.47715 0 10 0C15.5228 0 20 4.47715 20 10C20 15.5228 15.5228 20 10 20C4.47715 20 0 15.5228 0 10ZM2.22222 10C2.22222 5.70445 5.70445 2.22222 10 2.22222C14.2955 2.22222 17.7778 5.70445 17.7778 10C17.7778 14.2955 14.2955 17.7778 10 17.7778C5.70445 17.7778 2.22222 14.2955 2.22222 10Z" fill="#7F7F7F"/>
</svg>
