<svg width="18" height="18" viewBox="0 0 18 18" fill="none" xmlns="http://www.w3.org/2000/svg">
<circle cx="9" cy="9" r="9" fill="#F47820"/>
<path fill-rule="evenodd" clip-rule="evenodd" d="M7.86719 9.50943C9.01433 8.92193 11.2627 7.51613 12.0386 5.07227C11.1618 5.28949 9.37897 6.08643 8.15977 7.68258C8.12377 8.43052 8.01386 9.0697 7.86719 9.50943Z" fill="white"/>
<path d="M10.0448 8.40345L8.90849 9.86541L9.96347 10.0926L10.0448 8.40345Z" fill="black"/>
<path fill-rule="evenodd" clip-rule="evenodd" d="M6 7.1159V15.1535H7.74883C10.0488 14.9479 12.19 13.6212 11.9207 11.3716C11.866 10.9146 11.4578 10.1707 10.352 9.8354C10.0612 9.74727 9.72575 9.73423 9.34975 9.71962L9.34481 9.71943C9.04761 9.70788 8.87097 9.71784 8.63458 9.73117H8.63458H8.63457H8.63456C8.5703 9.73479 8.50162 9.73867 8.4249 9.74242C8.06378 9.76011 7.50156 9.80997 7.50156 9.80997C8.01039 8.72709 8.23889 5.4594 7.02526 2.84131C6.75799 3.16071 6.09557 4.46813 6 6.25325V6.83514V7.1159ZM10.2519 11.6188C10.5642 11.5814 10.787 11.298 10.7496 10.9857C10.7123 10.6734 10.4288 10.4505 10.1165 10.4879C9.80417 10.5253 9.58131 10.8088 9.6187 11.1211C9.65608 11.4334 9.93956 11.6562 10.2519 11.6188Z" fill="white"/>
</svg>
