<svg width="32" height="32" viewBox="0 0 32 32" fill="none" xmlns="http://www.w3.org/2000/svg">
<circle cx="16" cy="16" r="16" fill="white"/>
<path fill-rule="evenodd" clip-rule="evenodd" d="M13.9727 16.9107C16.0216 15.8614 20.0379 13.3503 21.4239 8.98486C19.8577 9.37289 16.6731 10.7965 14.4953 13.6477C14.431 14.9837 14.2346 16.1253 13.9727 16.9107Z" fill="#F47820"/>
<path d="M17.8636 14.9354L15.8339 17.5468L17.7183 17.9526L17.8636 14.9354Z" fill="black"/>
<path fill-rule="evenodd" clip-rule="evenodd" d="M10.6387 12.6715V26.9923H13.7593C17.868 26.6254 21.6933 24.2555 21.2122 20.2369C21.1145 19.4207 20.3854 18.0918 18.4102 17.4929C17.8909 17.3355 17.2917 17.3122 16.62 17.2861L16.6112 17.2858C16.0803 17.2652 15.7648 17.2829 15.3425 17.3068C15.2278 17.3132 15.1051 17.3201 14.9681 17.3269C14.323 17.3584 13.3188 17.4475 13.3188 17.4475C14.2277 15.5133 14.6358 9.67646 12.468 5C11.9924 5.56836 10.8164 7.88811 10.6387 11.0581V12.1336V12.6715ZM18.2324 20.6784C18.7902 20.6116 19.1883 20.1053 19.1215 19.5474C19.0548 18.9896 18.5484 18.5915 17.9906 18.6583C17.4327 18.725 17.0347 19.2314 17.1014 19.7892C17.1682 20.3471 17.6746 20.7452 18.2324 20.6784Z" fill="#F47820"/>
</svg>
