<svg width="24" height="14" viewBox="0 0 24 14" fill="none" xmlns="http://www.w3.org/2000/svg">
<g opacity="0.5">
<path d="M15.4695 6.29289C15.0789 5.90237 14.4458 5.90237 14.0553 6.29289C13.6647 6.68342 13.6647 7.31658 14.0553 7.70711C14.4458 8.09763 15.0789 8.09763 15.4695 7.70711C15.86 7.31658 15.86 6.68342 15.4695 6.29289Z" fill="white"/>
<path d="M16.1766 4.17156C16.5671 3.78103 17.2003 3.78103 17.5908 4.17156C17.9813 4.56208 17.9813 5.19524 17.5908 5.58577C17.2003 5.97629 16.5671 5.97629 16.1766 5.58577C15.7861 5.19524 15.7861 4.56208 16.1766 4.17156Z" fill="white"/>
<path d="M19.7121 6.29289C19.3216 5.90237 18.6885 5.90237 18.2979 6.29289C17.9074 6.68342 17.9074 7.31658 18.2979 7.70711C18.6885 8.09763 19.3216 8.09763 19.7121 7.70711C20.1027 7.31658 20.1027 6.68342 19.7121 6.29289Z" fill="white"/>
<path d="M16.1766 8.41423C16.5671 8.02371 17.2003 8.02371 17.5908 8.41423C17.9813 8.80476 17.9813 9.43792 17.5908 9.82844C17.2003 10.219 16.5671 10.219 16.1766 9.82844C15.7861 9.43792 15.7861 8.80476 16.1766 8.41423Z" fill="white"/>
<path d="M6 8H4V6H6V4H8V6H10V8H8V10H6V8Z" fill="white"/>
<path fill-rule="evenodd" clip-rule="evenodd" d="M7 0C3.13401 0 0 3.13401 0 7C0 10.866 3.13401 14 7 14H17C20.866 14 24 10.866 24 7C24 3.13401 20.866 0 17 0H7ZM17 2H7C4.23858 2 2 4.23858 2 7C2 9.76142 4.23858 12 7 12H17C19.7614 12 22 9.76142 22 7C22 4.23858 19.7614 2 17 2Z" fill="white"/>
</g>
</svg>
