<svg width="44" height="43" viewBox="0 0 44 43" fill="none" xmlns="http://www.w3.org/2000/svg">
<path d="M41.1328 9.68751H35.1055C36.0895 8.62075 36.692 7.19688 36.692 5.6346C36.692 5.6346 36.6908 5.39613 36.6885 5.32806C36.6234 3.40009 35.572 1.68072 33.8762 0.728367C32.146 -0.243001 30.0849 -0.242746 28.3627 0.7293L25.6216 2.27631C23.9048 3.24522 22.5613 4.70558 21.7255 6.42274C20.8897 4.70558 19.5462 3.24522 17.8295 2.27639L15.0884 0.729215C13.3662 -0.242746 11.3051 -0.243086 9.57492 0.728282C7.87906 1.68055 6.82766 3.40001 6.76257 5.32798C6.76028 5.39604 6.75909 5.63451 6.75909 5.63451C6.75909 7.1968 7.36155 8.62067 8.34556 9.68751H2.31818C1.03994 9.68751 0 10.7275 0 12.0058V17.5079C0 18.7862 1.03994 19.8261 2.31818 19.8261H3.3795V40.6818C3.3795 41.9601 4.41944 43 5.69768 43H37.7532C39.0315 43 40.0714 41.9601 40.0714 40.6818V19.826H41.1327C42.411 19.826 43.4509 18.7861 43.4509 17.5078V12.0057C43.451 10.7275 42.4111 9.68751 41.1328 9.68751ZM26.5707 3.95808L29.3119 2.41107C30.4413 1.77357 31.7942 1.77408 32.9307 2.41226C34.0331 3.03119 34.7163 4.14555 34.7584 5.39332C34.76 5.43966 34.7607 5.6346 34.7607 5.6346C34.7607 7.86944 32.9426 9.68759 30.7077 9.68759H22.7463C23.0357 7.2988 24.4459 5.15723 26.5707 3.95808ZM8.69249 5.39324C8.73467 4.14555 9.41792 3.03119 10.5202 2.41218C11.089 2.09283 11.7116 1.93328 12.3335 1.93328C12.9544 1.93328 13.5747 2.09249 14.139 2.41107L16.8801 3.95808C19.005 5.15723 20.4151 7.2988 20.7045 9.68742H12.743C10.5083 9.68742 8.69012 7.86927 8.69012 5.63451C8.6902 5.6346 8.69096 5.43958 8.69249 5.39324ZM17.3805 22.7635H13.4052C12.8719 22.7635 12.4396 23.1958 12.4396 23.7291C12.4396 24.2623 12.8719 24.6947 13.4052 24.6947H17.3805V41.0688H5.69768C5.48425 41.0688 5.3107 40.8953 5.3107 40.6819V19.826H17.3805V22.7635ZM17.3805 17.895H2.31818C2.10474 17.8949 1.93119 17.7214 1.93119 17.508V12.0059C1.93119 11.7923 2.10483 11.6188 2.31818 11.6188H17.3805V17.895ZM24.1392 41.0687H19.3117V11.6186H24.1392V41.0687ZM38.1403 40.6818C38.1403 40.8953 37.9667 41.0688 37.7533 41.0688H26.0704V24.6946H29.7498C30.2831 24.6946 30.7154 24.2622 30.7154 23.729C30.7154 23.1958 30.2831 22.7634 29.7498 22.7634H26.0704V19.826H38.1404V40.6818H38.1403ZM41.5198 17.508C41.5198 17.7214 41.3462 17.895 41.1328 17.895H26.0704V11.6187H41.1329C41.3463 11.6187 41.5199 11.7923 41.5199 12.0058V17.508H41.5198Z" fill="white"/>
<path d="M34.3362 24.6949H34.4328C34.9661 24.6949 35.3984 24.2625 35.3984 23.7293C35.3984 23.1961 34.9661 22.7637 34.4328 22.7637H34.3362C33.8029 22.7637 33.3706 23.1961 33.3706 23.7293C33.3707 24.2625 33.8029 24.6949 34.3362 24.6949Z" fill="white"/>
<path d="M8.72243 24.6949H8.81901C9.3523 24.6949 9.78461 24.2625 9.78461 23.7293C9.78461 23.1961 9.35222 22.7637 8.81901 22.7637H8.72243C8.18914 22.7637 7.75684 23.1961 7.75684 23.7293C7.75684 24.2625 8.18914 24.6949 8.72243 24.6949Z" fill="white"/>
</svg>
