<svg width="15" height="15" viewBox="0 0 15 15" fill="none" xmlns="http://www.w3.org/2000/svg">
<g opacity="0.5">
<path fill-rule="evenodd" clip-rule="evenodd" d="M7.5 0C3.35786 0 0 3.35786 0 7.5C0 11.6421 3.35786 15 7.5 15C11.6421 15 15 11.6421 15 7.5C15 3.35786 11.6421 0 7.5 0ZM1.5 7.5C1.5 10.8137 4.18629 13.5 7.5 13.5C10.8137 13.5 13.5 10.8137 13.5 7.5C13.5 4.18629 10.8137 1.5 7.5 1.5C4.18629 1.5 1.5 4.18629 1.5 7.5Z" fill="black"/>
<path d="M6.89179 11.0093C6.89179 10.6693 7.16744 10.3937 7.50746 10.3937C7.84749 10.3937 8.12314 10.6693 8.12314 11.0093C8.12314 11.3494 7.84749 11.625 7.50746 11.625C7.16744 11.625 6.89179 11.3494 6.89179 11.0093ZM7.71269 3.375C9.92911 3.4653 10.8896 5.69813 9.58433 7.36455C9.23955 7.775 8.68955 8.0459 8.41045 8.39888C8.26805 8.57383 8.19622 8.76291 8.16 8.9591C8.09826 9.29347 7.84749 9.57276 7.50746 9.57276C7.16744 9.57276 6.88523 9.29687 6.90042 8.95718C6.91955 8.52935 6.98109 8.16459 7.17911 7.88172C7.45 7.47127 8 7.225 8.34478 6.9541C9.35448 6.02649 9.09179 4.72127 7.71269 4.61455C7.24907 4.61455 6.83998 4.87545 6.63022 5.26315C6.46842 5.56221 6.2057 5.8541 5.86567 5.8541C5.52565 5.8541 5.24217 5.57425 5.3252 5.24452C5.59597 4.16914 6.56609 3.375 7.71269 3.375Z" fill="black"/>
</g>
</svg>
