<svg width="94" height="41" viewBox="0 0 94 41" fill="none" xmlns="http://www.w3.org/2000/svg">
<path d="M93.5519 38.3464H20.0758V40.291H93.5519V38.3464Z" fill="black"/>
<path d="M24.8517 22.1918C24.3496 22.7901 23.7619 23.3136 23.1102 23.741C25.8561 24.8522 27.8006 27.5339 27.8006 30.6751C27.8006 34.81 24.4564 38.1542 20.3216 38.1542C20.2361 38.1542 20.1613 38.1542 20.0758 38.1435L20.0652 38.1542H14.2743H12.9921H12.6823C11.5711 38.2396 10.7057 39.1585 10.7057 40.2803C10.7057 40.2803 10.7057 40.2803 10.7057 40.291H14.9794H20.2147C20.2468 40.291 20.2895 40.291 20.3216 40.291C25.6317 40.291 29.9375 35.9852 29.9375 30.6751C29.9268 26.9997 27.8754 23.8158 24.8517 22.1918Z" fill="black"/>
<path d="M18.7083 9.02863C18.1206 9.02863 17.5437 9.09273 16.9881 9.21026C16.8919 9.23163 16.7958 9.25299 16.7103 9.27436C16.6141 9.29573 16.5287 9.32779 16.4325 9.34916C16.4218 9.34916 16.4111 9.35984 16.3898 9.35984C16.3043 9.38121 16.2188 9.41326 16.144 9.43463C16.0372 9.46668 15.9303 9.50942 15.8235 9.55216C15.5671 9.68037 15.3106 9.79789 15.0542 9.89405C13.3981 10.5244 11.5284 10.5672 9.84026 9.96884H9.82958C9.84026 9.97953 9.86163 9.97953 9.87232 9.99021C9.85095 9.97953 9.82958 9.96884 9.81889 9.96884C9.81889 9.96884 9.82958 9.96885 9.82958 9.97953C9.80821 9.96885 9.77616 9.95816 9.7441 9.94747C9.58384 9.87268 9.41289 9.80858 9.25263 9.74448L9.23126 9.73379H9.24194H9.25263C8.97483 9.63763 8.69704 9.54147 8.39788 9.46668C8.34446 9.456 8.29104 9.44532 8.22693 9.42395C8.13077 9.40258 8.0453 9.38121 7.94914 9.35984C7.81024 9.32778 7.67135 9.30642 7.52176 9.27436C7.37218 9.25299 7.23329 9.23163 7.08371 9.21026C7.07302 9.21026 7.05165 9.21026 7.04097 9.21026C6.85934 9.18889 6.66702 9.16752 6.48539 9.15684C6.42128 9.15684 6.35717 9.14615 6.30375 9.14615C6.2717 9.14615 6.25033 9.14615 6.21828 9.14615C6.04733 9.14615 5.87638 9.13547 5.70543 9.14615C5.70543 9.14615 5.70543 9.14615 5.69475 9.14615C5.49174 9.14615 5.28874 9.16752 5.08574 9.17821C3.94252 9.27437 2.85272 9.58421 1.8377 10.0543C1.18596 10.3642 0.566269 10.7488 0 11.1869V11.1975C0.032053 11.2723 0.0641059 11.3364 0.0961589 11.4112C0.128212 11.486 0.170949 11.5501 0.203002 11.6249C0.213686 11.657 0.235055 11.689 0.24574 11.7104L0.256424 11.7211C0.299161 11.8066 0.352583 11.8813 0.39532 11.9668C0.480795 12.1057 0.566269 12.2446 0.662428 12.3835C0.673113 12.4049 0.683797 12.4156 0.694481 12.4369C0.79064 12.5651 0.886799 12.704 0.982958 12.8322C1.00433 12.8536 1.0257 12.8857 1.04706 12.907C1.05775 12.9177 1.05775 12.9177 1.06843 12.9284C1.0898 12.9605 1.11117 12.9925 1.14322 13.0139C2.22234 14.3174 3.72883 15.2896 5.50243 15.6956C7.23329 16.091 8.96415 15.888 10.4813 15.2362C9.5411 15.3644 8.56883 15.3324 7.59656 15.108C5.59859 14.6486 3.9532 13.484 2.85272 11.9348C4.1562 11.3471 5.64132 11.1228 7.1585 11.3792C7.73545 11.4753 8.29104 11.6356 8.81457 11.86V11.8493C8.90004 11.8813 8.98552 11.9134 9.07099 11.9454H9.08168C9.16715 11.9775 9.25263 12.0095 9.3381 12.0309H9.34878C9.70137 12.1484 10.0646 12.2446 10.4279 12.3194C10.4386 12.3194 10.4493 12.3194 10.46 12.3301C10.5347 12.3408 10.6202 12.3621 10.695 12.3728C10.7057 12.3728 10.7271 12.3835 10.7377 12.3835C10.8125 12.3942 10.8873 12.4049 10.9621 12.4156C10.9835 12.4156 10.9942 12.4156 11.0155 12.4262C11.0903 12.4369 11.1758 12.4476 11.2506 12.4583C11.2613 12.4583 11.272 12.4583 11.2826 12.4583C11.4643 12.4797 11.6459 12.4903 11.8275 12.501C11.8489 12.501 11.8596 12.501 11.881 12.501C11.9558 12.501 12.0199 12.5117 12.0947 12.5117C12.1267 12.5117 12.1481 12.5117 12.1801 12.5117C12.2442 12.5117 12.2977 12.5117 12.3618 12.5117C12.3938 12.5117 12.4259 12.5117 12.4579 12.5117C12.5113 12.5117 12.5755 12.5117 12.6289 12.5117C12.6609 12.5117 12.693 12.5117 12.725 12.5117C12.7891 12.5117 12.8426 12.5117 12.9067 12.501C12.9387 12.501 12.9601 12.501 12.9921 12.501C13.0776 12.501 13.1631 12.4903 13.2486 12.4797C13.8576 12.4262 14.4666 12.3087 15.0649 12.1484C15.2145 12.1057 15.3641 12.063 15.503 12.0096C15.6525 11.9561 15.7914 11.9027 15.941 11.8493C16.0585 11.7852 16.1761 11.7318 16.2936 11.6677C16.3043 11.6677 16.315 11.657 16.3256 11.657C16.3898 11.6249 16.4539 11.6035 16.5287 11.5715C16.5928 11.5394 16.6675 11.5181 16.7317 11.4967C17.3513 11.2723 18.0245 11.1441 18.7189 11.1441C21.967 11.1441 24.5953 13.7725 24.5953 17.0205C24.5953 18.4736 24.0611 19.7984 23.1957 20.8348C21.7319 22.758 19.4241 23.9974 16.8171 23.9974C15.8128 23.9974 14.8619 23.8157 13.9751 23.4738C15.3 24.4568 16.9453 25.0337 18.7189 25.0337C23.1422 25.0337 26.7322 21.4438 26.7322 17.0205C26.7215 12.6186 23.1422 9.02863 18.7083 9.02863Z" fill="black"/>
<path d="M11.9879 5.62035C10.7699 2.74627 7.92784 0.726929 4.60501 0.726929C4.53022 0.726929 4.44475 0.726933 4.36996 0.737617C4.31653 1.10088 4.29517 1.46415 4.29517 1.84878C4.29517 6.27209 7.8851 9.86203 12.3084 9.86203C12.3832 9.86203 12.4687 9.86203 12.5435 9.85135C13.6653 9.81929 14.7231 9.55218 15.6847 9.11413C14.1034 8.37691 12.8106 7.14821 11.9879 5.62035Z" fill="black"/>
<path d="M17.2338 15.6423C17.2338 16.5291 17.9496 17.2449 18.8364 17.2449C19.0501 17.2449 19.2424 17.2022 19.4241 17.1274C19.7339 16.9992 20.0758 16.9458 20.4284 16.9458C20.7916 16.9458 21.1442 17.0205 21.4648 17.1488C21.4861 16.9992 21.4968 16.8603 21.4968 16.7C21.4968 15.2256 20.3002 14.0289 18.8257 14.0289C18.815 14.0289 18.8044 14.0289 18.7937 14.0289C17.9282 14.061 17.2338 14.7662 17.2338 15.6423Z" fill="black"/>
<path d="M28.2602 5.89824C28.0465 5.68455 27.7153 5.68455 27.5016 5.89824L21.9565 9.3386C21.8283 9.4027 21.7107 9.47749 21.6039 9.56296C22.9287 10.0758 24.072 10.9199 24.9481 11.999L28.2602 6.65683C28.4632 6.44314 28.4632 6.10124 28.2602 5.89824Z" fill="#F47820"/>
<path d="M33.3244 23.5059V31.3482C33.3244 33.9766 34.2646 35.1946 35.6856 35.1946C37.2028 35.1946 38.1109 33.9766 38.1109 31.3482V23.5059H40.2157V31.188C40.2157 35.3335 38.3887 37.1712 35.6215 37.1712C32.9504 37.1712 31.2302 35.4403 31.2302 31.2093V23.5166H33.3244V23.5059Z" fill="black"/>
<path d="M48.0581 36.9468V29.1045C48.0581 26.4762 47.1179 25.2582 45.6969 25.2582C44.1797 25.2582 43.2716 26.4762 43.2716 29.1045V36.9468H41.1667V29.2648C41.1667 25.1193 42.9938 23.2816 45.761 23.2816C48.4321 23.2816 50.1523 25.0124 50.1523 29.2434V36.9361H48.0581V36.9468Z" fill="black"/>
<path d="M91.4472 36.9468V29.1045C91.4472 26.4762 90.507 25.2582 89.0859 25.2582C87.5688 25.2582 86.6606 26.4762 86.6606 29.1045V36.9468H84.5558V29.2648C84.5558 25.1193 86.3828 23.2816 89.15 23.2816C91.8211 23.2816 93.5413 25.0124 93.5413 29.2434V36.9361H91.4472V36.9468Z" fill="black"/>
<path d="M53.4857 23.5059V36.9468H51.3809V23.5059H53.4857Z" fill="black"/>
<path d="M63.5076 36.5514C63.0162 36.8506 61.9157 37.1497 60.5374 37.1497C56.8834 37.1497 54.661 34.4787 54.661 30.3866C54.661 25.9633 57.2894 23.2922 60.8152 23.2922C62.2041 23.2922 63.1871 23.6341 63.6145 23.8905L63.155 25.8457C62.6101 25.5679 61.8516 25.3222 60.9007 25.3222C58.5608 25.3222 56.862 27.0424 56.862 30.269C56.862 33.2179 58.3471 35.1197 60.8793 35.1197C61.734 35.1197 62.6208 34.9167 63.1657 34.6176L63.5076 36.5514Z" fill="black"/>
<path d="M74.5444 30.0874C74.5444 34.5962 72.2045 37.1711 69.0206 37.1711C65.7726 37.1711 63.7212 34.2757 63.7212 30.3332C63.7212 26.209 65.9435 23.2922 69.1916 23.2922C72.5678 23.2815 74.5444 26.2624 74.5444 30.0874ZM65.9435 30.2904C65.9435 33.0256 67.1188 35.1945 69.1381 35.1945C71.1682 35.1945 72.3221 33.0043 72.3221 30.1943C72.3221 27.6621 71.243 25.2688 69.1381 25.2688C67.0547 25.2581 65.9435 27.5125 65.9435 30.2904Z" fill="black"/>
<path d="M81.564 30.3225C81.6708 30.2584 81.767 30.1836 81.8632 30.1088C81.8738 30.0981 81.8845 30.0874 81.8952 30.0768C81.9273 30.0447 81.97 30.0126 82.0021 29.9913C82.0234 29.9699 82.0448 29.9592 82.0662 29.9379C82.0982 29.9058 82.1303 29.8737 82.1623 29.8417C82.1837 29.8203 82.2051 29.799 82.2264 29.7669C82.2585 29.7349 82.2799 29.7028 82.3119 29.6707C82.3333 29.6387 82.3546 29.6173 82.3867 29.5853C82.4081 29.5532 82.4401 29.5212 82.4615 29.4891C82.4829 29.4571 82.5042 29.425 82.5363 29.393C82.5576 29.3609 82.579 29.3289 82.6004 29.2968C82.6218 29.2541 82.6538 29.222 82.6752 29.1793C82.6965 29.1472 82.7072 29.1258 82.7286 29.0938C82.7713 29.0297 82.8034 28.9549 82.8461 28.8801C82.8568 28.8587 82.8675 28.8267 82.8782 28.7946C82.8995 28.7412 82.9209 28.6985 82.9423 28.645C82.953 28.613 82.9637 28.5809 82.9743 28.5489C82.9957 28.4955 83.0064 28.4527 83.0278 28.3993C83.0384 28.3673 83.0491 28.3245 83.0598 28.2925C83.0705 28.239 83.0919 28.1856 83.1025 28.1322C83.1132 28.1002 83.1239 28.0574 83.1239 28.0254C83.1346 27.9719 83.1453 27.9185 83.156 27.8544C83.1666 27.8224 83.1666 27.7796 83.1773 27.7476C83.188 27.6835 83.188 27.6194 83.1987 27.5553C83.1987 27.5232 83.2094 27.4911 83.2094 27.4591C83.2201 27.3629 83.2201 27.2668 83.2201 27.1599C83.2201 26.0274 82.8568 25.0872 82.2264 24.4675C81.4572 23.7089 80.3246 23.3884 78.6685 23.3884C77.4505 23.3884 76.2753 23.5059 75.4846 23.6662V36.9254H77.5681V31.4016H78.6258C78.754 31.4016 78.8822 31.4123 78.9891 31.4337C78.9891 31.4337 80.0896 31.5619 80.4635 32.1709C81.0405 32.7692 81.3824 33.8483 81.3824 35.4296V36.9147H83.4872V35.5685C83.5086 32.8654 82.7927 31.1772 81.564 30.3225ZM78.8395 29.628H77.5894V25.3756C77.7924 25.3115 78.2198 25.2581 78.8929 25.2581C80.2605 25.2581 81.1473 25.9312 81.1473 27.4164C81.1473 28.7519 80.2605 29.628 78.8395 29.628Z" fill="black"/>
</svg>
