<svg width="90" height="33" viewBox="0 0 90 33" fill="none" xmlns="http://www.w3.org/2000/svg">
<path d="M26.2948 21.3115V32.8224H24.1615C23.7319 32.8224 23.4504 32.63 23.3171 32.2452L23.1171 31.5792C22.8949 31.7938 22.6652 31.9899 22.4282 32.1675C22.1912 32.3377 21.9356 32.4857 21.6616 32.6115C21.3949 32.7299 21.1023 32.8224 20.7838 32.889C20.4727 32.963 20.132 33 19.7616 33C19.132 33 18.5727 32.8927 18.0839 32.6781C17.6024 32.4561 17.195 32.149 16.8617 31.7568C16.5283 31.3646 16.2765 30.9021 16.1061 30.3692C15.9358 29.8364 15.8506 29.2518 15.8506 28.6154V21.3115H19.2949V28.6154C19.2949 29.1852 19.4246 29.6255 19.6838 29.9363C19.9431 30.2471 20.3245 30.4025 20.8282 30.4025C21.206 30.4025 21.5578 30.3248 21.8838 30.1694C22.2171 30.0066 22.5393 29.7883 22.8504 29.5145V21.3115H26.2948Z" fill="white"/>
<path d="M31.8127 22.5547C32.0349 22.3475 32.2645 22.1551 32.5016 21.9775C32.7386 21.7999 32.9904 21.6519 33.2571 21.5335C33.5312 21.4077 33.8237 21.3115 34.1348 21.2449C34.4534 21.1709 34.7978 21.1339 35.1681 21.1339C35.7978 21.1339 36.3533 21.2449 36.8348 21.4669C37.3237 21.6815 37.7348 21.9849 38.0681 22.3771C38.4014 22.7619 38.6532 23.2245 38.8236 23.7647C38.994 24.2975 39.0792 24.8784 39.0792 25.5074V32.8224H35.6348V25.5074C35.6348 24.945 35.5052 24.5084 35.2459 24.1976C34.9867 23.8794 34.6052 23.7203 34.1015 23.7203C33.7237 23.7203 33.3682 23.8017 33.0349 23.9645C32.709 24.1199 32.3904 24.3345 32.0793 24.6083V32.8224H28.635V21.3115H30.7683C31.1979 21.3115 31.4794 21.5039 31.6127 21.8887L31.8127 22.5547Z" fill="white"/>
<path d="M44.8304 21.3115V32.8224H41.386V21.3115H44.8304ZM45.1859 18.1591C45.1859 18.4329 45.1304 18.6919 45.0193 18.9361C44.9082 19.1729 44.7563 19.3838 44.5637 19.5688C44.3712 19.7464 44.1452 19.8907 43.886 20.0017C43.6341 20.1053 43.3638 20.1571 43.0749 20.1571C42.7934 20.1571 42.5305 20.1053 42.286 20.0017C42.0416 19.8907 41.8231 19.7464 41.6305 19.5688C41.4453 19.3838 41.2972 19.1729 41.1861 18.9361C41.0823 18.6919 41.0305 18.4329 41.0305 18.1591C41.0305 17.8779 41.0823 17.6152 41.1861 17.371C41.2972 17.1268 41.4453 16.9122 41.6305 16.7272C41.8231 16.5422 42.0416 16.3979 42.286 16.2943C42.5305 16.1907 42.7934 16.1389 43.0749 16.1389C43.3638 16.1389 43.6341 16.1907 43.886 16.2943C44.1452 16.3979 44.3712 16.5422 44.5637 16.7272C44.7563 16.9122 44.9082 17.1268 45.0193 17.371C45.1304 17.6152 45.1859 17.8779 45.1859 18.1591Z" fill="white"/>
<path d="M55.6991 24.0422C55.5953 24.168 55.4953 24.2679 55.3991 24.3419C55.3028 24.4159 55.1657 24.4529 54.988 24.4529C54.8176 24.4529 54.662 24.4122 54.5213 24.3308C54.388 24.2494 54.2361 24.1606 54.0658 24.0644C53.8954 23.9608 53.6954 23.8683 53.4658 23.7869C53.2361 23.7055 52.951 23.6648 52.6102 23.6648C52.188 23.6648 51.8214 23.7425 51.5103 23.8979C51.2066 24.0533 50.9547 24.2753 50.7547 24.5639C50.5547 24.8525 50.4066 25.2077 50.3103 25.6295C50.214 26.0439 50.1659 26.5138 50.1659 27.0392C50.1659 28.1418 50.377 28.9891 50.7992 29.5811C51.2288 30.1731 51.8177 30.4691 52.5658 30.4691C52.9658 30.4691 53.2806 30.421 53.5102 30.3248C53.7472 30.2212 53.9472 30.1102 54.1102 29.9918C54.2732 29.866 54.4213 29.7513 54.5546 29.6477C54.6954 29.5441 54.8694 29.4923 55.0768 29.4923C55.3509 29.4923 55.5583 29.5922 55.6991 29.792L56.699 31.0242C56.3435 31.4312 55.9694 31.7642 55.5768 32.0232C55.1842 32.2748 54.7806 32.4746 54.3658 32.6226C53.9584 32.7632 53.5473 32.8594 53.1324 32.9112C52.7176 32.9704 52.314 33 51.9214 33C51.2177 33 50.5436 32.8668 49.8992 32.6004C49.2622 32.334 48.6992 31.9492 48.2104 31.446C47.7289 30.9354 47.3437 30.31 47.0548 29.57C46.7734 28.83 46.6326 27.9864 46.6326 27.0392C46.6326 26.2104 46.7548 25.4371 46.9993 24.7193C47.2511 23.9941 47.6178 23.3688 48.0992 22.8433C48.5881 22.3105 49.1881 21.8924 49.8992 21.589C50.6177 21.2856 51.4473 21.1339 52.388 21.1339C53.2917 21.1339 54.0843 21.2782 54.7657 21.5668C55.4472 21.8554 56.062 22.2772 56.6101 22.8322L55.6991 24.0422Z" fill="white"/>
<path d="M63.1553 21.1339C64.0293 21.1339 64.8256 21.2708 65.5441 21.5446C66.2626 21.8184 66.8774 22.2106 67.3885 22.7212C67.907 23.2319 68.307 23.8535 68.5885 24.5861C68.8774 25.3113 69.0218 26.129 69.0218 27.0392C69.0218 27.9568 68.8774 28.7856 68.5885 29.5256C68.307 30.2582 67.907 30.8836 67.3885 31.4016C66.8774 31.9122 66.2626 32.3081 65.5441 32.5893C64.8256 32.8631 64.0293 33 63.1553 33C62.2738 33 61.4701 32.8631 60.7442 32.5893C60.0257 32.3081 59.4035 31.9122 58.8776 31.4016C58.3591 30.8836 57.9554 30.2582 57.6665 29.5256C57.3851 28.7856 57.2443 27.9568 57.2443 27.0392C57.2443 26.129 57.3851 25.3113 57.6665 24.5861C57.9554 23.8535 58.3591 23.2319 58.8776 22.7212C59.4035 22.2106 60.0257 21.8184 60.7442 21.5446C61.4701 21.2708 62.2738 21.1339 63.1553 21.1339ZM63.1553 30.4469C63.9479 30.4469 64.5293 30.1694 64.8997 29.6144C65.2775 29.052 65.4663 28.201 65.4663 27.0614C65.4663 25.9218 65.2775 25.0745 64.8997 24.5195C64.5293 23.9645 63.9479 23.687 63.1553 23.687C62.3405 23.687 61.7442 23.9645 61.3664 24.5195C60.9887 25.0745 60.7998 25.9218 60.7998 27.0614C60.7998 28.201 60.9887 29.052 61.3664 29.6144C61.7442 30.1694 62.3405 30.4469 63.1553 30.4469Z" fill="white"/>
<path d="M73.9784 23.0875C74.334 22.4659 74.7414 21.9775 75.2006 21.6223C75.6673 21.2671 76.2006 21.0895 76.8006 21.0895C77.3191 21.0895 77.7413 21.2116 78.0672 21.4558L77.845 23.9867C77.808 24.1495 77.745 24.2605 77.6561 24.3197C77.5746 24.3789 77.4598 24.4085 77.3117 24.4085C77.2524 24.4085 77.1747 24.4048 77.0784 24.3974C76.9821 24.39 76.8821 24.3826 76.7784 24.3752C76.6747 24.3604 76.5673 24.3493 76.4562 24.3419C76.3525 24.3271 76.2562 24.3197 76.1673 24.3197C75.6636 24.3197 75.2599 24.4529 74.9562 24.7193C74.6599 24.9857 74.4081 25.3557 74.2007 25.8293V32.8224H70.7563V21.3115H72.8007C72.9711 21.3115 73.1118 21.3263 73.2229 21.3559C73.3414 21.3855 73.4377 21.4336 73.5118 21.5002C73.5933 21.5594 73.6525 21.6408 73.6896 21.7444C73.734 21.848 73.771 21.9738 73.8007 22.1218L73.9784 23.0875Z" fill="white"/>
<path d="M82.419 22.5547C82.6412 22.3475 82.8709 22.1551 83.1079 21.9775C83.3449 21.7999 83.5968 21.6519 83.8634 21.5335C84.1375 21.4077 84.4301 21.3115 84.7412 21.2449C85.0597 21.1709 85.4041 21.1339 85.7745 21.1339C86.4041 21.1339 86.9597 21.2449 87.4411 21.4669C87.93 21.6815 88.3411 21.9849 88.6744 22.3771C89.0078 22.7619 89.2596 23.2245 89.43 23.7647C89.6003 24.2975 89.6855 24.8784 89.6855 25.5074V32.8224H86.2412V25.5074C86.2412 24.945 86.1115 24.5084 85.8523 24.1976C85.593 23.8794 85.2115 23.7203 84.7079 23.7203C84.3301 23.7203 83.9745 23.8017 83.6412 23.9645C83.3153 24.1199 82.9968 24.3345 82.6857 24.6083V32.8224H79.2413V21.3115H81.3746C81.8042 21.3115 82.0857 21.5039 82.219 21.8887L82.419 22.5547Z" fill="white"/>
<path fill-rule="evenodd" clip-rule="evenodd" d="M4.33916 0L0 8.87011V25.9199V32.7139V32.9968H6.95225V32.9849L6.95903 32.9921L13.3868 29.2283L13.895 26.6235L10.8648 21.8829L6.0186 20.7783L8.90824 11.9244L14.2255 15.3765L10.4215 5.81721L5.35864 9.52871L4.33916 0ZM11.1063 24.9067L9.78393 22.8993L7.77662 24.2217L9.09898 26.229L11.1063 24.9067Z" fill="white"/>
<path d="M2.22461 19.9553L5.06305 20.593L5.41306 11.6222L2.22461 19.9553Z" fill="#F47820"/>
</svg>
