<svg width="91" height="33" viewBox="0 0 91 33" fill="none" xmlns="http://www.w3.org/2000/svg">
<path d="M45.2451 15.8508C45.2451 14.6046 46.4712 13.5944 47.9836 13.5944H87.8557C89.3681 13.5944 90.5942 14.6046 90.5942 15.8508V30.7435C90.5942 31.9898 89.3681 33 87.8557 33H47.9836C46.4712 33 45.2451 31.9898 45.2451 30.7435V15.8508Z" fill="black"/>
<path d="M25.6375 18.4302V29.1915H23.6451C23.2438 29.1915 22.9809 29.0117 22.8564 28.6519L22.6696 28.0293C22.4621 28.2299 22.2476 28.4132 22.0262 28.5793C21.8048 28.7384 21.5661 28.8767 21.3102 28.9944C21.0611 29.1051 20.7878 29.1915 20.4904 29.2538C20.1998 29.323 19.8816 29.3576 19.5356 29.3576C18.9476 29.3576 18.4253 29.2573 17.9687 29.0566C17.519 28.8491 17.1385 28.562 16.8272 28.1953C16.5158 27.8286 16.2806 27.3962 16.1215 26.8981C15.9624 26.4 15.8828 25.8535 15.8828 25.2585V18.4302H19.0998V25.2585C19.0998 25.7912 19.2209 26.2029 19.463 26.4934C19.7051 26.784 20.0614 26.9293 20.5319 26.9293C20.8847 26.9293 21.2133 26.8566 21.5177 26.7113C21.829 26.5591 22.13 26.3551 22.4205 26.0991V18.4302H25.6375Z" fill="black"/>
<path d="M30.7912 19.5925C30.9987 19.3988 31.2132 19.2189 31.4346 19.0529C31.656 18.8868 31.8912 18.7484 32.1402 18.6378C32.3962 18.5201 32.6695 18.4302 32.9601 18.3679C33.2575 18.2988 33.5792 18.2642 33.9251 18.2642C34.5132 18.2642 35.0321 18.3679 35.4818 18.5755C35.9384 18.7761 36.3223 19.0598 36.6336 19.4264C36.945 19.7862 37.1802 20.2186 37.3393 20.7236C37.4984 21.2217 37.578 21.7648 37.578 22.3528V29.1915H34.361V22.3528C34.361 21.8271 34.2399 21.4189 33.9978 21.1283C33.7557 20.8308 33.3994 20.6821 32.9289 20.6821C32.5761 20.6821 32.244 20.7582 31.9327 20.9104C31.6283 21.0557 31.3308 21.2563 31.0402 21.5123V29.1915H27.8233V18.4302H29.8157C30.217 18.4302 30.4799 18.6101 30.6044 18.9698L30.7912 19.5925Z" fill="black"/>
<path d="M42.9496 18.4302V29.1915H39.7326V18.4302H42.9496ZM43.2816 15.483C43.2816 15.739 43.2297 15.9812 43.126 16.2095C43.0222 16.4308 42.8804 16.628 42.7005 16.801C42.5206 16.967 42.3096 17.1019 42.0675 17.2057C41.8323 17.3025 41.5797 17.351 41.3099 17.351C41.047 17.351 40.8014 17.3025 40.5731 17.2057C40.3448 17.1019 40.1408 16.967 39.9609 16.801C39.7879 16.628 39.6496 16.4308 39.5458 16.2095C39.4489 15.9812 39.4005 15.739 39.4005 15.483C39.4005 15.2201 39.4489 14.9745 39.5458 14.7462C39.6496 14.5179 39.7879 14.3173 39.9609 14.1444C40.1408 13.9714 40.3448 13.8365 40.5731 13.7396C40.8014 13.6428 41.047 13.5944 41.3099 13.5944C41.5797 13.5944 41.8323 13.6428 42.0675 13.7396C42.3096 13.8365 42.5206 13.9714 42.7005 14.1444C42.8804 14.3173 43.0222 14.5179 43.126 14.7462C43.2297 14.9745 43.2816 15.2201 43.2816 15.483Z" fill="black"/>
<path fill-rule="evenodd" clip-rule="evenodd" d="M4.4209 15.7866C7.13702 14.3954 12.4593 11.0672 14.296 5.28186C12.2204 5.7961 8.00005 7.6826 5.11355 11.4609C5.02838 13.2319 4.76815 14.7454 4.4209 15.7866Z" fill="black"/>
<path d="M9.57764 13.1687L6.88736 16.6299L9.38505 17.1677L9.57764 13.1687Z" fill="black"/>
<path fill-rule="evenodd" clip-rule="evenodd" d="M0 10.1742V29.1498H4.13426C9.58066 28.664 14.6521 25.5227 14.0144 20.1958C13.8849 19.1139 12.9185 17.3524 10.3004 16.5587C9.61211 16.3501 8.81783 16.3192 7.92763 16.2846L7.91595 16.2842C7.2123 16.2568 6.7941 16.2804 6.23442 16.312H6.23441C6.08227 16.3205 5.91968 16.3297 5.73805 16.3386C4.88309 16.3805 3.55201 16.4985 3.55201 16.4985C4.75669 13.9348 5.29766 6.1984 2.42436 0C1.79429 0.752964 0.2367 3.82508 0 8.02364V9.45518V10.1742ZM10.065 20.7801C10.8043 20.6916 11.332 20.0204 11.2435 19.281C11.155 18.5416 10.4838 18.014 9.74443 18.1025C9.00505 18.191 8.47741 18.8622 8.56592 19.6016C8.65443 20.3409 9.32557 20.8686 10.065 20.7801Z" fill="black"/>
<path d="M55.8927 21.0245C55.7959 21.1421 55.7025 21.2355 55.6125 21.3047C55.5226 21.3739 55.3946 21.4085 55.2286 21.4085C55.0695 21.4085 54.9242 21.3704 54.7927 21.2943C54.6682 21.2182 54.5264 21.1352 54.3673 21.0453C54.2081 20.9484 54.0213 20.862 53.8069 20.7859C53.5924 20.7098 53.3261 20.6717 53.0078 20.6717C52.6135 20.6717 52.271 20.7443 51.9805 20.8896C51.6968 21.0349 51.4616 21.2425 51.2748 21.5123C51.088 21.7821 50.9496 22.1142 50.8597 22.5085C50.7698 22.8959 50.7248 23.3352 50.7248 23.8264C50.7248 24.8572 50.922 25.6494 51.3163 26.2028C51.7176 26.7563 52.2676 27.033 52.9663 27.033C53.3399 27.033 53.6339 26.9881 53.8484 26.8981C54.0698 26.8013 54.2566 26.6975 54.4088 26.5868C54.561 26.4692 54.6993 26.362 54.8239 26.2651C54.9553 26.1682 55.1179 26.1198 55.3116 26.1198C55.5676 26.1198 55.7613 26.2132 55.8927 26.4L56.8267 27.5519C56.4946 27.9324 56.1452 28.2437 55.7786 28.4859C55.4119 28.7211 55.0349 28.9079 54.6474 29.0462C54.2669 29.1777 53.883 29.2676 53.4956 29.316C53.1081 29.3714 52.7311 29.3991 52.3644 29.3991C51.7072 29.3991 51.0776 29.2745 50.4757 29.0255C49.8808 28.7764 49.355 28.4167 48.8984 27.9462C48.4487 27.4689 48.089 26.8843 47.8191 26.1925C47.5563 25.5006 47.4248 24.712 47.4248 23.8264C47.4248 23.0516 47.539 22.3286 47.7673 21.6576C48.0025 20.9796 48.3449 20.395 48.7946 19.9038C49.2512 19.4057 49.8116 19.0148 50.4757 18.7311C51.1468 18.4475 51.9217 18.3057 52.8003 18.3057C53.6443 18.3057 54.3846 18.4406 55.021 18.7104C55.6575 18.9802 56.2317 19.3745 56.7437 19.8934L55.8927 21.0245Z" fill="#F47820"/>
<path d="M62.8567 18.3057C63.6731 18.3057 64.4168 18.4337 65.0879 18.6896C65.7589 18.9456 66.3332 19.3123 66.8105 19.7896C67.2948 20.267 67.6684 20.8481 67.9313 21.533C68.2011 22.211 68.336 22.9755 68.336 23.8264C68.336 24.6843 68.2011 25.4591 67.9313 26.151C67.6684 26.8359 67.2948 27.4204 66.8105 27.9047C66.3332 28.3821 65.7589 28.7522 65.0879 29.0151C64.4168 29.2711 63.6731 29.3991 62.8567 29.3991C62.0335 29.3991 61.2828 29.2711 60.6049 29.0151C59.9338 28.7522 59.3527 28.3821 58.8615 27.9047C58.3772 27.4204 58.0001 26.8359 57.7303 26.151C57.4674 25.4591 57.336 24.6843 57.336 23.8264C57.336 22.9755 57.4674 22.211 57.7303 21.533C58.0001 20.8481 58.3772 20.267 58.8615 19.7896C59.3527 19.3123 59.9338 18.9456 60.6049 18.6896C61.2828 18.4337 62.0335 18.3057 62.8567 18.3057ZM62.8567 27.0123C63.597 27.0123 64.1401 26.7528 64.486 26.234C64.8388 25.7082 65.0152 24.9126 65.0152 23.8472C65.0152 22.7818 64.8388 21.9896 64.486 21.4708C64.1401 20.9519 63.597 20.6925 62.8567 20.6925C62.0957 20.6925 61.5388 20.9519 61.186 21.4708C60.8332 21.9896 60.6567 22.7818 60.6567 23.8472C60.6567 24.9126 60.8332 25.7082 61.186 26.234C61.5388 26.7528 62.0957 27.0123 62.8567 27.0123Z" fill="#F47820"/>
<path d="M72.9654 20.1321C73.2975 19.551 73.678 19.0943 74.1069 18.7623C74.5428 18.4302 75.0409 18.2642 75.6013 18.2642C76.0856 18.2642 76.4799 18.3783 76.7843 18.6066L76.5767 20.9727C76.5422 21.1249 76.4834 21.2286 76.4003 21.284C76.3242 21.3393 76.217 21.367 76.0786 21.367C76.0233 21.367 75.9506 21.3635 75.8607 21.3566C75.7708 21.3497 75.6774 21.3428 75.5805 21.3359C75.4837 21.322 75.3834 21.3116 75.2796 21.3047C75.1827 21.2909 75.0928 21.284 75.0098 21.284C74.5393 21.284 74.1623 21.4085 73.8786 21.6576C73.6019 21.9066 73.3667 22.2525 73.173 22.6953V29.233H69.956V18.4717H71.8654C72.0245 18.4717 72.156 18.4855 72.2598 18.5132C72.3705 18.5409 72.4604 18.5859 72.5296 18.6481C72.6057 18.7035 72.661 18.7796 72.6956 18.8764C72.7371 18.9733 72.7717 19.0909 72.7994 19.2293L72.9654 20.1321Z" fill="#F47820"/>
<path d="M80.8488 19.634C81.0564 19.4403 81.2708 19.2604 81.4922 19.0943C81.7136 18.9283 81.9488 18.7899 82.1979 18.6793C82.4538 18.5616 82.7271 18.4717 83.0177 18.4094C83.3152 18.3403 83.6369 18.3057 83.9828 18.3057C84.5708 18.3057 85.0897 18.4094 85.5394 18.617C85.996 18.8176 86.3799 19.1013 86.6913 19.4679C87.0026 19.8277 87.2378 20.2601 87.3969 20.7651C87.556 21.2632 87.6356 21.8063 87.6356 22.3943V29.233H84.4186V22.3943C84.4186 21.8686 84.2976 21.4604 84.0554 21.1698C83.8133 20.8723 83.457 20.7236 82.9866 20.7236C82.6337 20.7236 82.3016 20.7997 81.9903 20.9519C81.6859 21.0972 81.3884 21.2978 81.0979 21.5538V29.233H77.8809V18.4717H79.8733C80.2746 18.4717 80.5375 18.6516 80.662 19.0113L80.8488 19.634Z" fill="#F47820"/>
</svg>
