<svg width="90" height="33" viewBox="0 0 90 33" fill="none" xmlns="http://www.w3.org/2000/svg">
<path d="M26.2954 21.3115V32.8224H24.1621C23.7325 32.8224 23.451 32.63 23.3177 32.2452L23.1177 31.5792C22.8955 31.7938 22.6659 31.9899 22.4288 32.1675C22.1918 32.3377 21.9362 32.4857 21.6622 32.6115C21.3955 32.7299 21.1029 32.8224 20.7844 32.889C20.4733 32.963 20.1326 33 19.7622 33C19.1326 33 18.5734 32.8927 18.0845 32.6781C17.603 32.4561 17.1956 32.149 16.8623 31.7568C16.529 31.3646 16.2771 30.9021 16.1067 30.3693C15.9364 29.8365 15.8512 29.2519 15.8512 28.6155V21.3115H19.2956V28.6155C19.2956 29.1853 19.4252 29.6256 19.6844 29.9364C19.9437 30.2472 20.3252 30.4026 20.8289 30.4026C21.2066 30.4026 21.5585 30.3249 21.8844 30.1695C22.2177 30.0067 22.5399 29.7884 22.851 29.5146V21.3115H26.2954Z" fill="#0C2A54"/>
<path d="M31.8133 22.5548C32.0355 22.3476 32.2652 22.1552 32.5022 21.9775C32.7392 21.7999 32.9911 21.6519 33.2577 21.5335C33.5318 21.4077 33.8244 21.3115 34.1355 21.2449C34.454 21.1709 34.7984 21.1339 35.1688 21.1339C35.7984 21.1339 36.354 21.2449 36.8354 21.4669C37.3243 21.6815 37.7354 21.9849 38.0687 22.3772C38.4021 22.762 38.6539 23.2245 38.8243 23.7647C38.9946 24.2975 39.0798 24.8784 39.0798 25.5074V32.8224H35.6355V25.5074C35.6355 24.945 35.5058 24.5084 35.2466 24.1976C34.9873 23.8794 34.6058 23.7203 34.1022 23.7203C33.7244 23.7203 33.3688 23.8017 33.0355 23.9645C32.7096 24.1199 32.3911 24.3345 32.08 24.6083V32.8224H28.6356V21.3115H30.7689C31.1985 21.3115 31.48 21.5039 31.6133 21.8887L31.8133 22.5548Z" fill="#0C2A54"/>
<path d="M44.8311 21.3115V32.8224H41.3867V21.3115H44.8311ZM45.1866 18.1591C45.1866 18.4329 45.1311 18.6919 45.02 18.9361C44.9088 19.1729 44.757 19.3838 44.5644 19.5688C44.3718 19.7464 44.1459 19.8907 43.8866 20.0017C43.6348 20.1053 43.3644 20.1571 43.0756 20.1571C42.7941 20.1571 42.5311 20.1053 42.2867 20.0017C42.0422 19.8907 41.8237 19.7464 41.6311 19.5688C41.446 19.3838 41.2978 19.1729 41.1867 18.9361C41.083 18.6919 41.0312 18.4329 41.0312 18.1591C41.0312 17.8779 41.083 17.6152 41.1867 17.371C41.2978 17.1268 41.446 16.9122 41.6311 16.7272C41.8237 16.5422 42.0422 16.3979 42.2867 16.2943C42.5311 16.1907 42.7941 16.1389 43.0756 16.1389C43.3644 16.1389 43.6348 16.1907 43.8866 16.2943C44.1459 16.3979 44.3718 16.5422 44.5644 16.7272C44.757 16.9122 44.9088 17.1268 45.02 17.371C45.1311 17.6152 45.1866 17.8779 45.1866 18.1591Z" fill="#0C2A54"/>
<path d="M55.6997 24.0422C55.596 24.168 55.496 24.2679 55.3997 24.3419C55.3034 24.4159 55.1664 24.4529 54.9886 24.4529C54.8183 24.4529 54.6627 24.4122 54.522 24.3308C54.3887 24.2494 54.2368 24.1606 54.0664 24.0644C53.8961 23.9608 53.6961 23.8683 53.4665 23.7869C53.2368 23.7055 52.9517 23.6648 52.6109 23.6648C52.1887 23.6648 51.822 23.7425 51.5109 23.8979C51.2072 24.0533 50.9554 24.2753 50.7554 24.5639C50.5554 24.8525 50.4073 25.2077 50.311 25.6295C50.2147 26.0439 50.1665 26.5138 50.1665 27.0392C50.1665 28.1418 50.3776 28.9892 50.7999 29.5812C51.2295 30.1732 51.8183 30.4692 52.5665 30.4692C52.9665 30.4692 53.2813 30.4211 53.5109 30.3249C53.7479 30.2213 53.9479 30.1103 54.1109 29.9919C54.2738 29.8661 54.422 29.7514 54.5553 29.6478C54.6961 29.5442 54.8701 29.4924 55.0775 29.4924C55.3516 29.4924 55.559 29.5923 55.6997 29.7921L56.6997 31.0242C56.3442 31.4312 55.9701 31.7642 55.5775 32.0232C55.1849 32.2748 54.7812 32.4746 54.3664 32.6226C53.959 32.7632 53.5479 32.8594 53.1331 32.9112C52.7183 32.9704 52.3146 33 51.9221 33C51.2184 33 50.5443 32.8668 49.8999 32.6004C49.2628 32.334 48.6999 31.9492 48.211 31.446C47.7296 30.9354 47.3444 30.3101 47.0555 29.5701C46.774 28.8301 46.6333 27.9864 46.6333 27.0392C46.6333 26.2104 46.7555 25.4371 46.9999 24.7193C47.2518 23.9941 47.6184 23.3688 48.0999 22.8434C48.5888 22.3106 49.1888 21.8924 49.8999 21.589C50.6184 21.2856 51.448 21.1339 52.3887 21.1339C53.2924 21.1339 54.085 21.2782 54.7664 21.5668C55.4479 21.8554 56.0627 22.2773 56.6108 22.8323L55.6997 24.0422Z" fill="#0C2A54"/>
<path d="M63.156 21.1339C64.03 21.1339 64.8263 21.2708 65.5448 21.5446C66.2633 21.8184 66.8781 22.2107 67.3892 22.7213C67.9077 23.2319 68.3077 23.8535 68.5892 24.5861C68.8781 25.3113 69.0225 26.129 69.0225 27.0392C69.0225 27.9568 68.8781 28.7857 68.5892 29.5257C68.3077 30.2583 67.9077 30.8836 67.3892 31.4016C66.8781 31.9122 66.2633 32.3081 65.5448 32.5893C64.8263 32.8631 64.03 33 63.156 33C62.2745 33 61.4708 32.8631 60.7449 32.5893C60.0264 32.3081 59.4042 31.9122 58.8783 31.4016C58.3598 30.8836 57.9561 30.2583 57.6672 29.5257C57.3857 28.7857 57.245 27.9568 57.245 27.0392C57.245 26.129 57.3857 25.3113 57.6672 24.5861C57.9561 23.8535 58.3598 23.2319 58.8783 22.7213C59.4042 22.2107 60.0264 21.8184 60.7449 21.5446C61.4708 21.2708 62.2745 21.1339 63.156 21.1339ZM63.156 30.447C63.9486 30.447 64.53 30.1695 64.9004 29.6145C65.2782 29.0521 65.467 28.201 65.467 27.0614C65.467 25.9218 65.2782 25.0745 64.9004 24.5195C64.53 23.9645 63.9486 23.687 63.156 23.687C62.3412 23.687 61.7449 23.9645 61.3671 24.5195C60.9894 25.0745 60.8005 25.9218 60.8005 27.0614C60.8005 28.201 60.9894 29.0521 61.3671 29.6145C61.7449 30.1695 62.3412 30.447 63.156 30.447Z" fill="#0C2A54"/>
<path d="M73.9792 23.0876C74.3347 22.466 74.7421 21.9775 75.2014 21.6223C75.668 21.2671 76.2013 21.0895 76.8013 21.0895C77.3198 21.0895 77.742 21.2116 78.068 21.4558L77.8457 23.9867C77.8087 24.1495 77.7457 24.2605 77.6569 24.3197C77.5754 24.3789 77.4606 24.4085 77.3124 24.4085C77.2532 24.4085 77.1754 24.4048 77.0791 24.3974C76.9828 24.39 76.8828 24.3826 76.7791 24.3752C76.6754 24.3604 76.568 24.3493 76.4569 24.3419C76.3532 24.3271 76.2569 24.3197 76.168 24.3197C75.6643 24.3197 75.2606 24.4529 74.9569 24.7193C74.6606 24.9857 74.4088 25.3557 74.2014 25.8293V32.8224H70.757V21.3115H72.8014C72.9718 21.3115 73.1125 21.3263 73.2236 21.3559C73.3421 21.3855 73.4384 21.4336 73.5125 21.5002C73.594 21.5594 73.6532 21.6408 73.6903 21.7444C73.7347 21.848 73.7718 21.9738 73.8014 22.1219L73.9792 23.0876Z" fill="#0C2A54"/>
<path d="M82.4198 22.5548C82.642 22.3476 82.8716 22.1552 83.1086 21.9775C83.3457 21.7999 83.5975 21.6519 83.8642 21.5335C84.1382 21.4077 84.4308 21.3115 84.7419 21.2449C85.0604 21.1709 85.4049 21.1339 85.7752 21.1339C86.4049 21.1339 86.9604 21.2449 87.4419 21.4669C87.9307 21.6815 88.3419 21.9849 88.6752 22.3772C89.0085 22.762 89.2603 23.2245 89.4307 23.7647C89.6011 24.2975 89.6863 24.8784 89.6863 25.5074V32.8224H86.2419V25.5074C86.2419 24.945 86.1123 24.5084 85.853 24.1976C85.5938 23.8794 85.2123 23.7203 84.7086 23.7203C84.3308 23.7203 83.9753 23.8017 83.642 23.9645C83.316 24.1199 82.9975 24.3345 82.6864 24.6083V32.8224H79.2421V21.3115H81.3753C81.805 21.3115 82.0864 21.5039 82.2198 21.8887L82.4198 22.5548Z" fill="#0C2A54"/>
<path d="M55.6994 24.0396C55.5957 24.1654 55.4957 24.2653 55.3994 24.3393C55.3031 24.4133 55.1661 24.4503 54.9883 24.4503C54.8179 24.4503 54.6624 24.4096 54.5216 24.3282C54.3883 24.2468 54.2364 24.158 54.0661 24.0618C53.8957 23.9582 53.6957 23.8657 53.4661 23.7843C53.2365 23.7029 52.9513 23.6622 52.6106 23.6622C52.1884 23.6622 51.8217 23.7399 51.5106 23.8953C51.2069 24.0507 50.955 24.2727 50.7551 24.5613C50.5551 24.8499 50.4069 25.2051 50.3106 25.6269C50.2143 26.0413 50.1662 26.5112 50.1662 27.0366C50.1662 28.1392 50.3773 28.9865 50.7995 29.5785C51.2291 30.1705 51.818 30.4665 52.5661 30.4665C52.9661 30.4665 53.2809 30.4184 53.5105 30.3222C53.7476 30.2186 53.9476 30.1076 54.1105 29.9892C54.2735 29.8634 54.4216 29.7487 54.555 29.6451C54.6957 29.5415 54.8698 29.4897 55.0772 29.4897C55.3512 29.4897 55.5586 29.5896 55.6994 29.7894L56.6993 31.0216C56.3438 31.4286 55.9697 31.7616 55.5772 32.0206C55.1846 32.2722 54.7809 32.472 54.3661 32.62C53.9587 32.7606 53.5476 32.8568 53.1328 32.9086C52.718 32.9678 52.3143 32.9974 51.9217 32.9974C51.218 32.9974 50.5439 32.8642 49.8995 32.5978C49.2625 32.3314 48.6995 31.9466 48.2107 31.4434C47.7292 30.9328 47.344 30.3074 47.0551 29.5674C46.7737 28.8274 46.6329 27.9838 46.6329 27.0366C46.6329 26.2078 46.7552 25.4345 46.9996 24.7167C47.2514 23.9915 47.6181 23.3661 48.0996 22.8407C48.5884 22.3079 49.1884 21.8898 49.8995 21.5864C50.618 21.283 51.4476 21.1313 52.3883 21.1313C53.292 21.1313 54.0846 21.2756 54.7661 21.5642C55.4475 21.8528 56.0623 22.2746 56.6105 22.8296L55.6994 24.0396Z" fill="#0C2A54"/>
<path d="M63.1556 21.1313C64.0297 21.1313 64.8259 21.2682 65.5444 21.542C66.2629 21.8158 66.8777 22.208 67.3888 22.7186C67.9073 23.2292 68.3073 23.8509 68.5888 24.5835C68.8777 25.3087 69.0221 26.1264 69.0221 27.0366C69.0221 27.9542 68.8777 28.783 68.5888 29.523C68.3073 30.2556 67.9073 30.881 67.3888 31.399C66.8777 31.9096 66.2629 32.3055 65.5444 32.5867C64.8259 32.8605 64.0297 32.9974 63.1556 32.9974C62.2742 32.9974 61.4705 32.8605 60.7446 32.5867C60.0261 32.3055 59.4039 31.9096 58.8779 31.399C58.3594 30.881 57.9557 30.2556 57.6669 29.523C57.3854 28.783 57.2447 27.9542 57.2447 27.0366C57.2447 26.1264 57.3854 25.3087 57.6669 24.5835C57.9557 23.8509 58.3594 23.2292 58.8779 22.7186C59.4039 22.208 60.0261 21.8158 60.7446 21.542C61.4705 21.2682 62.2742 21.1313 63.1556 21.1313ZM63.1556 30.4443C63.9482 30.4443 64.5297 30.1668 64.9 29.6118C65.2778 29.0494 65.4667 28.1984 65.4667 27.0588C65.4667 25.9192 65.2778 25.0719 64.9 24.5169C64.5297 23.9619 63.9482 23.6844 63.1556 23.6844C62.3408 23.6844 61.7445 23.9619 61.3668 24.5169C60.989 25.0719 60.8001 25.9192 60.8001 27.0588C60.8001 28.1984 60.989 29.0494 61.3668 29.6118C61.7445 30.1668 62.3408 30.4443 63.1556 30.4443Z" fill="#0C2A54"/>
<path d="M73.9788 23.0849C74.3343 22.4633 74.7417 21.9749 75.201 21.6197C75.6676 21.2645 76.2009 21.0869 76.8009 21.0869C77.3194 21.0869 77.7417 21.209 78.0676 21.4532L77.8454 23.9841C77.8083 24.1469 77.7454 24.2579 77.6565 24.3171C77.575 24.3763 77.4602 24.4059 77.312 24.4059C77.2528 24.4059 77.175 24.4022 77.0787 24.3948C76.9824 24.3874 76.8824 24.38 76.7787 24.3726C76.675 24.3578 76.5676 24.3467 76.4565 24.3393C76.3528 24.3245 76.2565 24.3171 76.1676 24.3171C75.6639 24.3171 75.2602 24.4503 74.9565 24.7167C74.6602 24.9831 74.4084 25.3531 74.201 25.8267V32.8198H70.7566V21.3089H72.801C72.9714 21.3089 73.1121 21.3237 73.2232 21.3533C73.3418 21.3829 73.4381 21.431 73.5121 21.4976C73.5936 21.5568 73.6529 21.6382 73.6899 21.7418C73.7343 21.8454 73.7714 21.9712 73.801 22.1192L73.9788 23.0849Z" fill="#0C2A54"/>
<path d="M82.4194 22.5521C82.6416 22.3449 82.8712 22.1525 83.1082 21.9749C83.3453 21.7973 83.5971 21.6493 83.8638 21.5309C84.1379 21.4051 84.4304 21.3089 84.7415 21.2423C85.06 21.1683 85.4045 21.1313 85.7748 21.1313C86.4045 21.1313 86.96 21.2423 87.4415 21.4643C87.9303 21.6789 88.3414 21.9823 88.6748 22.3745C89.0081 22.7593 89.2599 23.2218 89.4303 23.7621C89.6007 24.2949 89.6859 24.8758 89.6859 25.5048V32.8198H86.2415V25.5048C86.2415 24.9424 86.1119 24.5058 85.8526 24.195C85.5934 23.8768 85.2119 23.7177 84.7082 23.7177C84.3304 23.7177 83.9749 23.7991 83.6416 23.9619C83.3156 24.1173 82.9971 24.3319 82.686 24.6057V32.8198H79.2417V21.3089H81.3749C81.8046 21.3089 82.086 21.5013 82.2194 21.8861L82.4194 22.5521Z" fill="#0C2A54"/>
<path fill-rule="evenodd" clip-rule="evenodd" d="M4.33917 0L0 8.87013V25.92V32.714V32.9969H6.95226V32.985L6.95894 32.9921L13.3867 29.2283L13.8949 26.6235L10.8647 21.8829L6.01884 20.7783L8.9085 11.9243L14.2258 15.3765L10.4218 5.81718L5.35866 9.52886L4.33917 0ZM11.1066 24.9067L9.78422 22.8993L7.77692 24.2217L9.09928 26.229L11.1066 24.9067Z" fill="#0C2A54"/>
<path d="M2.22473 19.9554L5.06317 20.5931L5.41319 11.6223L2.22473 19.9554Z" fill="#F47820"/>
</svg>
