<?xml version="1.0" standalone="no"?>
<!DOCTYPE svg PUBLIC "-//W3C//DTD SVG 20010904//EN"
 "http://www.w3.org/TR/2001/REC-SVG-20010904/DTD/svg10.dtd">
<svg version="1.0" xmlns="http://www.w3.org/2000/svg"
 width="400.000000pt" height="400.000000pt" viewBox="0 0 400.000000 400.000000"
 preserveAspectRatio="xMidYMid meet">

<g transform="translate(0.000000,400.000000) scale(0.100000,-0.100000)"
fill="#000000" stroke="none">
<path d="M1023 2475 c3 -610 3 -621 26 -705 93 -345 344 -606 678 -706 119
-36 336 -45 462 -19 117 24 252 80 355 149 l88 59 162 -162 c89 -88 165 -161
169 -161 4 0 6 278 5 618 -3 604 -4 619 -26 697 -25 91 -87 225 -139 304 -86
129 -244 265 -385 331 -92 43 -219 79 -325 91 -219 26 -468 -41 -662 -178
l-63 -46 -175 174 -174 174 4 -620z m1163 315 c245 -58 439 -218 549 -453 68
-143 69 -149 73 -604 2 -227 0 -413 -5 -413 -9 0 -1313 1302 -1313 1311 0 9
97 72 156 102 47 23 160 61 214 70 73 13 249 6 326 -13z m314 -1417 c0 -15
-66 -61 -147 -101 -187 -95 -429 -107 -636 -32 -197 72 -371 234 -458 426 -63
138 -68 186 -69 618 0 215 -1 395 0 401 0 14 1310 -1297 1310 -1312z"/>
</g>
</svg>
