
<svg width="60" height="20" viewBox="0 0 60 20" fill="none" xmlns="http://www.w3.org/2000/svg">
<path d="M6.22995 12.25V18.88C6.00995 18.94 5.65995 19 5.17995 19.06C4.69995 19.12 4.22995 19.15 3.76995 19.15C3.30995 19.15 2.89995 19.1101 2.53995 19.0301C2.19995 18.9701 1.90995 18.85 1.66995 18.67C1.42995 18.49 1.24995 18.24 1.12995 17.92C1.00995 17.6 0.949951 17.18 0.949951 16.66V0.820049C1.16995 0.780049 1.51995 0.730049 1.99995 0.67005C2.47995 0.59005 2.93995 0.550049 3.37995 0.550049C3.83995 0.550049 4.23995 0.59005 4.57995 0.67005C4.93995 0.730049 5.23995 0.850048 5.47995 1.03005C5.71995 1.21005 5.89995 1.46005 6.01995 1.78005C6.13995 2.10005 6.19995 2.52005 6.19995 3.04005V7.81005L12.44 0.640048C13.8 0.640048 14.77 0.900048 15.35 1.42005C15.95 1.92005 16.25 2.52005 16.25 3.22005C16.25 3.74005 16.12 4.23005 15.86 4.69005C15.6 5.15005 15.18 5.67005 14.6 6.25005L10.85 10C11.35 10.56 11.87 11.14 12.41 11.74C12.97 12.34 13.51 12.93 14.03 13.51C14.57 14.0701 15.08 14.61 15.56 15.13C16.06 15.65 16.49 16.1 16.85 16.48C16.85 16.92 16.77 17.31 16.61 17.65C16.45 17.99 16.23 18.2801 15.95 18.5201C15.69 18.76 15.39 18.94 15.05 19.06C14.71 19.18 14.35 19.24 13.97 19.24C13.15 19.24 12.48 19.04 11.96 18.64C11.44 18.22 10.94 17.73 10.46 17.17L6.22995 12.25Z" fill="#6B5436"/>
<path d="M24.657 18.88C24.437 18.94 24.087 19 23.607 19.06C23.147 19.12 22.687 19.15 22.227 19.15C21.767 19.15 21.357 19.1101 20.997 19.0301C20.657 18.9701 20.367 18.85 20.127 18.67C19.887 18.49 19.707 18.24 19.587 17.92C19.467 17.6 19.407 17.18 19.407 16.66V0.820049C19.627 0.780049 19.977 0.730049 20.457 0.67005C20.937 0.59005 21.397 0.550049 21.837 0.550049C22.297 0.550049 22.697 0.59005 23.037 0.67005C23.397 0.730049 23.697 0.850048 23.937 1.03005C24.177 1.21005 24.357 1.46005 24.477 1.78005C24.597 2.10005 24.657 2.52005 24.657 3.04005V18.88Z" fill="#6B5436"/>
<path d="M36.9476 5.26005C37.1676 5.16005 37.5076 5.05005 37.9676 4.93005C38.4476 4.79005 38.9276 4.72005 39.4076 4.72005C40.2476 4.72005 40.9476 4.85005 41.5076 5.11005C42.0676 5.35005 42.4076 5.71005 42.5276 6.19005C42.7476 7.01005 42.9476 7.78005 43.1276 8.50005C43.3276 9.20005 43.5176 9.88005 43.6976 10.54C43.8776 11.18 44.0476 11.82 44.2076 12.46C44.3876 13.1 44.5576 13.77 44.7176 14.47H44.8676C45.0476 13.25 45.2076 12.09 45.3476 10.99C45.4876 9.87005 45.6176 8.78005 45.7376 7.72005C45.8576 6.64005 45.9776 5.58005 46.0976 4.54005C46.2176 3.48005 46.3376 2.41005 46.4576 1.33005C47.1976 0.910049 47.9876 0.700049 48.8276 0.700049C49.5676 0.700049 50.2076 0.860049 50.7476 1.18005C51.2876 1.50005 51.5576 2.04005 51.5576 2.80005C51.5576 3.24005 51.5076 3.87005 51.4076 4.69005C51.3276 5.49005 51.2076 6.39005 51.0476 7.39005C50.9076 8.39005 50.7376 9.44005 50.5376 10.54C50.3376 11.64 50.1276 12.6901 49.9076 13.6901C49.6876 14.6901 49.4576 15.6 49.2176 16.42C48.9976 17.22 48.7876 17.84 48.5876 18.2801C48.2876 18.5601 47.7976 18.79 47.1176 18.97C46.4376 19.15 45.7376 19.24 45.0176 19.24C44.0776 19.24 43.2776 19.12 42.6176 18.88C41.9776 18.62 41.5876 18.26 41.4476 17.8C41.1876 17 40.9076 16.0501 40.6076 14.9501C40.3076 13.85 39.9876 12.64 39.6476 11.32C39.3676 12.62 39.0776 13.89 38.7776 15.13C38.4776 16.37 38.2076 17.42 37.9676 18.2801C37.6676 18.5601 37.2176 18.79 36.6176 18.97C36.0176 19.15 35.3576 19.24 34.6376 19.24C33.7376 19.24 32.9176 19.12 32.1776 18.88C31.4576 18.62 30.9876 18.26 30.7676 17.8C30.5876 17.44 30.3876 16.91 30.1676 16.21C29.9676 15.49 29.7576 14.68 29.5376 13.78C29.3176 12.86 29.0876 11.87 28.8476 10.81C28.6276 9.75005 28.4176 8.69005 28.2176 7.63005C28.0376 6.57005 27.8676 5.54005 27.7076 4.54005C27.5476 3.52005 27.4276 2.59005 27.3476 1.75005C27.6276 1.49005 28.0176 1.25005 28.5176 1.03005C29.0176 0.810049 29.5576 0.700049 30.1376 0.700049C30.8976 0.700049 31.5176 0.870049 31.9976 1.21005C32.4976 1.53005 32.8076 2.08005 32.9276 2.86005C33.2476 4.90005 33.5076 6.60005 33.7076 7.96005C33.9276 9.32005 34.0976 10.44 34.2176 11.32C34.3576 12.18 34.4576 12.85 34.5176 13.33C34.5776 13.8101 34.6376 14.19 34.6976 14.47H34.8476C35.0276 13.67 35.1976 12.93 35.3576 12.25C35.5176 11.57 35.6776 10.89 35.8376 10.21C36.0176 9.51005 36.1976 8.77005 36.3776 7.99005C36.5576 7.19005 36.7476 6.28005 36.9476 5.26005Z" fill="#6B5436"/>
<path d="M59.696 18.88C59.476 18.94 59.126 19 58.646 19.06C58.186 19.12 57.726 19.15 57.266 19.15C56.806 19.15 56.396 19.1101 56.036 19.0301C55.696 18.9701 55.406 18.85 55.166 18.67C54.926 18.49 54.746 18.24 54.626 17.92C54.506 17.6 54.446 17.18 54.446 16.66V0.820049C54.666 0.780049 55.016 0.730049 55.496 0.67005C55.976 0.59005 56.436 0.550049 56.876 0.550049C57.336 0.550049 57.736 0.59005 58.076 0.67005C58.436 0.730049 58.736 0.850048 58.976 1.03005C59.216 1.21005 59.396 1.46005 59.516 1.78005C59.636 2.10005 59.696 2.52005 59.696 3.04005V18.88Z" fill="#6B5436"/>
</svg>
