<svg width="26" height="18" viewBox="0 0 26 18" fill="none" xmlns="http://www.w3.org/2000/svg">
<path d="M0 1.27953C0 0.572866 0.572867 0 1.27953 0H11.5776C12.2843 0 12.8571 0.572866 12.8571 1.27953C12.8571 1.9862 12.2843 2.55907 11.5776 2.55907H1.27953C0.572868 2.55907 0 1.9862 0 1.27953Z" fill="#77BD41"/>
<path d="M0 8.99969C0 8.29302 0.572867 7.72015 1.27953 7.72015H24.4348C25.1414 7.72015 25.7143 8.29302 25.7143 8.99969C25.7143 9.70635 25.1414 10.2792 24.4348 10.2792H1.27953C0.572868 10.2792 0 9.70635 0 8.99969Z" fill="#77BD41"/>
<path d="M1.27953 15.4409C0.572867 15.4409 0 16.0138 0 16.7205C0 17.4271 0.572868 18 1.27954 18H16.7205C17.4271 18 18 17.4271 18 16.7205C18 16.0138 17.4271 15.4409 16.7205 15.4409H1.27953Z" fill="#77BD41"/>
</svg>
