<svg width="17" height="17" viewBox="0 0 17 17" fill="none" xmlns="http://www.w3.org/2000/svg">
<path opacity="0.5" fill-rule="evenodd" clip-rule="evenodd" d="M11.0122 11.0122C13.1198 8.90455 13.1198 5.48737 11.0122 3.37973C8.90455 1.27208 5.48737 1.27208 3.37973 3.37973C1.27208 5.48737 1.27208 8.90455 3.37973 11.0122C5.48737 13.1198 8.90455 13.1198 11.0122 11.0122ZM12.2843 2.10765C14.8795 4.70285 15.078 8.78716 12.8799 11.6102C12.8937 11.6224 12.9071 11.6351 12.9203 11.6482L16.7365 15.4645C17.0878 15.8157 17.0878 16.3853 16.7365 16.7365C16.3853 17.0878 15.8157 17.0878 15.4645 16.7365L11.6482 12.9203C11.6351 12.9071 11.6224 12.8937 11.6102 12.8799C8.78716 15.078 4.70286 14.8795 2.10765 12.2843C-0.702549 9.47407 -0.702549 4.91784 2.10765 2.10765C4.91784 -0.702549 9.47407 -0.702549 12.2843 2.10765Z" fill="white"/>
</svg>
