<svg width="20" height="20" viewBox="0 0 20 20" fill="none" xmlns="http://www.w3.org/2000/svg">
<path d="M19.8727 8.48323C19.8253 8.17081 19.6098 7.91015 19.3125 7.80467L17.7369 7.24444C17.6437 6.98045 17.538 6.72381 17.4208 6.47554L18.1378 4.96668C18.2731 4.68215 18.241 4.34562 18.0542 4.09116C17.4498 3.26924 16.7278 2.54717 15.908 1.94562C15.6534 1.75865 15.318 1.72686 15.0329 1.86252L13.5249 2.57896C13.2767 2.46178 13.0197 2.3563 12.7555 2.2631L12.195 0.687316C12.0895 0.390502 11.8295 0.175638 11.5178 0.127661C10.4102 -0.0425537 9.59046 -0.0425537 8.48114 0.127661C8.16975 0.175638 7.90943 0.390502 7.80395 0.687316L7.24349 2.2631C6.97927 2.3563 6.72229 2.46178 6.47425 2.57896L4.96573 1.86252C4.6812 1.72697 4.34525 1.75876 4.09078 1.94562C3.27104 2.54717 2.54898 3.26924 1.94467 4.09116C1.7577 4.34562 1.72568 4.68203 1.861 4.96668L2.57802 6.47554C2.46083 6.72335 2.35535 6.98056 2.26192 7.24444L0.68614 7.80524C0.388981 7.91072 0.173888 8.17127 0.12614 8.48323C0.0401721 9.04794 0 9.52943 0 10.0005C0 10.4708 0.0401721 10.953 0.12614 11.5177C0.173544 11.8301 0.388981 12.0908 0.686369 12.1963L2.26192 12.7565C2.35535 13.021 2.46117 13.2777 2.57802 13.526L1.861 15.0343C1.72568 15.3188 1.75782 15.6553 1.94445 15.9092C2.54795 16.7306 3.27001 17.4526 4.09078 18.0553C4.34525 18.2423 4.6812 18.2747 4.96596 18.1384L6.47391 17.422C6.72217 17.5392 6.97916 17.6447 7.24338 17.7379L7.80384 19.3136C7.90932 19.6104 8.16929 19.8253 8.48102 19.8733C9.03517 19.9587 9.5317 20 9.9993 20C10.4669 20 10.9635 19.9587 11.5176 19.8733C11.8292 19.8253 12.0893 19.6104 12.1948 19.3136L12.7552 17.7379C13.0194 17.6447 13.2764 17.5392 13.5247 17.422L15.0326 18.1384C15.3177 18.2746 15.6537 18.2422 15.9082 18.0553C16.7299 17.4516 17.4519 16.7295 18.0543 15.9092C18.2409 15.6553 18.273 15.3188 18.1377 15.0343L17.4207 13.526C17.5379 13.2777 17.6436 13.0204 17.7368 12.7565L19.3123 12.1963C19.6097 12.0908 19.8252 11.8303 19.8726 11.5177C19.9585 10.953 19.9987 10.4709 19.9987 10.0005C19.9987 9.53 19.9587 9.04782 19.8727 8.48323ZM18.2433 10.757L16.7652 11.2827C16.5068 11.3741 16.3082 11.5839 16.2303 11.8474C16.0983 12.2937 15.9246 12.7161 15.7134 13.1034C15.5823 13.3444 15.5742 13.6335 15.6919 13.8812L16.3623 15.2913C16.0384 15.6802 15.6802 16.039 15.2907 16.3626L13.8808 15.693C13.6328 15.5741 13.3446 15.5836 13.1032 15.7142C12.7154 15.9252 12.2928 16.0987 11.8461 16.2309C11.5832 16.3085 11.3734 16.5071 11.2817 16.7655L10.7558 18.2441C10.219 18.2988 9.77984 18.2988 9.24303 18.2441L8.71712 16.7655C8.6253 16.5077 8.41549 16.3084 8.15276 16.2309C7.70582 16.0987 7.28286 15.9252 6.8956 15.7142C6.65422 15.5826 6.36544 15.5742 6.11798 15.693L4.70817 16.3632C4.31896 16.0389 3.96074 15.6807 3.63649 15.2913L4.30691 13.8812C4.42467 13.6334 4.41652 13.3444 4.28545 13.1034C4.07483 12.7173 3.90094 12.2943 3.76849 11.8468C3.69067 11.5839 3.49176 11.3741 3.23363 11.2827L1.75552 10.757C1.72763 10.488 1.7142 10.2402 1.7142 10.0004C1.7142 9.76047 1.72763 9.51324 1.75552 9.24432L3.23397 8.71818C3.49199 8.6267 3.69067 8.41689 3.76849 8.15405C3.90071 7.70768 4.0746 7.28472 4.28545 6.89689C4.41652 6.65643 4.42467 6.36673 4.30691 6.11962L3.63649 4.70958C3.96097 4.32014 4.31919 3.96134 4.70817 3.63767L6.11856 4.30786C6.36544 4.42677 6.65537 4.41724 6.89617 4.28662C7.2832 4.07566 7.70582 3.90212 8.15276 3.76989C8.4156 3.69231 8.62541 3.49317 8.71712 3.23538L9.24303 1.7567C9.77479 1.70149 10.2147 1.70149 10.7558 1.7567L11.2817 3.23538C11.3735 3.49317 11.5833 3.69242 11.8461 3.76989C12.293 3.90212 12.716 4.07566 13.1032 4.28662C13.3446 4.41827 13.6328 4.42665 13.8808 4.30786L15.2907 3.63767C15.6796 3.96134 16.0379 4.32014 16.3623 4.70958L15.6919 6.11962C15.5742 6.36685 15.5823 6.65643 15.7134 6.89689C15.9249 7.28587 16.0987 7.70825 16.2303 8.15348C16.3082 8.41689 16.5068 8.6267 16.7652 8.71818L18.2433 9.24386C18.2712 9.51278 18.2846 9.76059 18.2846 10.0005C18.2846 10.2404 18.2712 10.488 18.2433 10.757Z" fill="#7F7F7F"/>
<path d="M9.99938 5.83099C7.81149 5.83099 6.0314 7.61096 6.0314 9.79897C6.0314 11.987 7.81137 13.7669 9.99938 13.7669C12.1874 13.7669 13.9673 11.987 13.9673 9.79897C13.9673 7.61096 12.1873 5.83099 9.99938 5.83099ZM9.99938 12.0527C8.75668 12.0527 7.7456 11.0417 7.7456 9.79897C7.7456 8.55627 8.75668 7.5452 9.99938 7.5452C11.2421 7.5452 12.2531 8.55627 12.2531 9.79897C12.2531 11.0417 11.2421 12.0527 9.99938 12.0527Z" fill="#7F7F7F"/>
</svg>
