<svg width="21" height="17" viewBox="0 0 21 17" fill="none" xmlns="http://www.w3.org/2000/svg">
<path d="M18.0761 4.07675C18.084 4.25391 18.0879 4.43188 18.0879 4.61069C18.0879 10.0701 13.9323 16.3655 6.33279 16.3658C3.99957 16.3658 1.8284 15.6819 0 14.5099C0.323273 14.5481 0.652313 14.567 0.985474 14.567C2.92126 14.567 4.7027 13.9068 6.11691 12.7985C4.30829 12.765 2.78339 11.5705 2.25714 9.92889C2.509 9.97723 2.76801 10.0036 3.0336 10.0036C3.41071 10.0036 3.776 9.95279 4.12317 9.85803C2.2327 9.47955 0.808594 7.80881 0.808594 5.8082C0.808594 5.78952 0.808594 5.77277 0.809143 5.75546C1.36588 6.065 2.00253 6.25122 2.68039 6.27209C1.57105 5.53189 0.841827 4.26654 0.841827 2.8331C0.841827 2.07614 1.04645 1.36697 1.40131 0.756409C3.43872 3.25635 6.48358 4.90045 9.91736 5.07321C9.8465 4.77054 9.80997 4.45523 9.80997 4.13113C9.80997 1.85037 11.6603 0 13.9419 0C15.1304 0 16.2037 0.50235 16.9577 1.30545C17.8989 1.11978 18.7828 0.775909 19.5812 0.302673C19.2722 1.267 18.6174 2.07614 17.7643 2.58783C18.6001 2.48785 19.3966 2.2662 20.1368 1.93716C19.584 2.76581 18.8828 3.49365 18.0761 4.07675Z" fill="#BFBFBF"/>
</svg>
