<svg width="45" height="45" viewBox="0 0 45 45" fill="none" xmlns="http://www.w3.org/2000/svg">
<rect width="45" height="45" rx="22.5" fill="#F9F9F9"/>
<path d="M16.7071 15.2929C16.3166 14.9024 15.6834 14.9024 15.2929 15.2929C14.9024 15.6834 14.9024 16.3166 15.2929 16.7071L21.0676 22.4818L15.293 28.2565C14.9024 28.647 14.9024 29.2802 15.293 29.6707C15.6835 30.0613 16.3166 30.0613 16.7072 29.6707L22.4818 23.8961L28.2565 29.6707C28.647 30.0613 29.2802 30.0613 29.6707 29.6707C30.0613 29.2802 30.0613 28.647 29.6707 28.2565L23.8961 22.4818L29.6708 16.7071C30.0613 16.3166 30.0613 15.6834 29.6708 15.2929C29.2803 14.9024 28.6471 14.9024 28.2566 15.2929L22.4818 21.0676L16.7071 15.2929Z" fill="black"/>
</svg>
