<svg width="1356" height="651" viewBox="0 0 1356 651" fill="none" xmlns="http://www.w3.org/2000/svg">
<path opacity="0.05" fill-rule="evenodd" clip-rule="evenodd" d="M403.163 615.5C403.163 693.186 340.186 756.163 262.5 756.163C184.814 756.163 121.837 693.186 121.837 615.5C121.837 537.814 184.814 474.837 262.5 474.837C340.186 474.837 403.163 537.814 403.163 615.5ZM262.5 762C343.41 762 409 696.41 409 615.5C409 534.59 343.41 469 262.5 469C181.59 469 116 534.59 116 615.5C116 696.41 181.59 762 262.5 762ZM386.696 615.5C386.696 684.092 331.092 739.696 262.5 739.696C193.909 739.696 138.304 684.092 138.304 615.5C138.304 546.909 193.909 491.304 262.5 491.304C331.092 491.304 386.696 546.909 386.696 615.5ZM262.5 745.533C334.315 745.533 392.533 687.315 392.533 615.5C392.533 543.685 334.315 485.467 262.5 485.467C190.685 485.467 132.467 543.685 132.467 615.5C132.467 687.315 190.685 745.533 262.5 745.533ZM262.5 712.25C315.934 712.25 359.251 668.934 359.251 615.5C359.251 562.066 315.934 518.749 262.5 518.749C209.066 518.749 165.75 562.066 165.75 615.5C165.75 668.934 209.066 712.25 262.5 712.25ZM365.087 615.5C365.087 672.157 319.158 718.087 262.5 718.087C205.843 718.087 159.913 672.157 159.913 615.5C159.913 558.842 205.843 512.913 262.5 512.913C319.158 512.913 365.087 558.842 365.087 615.5ZM296.422 615.5C296.422 634.235 281.235 649.422 262.5 649.422C243.765 649.422 228.577 634.235 228.577 615.5C228.577 596.765 243.765 581.577 262.5 581.577C281.235 581.577 296.422 596.765 296.422 615.5ZM262.5 655.259C284.458 655.259 302.259 637.458 302.259 615.5C302.259 593.542 284.458 575.741 262.5 575.741C240.541 575.741 222.741 593.542 222.741 615.5C222.741 637.458 240.541 655.259 262.5 655.259ZM261.781 671.823C260.28 675.007 259.51 678.283 259.51 679.515C259.51 681.187 260.828 682.506 262.5 682.506C264.173 682.506 265.491 681.187 265.491 679.515C265.491 679.118 265.349 678.094 264.867 676.517C264.414 675.035 263.764 673.4 263.02 671.9C262.8 671.457 262.581 671.043 262.367 670.663C262.174 671.018 261.978 671.405 261.781 671.823ZM264.114 668.205C264.114 668.207 264.108 668.213 264.097 668.222C264.083 668.234 264.059 668.252 264.026 668.274L264.041 668.261L264.055 668.249L264.069 668.237L264.08 668.228L264.089 668.22C264.106 668.208 264.114 668.203 264.114 668.205ZM253.673 679.515C253.673 674.62 258.272 662.825 262.5 662.825C266.061 662.825 271.327 674.545 271.327 679.515C271.327 684.411 267.396 688.342 262.5 688.342C257.605 688.342 253.673 684.411 253.673 679.515ZM259.51 551.485C259.51 549.813 260.828 548.495 262.5 548.495C264.13 548.495 265.491 549.845 265.491 551.485C265.491 552.718 264.721 555.994 263.22 559.178C263.02 559.602 262.82 559.995 262.625 560.354C262.407 559.966 262.184 559.544 261.961 559.089C261.221 557.586 260.576 555.948 260.127 554.466C259.649 552.887 259.51 551.868 259.51 551.485ZM260.887 562.795C260.887 562.792 260.916 562.765 260.974 562.726C260.916 562.78 260.887 562.799 260.887 562.795ZM262.5 542.658C257.605 542.658 253.673 546.59 253.673 551.485C253.673 556.381 258.866 568.175 262.5 568.175C266.728 568.175 271.327 556.381 271.327 551.485C271.327 546.59 267.322 542.658 262.5 542.658ZM198.486 612.509C196.814 612.509 195.495 613.828 195.495 615.5C195.495 617.172 196.814 618.49 198.486 618.49C198.869 618.49 199.887 618.351 201.467 617.873C202.949 617.424 204.586 616.779 206.089 616.04C206.555 615.81 206.987 615.582 207.382 615.359C207.019 615.162 206.621 614.96 206.189 614.758C203.019 613.272 199.735 612.509 198.486 612.509ZM209.779 617.067C209.776 617.067 209.751 617.04 209.714 616.985C209.764 617.039 209.782 617.067 209.779 617.067ZM189.659 615.5C189.659 610.604 193.59 606.673 198.486 606.673C203.382 606.673 215.176 611.198 215.176 615.5C215.176 619.135 203.382 624.327 198.486 624.327C193.59 624.327 189.659 620.396 189.659 615.5ZM318.749 616.219C318.324 616.019 317.932 615.82 317.573 615.625C317.96 615.407 318.383 615.184 318.838 614.96C320.341 614.22 321.978 613.576 323.46 613.127C325.04 612.648 326.058 612.509 326.441 612.509C328.113 612.509 329.432 613.828 329.432 615.5C329.432 617.172 328.113 618.49 326.441 618.49C325.208 618.49 321.933 617.72 318.749 616.219ZM315.2 613.974C315.147 613.916 315.127 613.887 315.131 613.887C315.135 613.887 315.161 613.916 315.2 613.974ZM326.441 606.673C321.545 606.673 309.751 611.865 309.751 615.5C309.751 619.728 321.545 624.327 326.441 624.327C331.337 624.327 335.268 620.396 335.268 615.5C335.268 610.604 331.337 606.673 326.441 606.673ZM222.198 654.81C218.891 655.995 216.031 657.762 215.149 658.644C214.016 659.777 214.016 661.719 215.149 662.852C216.273 663.977 218.196 663.985 219.332 662.876C219.62 662.572 220.232 661.741 220.99 660.311C221.72 658.936 222.423 657.314 222.965 655.722C223.121 655.267 223.256 654.832 223.373 654.423C223.004 654.533 222.611 654.662 222.198 654.81ZM226.398 653.905C226.395 653.908 226.355 653.906 226.285 653.893C226.366 653.896 226.4 653.903 226.398 653.905ZM223.483 666.979C220.071 670.391 214.434 670.391 211.021 666.979C207.609 663.567 207.609 657.929 211.021 654.517C214.508 651.031 226.079 645.987 229.046 648.954C231.568 651.476 226.895 663.493 223.483 666.979ZM305.645 568.148C306.778 567.015 308.72 567.015 309.853 568.148C310.954 569.25 311.023 571.135 309.83 572.377C308.923 573.267 306.083 575.014 302.803 576.19C302.387 576.339 301.992 576.468 301.621 576.579C301.739 576.159 301.878 575.713 302.037 575.246C302.579 573.65 303.282 572.029 304.008 570.662C304.786 569.199 305.396 568.397 305.645 568.148ZM295.955 582.046C298.922 585.013 310.493 579.969 313.98 576.483C317.392 572.996 317.392 567.433 313.98 564.021C310.568 560.609 304.93 560.609 301.518 564.021C298.106 567.433 293.433 579.524 295.955 582.046ZM298.603 577.094C298.606 577.092 298.646 577.093 298.716 577.107C298.636 577.104 298.601 577.097 298.603 577.094ZM219.356 568.148C218.223 567.015 216.281 567.015 215.149 568.148C214.016 569.281 214.016 571.223 215.149 572.356C215.397 572.604 216.2 573.215 217.662 573.992C219.029 574.719 220.651 575.421 222.246 575.963C222.711 576.121 223.154 576.259 223.572 576.378C223.457 575.993 223.322 575.585 223.167 575.154C221.971 571.84 220.203 568.995 219.356 568.148ZM224.087 579.388C224.085 579.386 224.086 579.348 224.1 579.282C224.096 579.358 224.09 579.391 224.087 579.388ZM211.021 564.021C214.434 560.609 220.071 560.609 223.483 564.021C226.895 567.433 232.014 579.005 229.046 582.046C226.524 584.568 214.434 579.895 211.021 576.483C207.609 573.071 207.609 567.433 211.021 564.021ZM301.81 655.728C301.661 655.312 301.532 654.917 301.421 654.546C301.841 654.664 302.287 654.803 302.755 654.962C304.35 655.504 305.972 656.206 307.339 656.933C308.766 657.692 309.564 658.292 309.833 658.551C311.023 659.794 310.953 661.677 309.852 662.777C308.72 663.91 306.778 663.91 305.645 662.777C304.762 661.895 302.996 659.035 301.81 655.728ZM295.954 648.88C298.476 646.358 310.567 651.031 313.979 654.443C317.392 657.929 317.392 663.492 313.979 666.905C310.567 670.317 304.93 670.317 301.518 666.905C298.031 663.418 292.987 651.847 295.954 648.88ZM300.893 651.641C300.896 651.561 300.903 651.526 300.906 651.528C300.909 651.531 300.907 651.571 300.893 651.641Z" fill="#4E931A"/>
<path opacity="0.05" fill-rule="evenodd" clip-rule="evenodd" d="M564.163 146.5C564.163 224.186 501.186 287.163 423.5 287.163C345.814 287.163 282.837 224.186 282.837 146.5C282.837 68.8138 345.814 5.83665 423.5 5.83665C501.186 5.83665 564.163 68.8138 564.163 146.5ZM423.5 293C504.41 293 570 227.41 570 146.5C570 65.5903 504.41 0 423.5 0C342.59 0 277 65.5903 277 146.5C277 227.41 342.59 293 423.5 293ZM547.696 146.5C547.696 215.092 492.092 270.696 423.5 270.696C354.909 270.696 299.304 215.092 299.304 146.5C299.304 77.9086 354.909 22.3041 423.5 22.3041C492.092 22.3041 547.696 77.9086 547.696 146.5ZM423.5 276.533C495.315 276.533 553.533 218.315 553.533 146.5C553.533 74.6851 495.315 16.4675 423.5 16.4675C351.685 16.4675 293.467 74.6851 293.467 146.5C293.467 218.315 351.685 276.533 423.5 276.533ZM423.5 243.25C476.934 243.25 520.251 199.934 520.251 146.5C520.251 93.066 476.934 49.7493 423.5 49.7493C370.066 49.7493 326.75 93.066 326.75 146.5C326.75 199.934 370.066 243.25 423.5 243.25ZM526.087 146.5C526.087 203.157 480.158 249.087 423.5 249.087C366.843 249.087 320.913 203.157 320.913 146.5C320.913 89.8425 366.843 43.9127 423.5 43.9127C480.158 43.9127 526.087 89.8425 526.087 146.5ZM457.422 146.5C457.422 165.235 442.235 180.422 423.5 180.422C404.765 180.422 389.577 165.235 389.577 146.5C389.577 127.765 404.765 112.577 423.5 112.577C442.235 112.577 457.422 127.765 457.422 146.5ZM423.5 186.259C445.458 186.259 463.259 168.458 463.259 146.5C463.259 124.542 445.458 106.741 423.5 106.741C401.541 106.741 383.741 124.542 383.741 146.5C383.741 168.458 401.541 186.259 423.5 186.259ZM422.781 202.823C421.28 206.007 420.51 209.283 420.51 210.515C420.51 212.187 421.828 213.506 423.5 213.506C425.173 213.506 426.491 212.187 426.491 210.515C426.491 210.118 426.349 209.094 425.867 207.517C425.414 206.035 424.764 204.4 424.02 202.9C423.8 202.457 423.581 202.043 423.367 201.663C423.174 202.018 422.978 202.405 422.781 202.823ZM425.114 199.205C425.114 199.207 425.108 199.213 425.097 199.222C425.083 199.234 425.059 199.252 425.026 199.274L425.041 199.261L425.055 199.249L425.069 199.237L425.08 199.228L425.089 199.22C425.106 199.208 425.114 199.203 425.114 199.205ZM414.673 210.515C414.673 205.62 419.272 193.825 423.5 193.825C427.061 193.825 432.327 205.545 432.327 210.515C432.327 215.411 428.396 219.342 423.5 219.342C418.605 219.342 414.673 215.411 414.673 210.515ZM420.51 82.4853C420.51 80.8131 421.828 79.4949 423.5 79.4949C425.13 79.4949 426.491 80.845 426.491 82.4853C426.491 83.718 425.721 86.9936 424.22 90.1776C424.02 90.6023 423.82 90.9948 423.625 91.3538C423.407 90.9663 423.184 90.5436 422.961 90.0887C422.221 88.5858 421.576 86.9481 421.127 85.4661C420.649 83.8867 420.51 82.8684 420.51 82.4853ZM421.887 93.7955C421.887 93.7918 421.916 93.765 421.974 93.7261C421.916 93.7797 421.887 93.7991 421.887 93.7955ZM423.5 73.6582C418.605 73.6582 414.673 77.5896 414.673 82.4853C414.673 87.381 419.866 99.1752 423.5 99.1752C427.728 99.1752 432.327 87.381 432.327 82.4853C432.327 77.5896 428.322 73.6582 423.5 73.6582ZM359.486 143.509C357.814 143.509 356.495 144.828 356.495 146.5C356.495 148.172 357.814 149.49 359.486 149.49C359.869 149.49 360.887 149.351 362.467 148.873C363.949 148.424 365.586 147.779 367.089 147.04C367.555 146.81 367.987 146.582 368.382 146.359C368.019 146.162 367.621 145.96 367.189 145.758C364.019 144.272 360.735 143.509 359.486 143.509ZM370.779 148.067C370.776 148.067 370.751 148.04 370.714 147.985C370.764 148.039 370.782 148.067 370.779 148.067ZM350.659 146.5C350.659 141.604 354.59 137.673 359.486 137.673C364.382 137.673 376.176 142.198 376.176 146.5C376.176 150.135 364.382 155.327 359.486 155.327C354.59 155.327 350.659 151.396 350.659 146.5ZM479.749 147.219C479.324 147.019 478.932 146.82 478.573 146.625C478.96 146.407 479.383 146.184 479.838 145.96C481.341 145.22 482.978 144.576 484.46 144.127C486.04 143.648 487.058 143.509 487.441 143.509C489.113 143.509 490.432 144.828 490.432 146.5C490.432 148.172 489.113 149.49 487.441 149.49C486.208 149.49 482.933 148.72 479.749 147.219ZM476.2 144.974C476.147 144.916 476.127 144.887 476.131 144.887C476.135 144.887 476.161 144.916 476.2 144.974ZM487.441 137.673C482.545 137.673 470.751 142.865 470.751 146.5C470.751 150.728 482.545 155.327 487.441 155.327C492.337 155.327 496.268 151.396 496.268 146.5C496.268 141.604 492.337 137.673 487.441 137.673ZM383.198 185.81C379.891 186.995 377.031 188.762 376.149 189.644C375.016 190.777 375.016 192.719 376.149 193.852C377.273 194.977 379.196 194.985 380.332 193.876C380.62 193.572 381.232 192.741 381.99 191.311C382.72 189.936 383.423 188.314 383.965 186.722C384.121 186.267 384.256 185.832 384.373 185.423C384.004 185.533 383.611 185.662 383.198 185.81ZM387.398 184.905C387.395 184.908 387.355 184.906 387.285 184.893C387.366 184.896 387.4 184.903 387.398 184.905ZM384.483 197.979C381.071 201.391 375.434 201.391 372.021 197.979C368.609 194.567 368.609 188.929 372.021 185.517C375.508 182.031 387.079 176.987 390.046 179.954C392.568 182.476 387.895 194.493 384.483 197.979ZM466.645 99.148C467.778 98.0152 469.72 98.0152 470.853 99.148C471.954 100.25 472.023 102.135 470.83 103.377C469.923 104.267 467.083 106.014 463.803 107.19C463.387 107.339 462.992 107.468 462.621 107.579C462.739 107.159 462.878 106.713 463.037 106.246C463.579 104.65 464.282 103.029 465.008 101.662C465.786 100.199 466.396 99.3966 466.645 99.148ZM456.955 113.046C459.922 116.013 471.493 110.969 474.98 107.483C478.392 103.996 478.392 98.433 474.98 95.0209C471.568 91.6087 465.93 91.6087 462.518 95.0209C459.106 98.433 454.433 110.524 456.955 113.046ZM459.603 108.094C459.606 108.092 459.646 108.093 459.716 108.107C459.636 108.104 459.601 108.097 459.603 108.094ZM380.356 99.148C379.223 98.0152 377.281 98.0152 376.149 99.148C375.016 100.281 375.016 102.223 376.149 103.356C376.397 103.604 377.2 104.215 378.662 104.992C380.029 105.719 381.651 106.421 383.246 106.963C383.711 107.121 384.154 107.259 384.572 107.378C384.457 106.993 384.322 106.585 384.167 106.154C382.971 102.84 381.203 99.9955 380.356 99.148ZM385.087 110.388C385.085 110.386 385.086 110.348 385.1 110.282C385.096 110.358 385.09 110.391 385.087 110.388ZM372.021 95.0209C375.434 91.6087 381.071 91.6087 384.483 95.0209C387.895 98.433 393.014 110.005 390.046 113.046C387.524 115.568 375.434 110.895 372.021 107.483C368.609 104.071 368.609 98.433 372.021 95.0209ZM462.81 186.728C462.661 186.312 462.532 185.917 462.421 185.546C462.841 185.664 463.287 185.803 463.755 185.962C465.35 186.504 466.972 187.206 468.339 187.933C469.766 188.692 470.564 189.292 470.833 189.551C472.023 190.794 471.953 192.677 470.852 193.777C469.72 194.91 467.778 194.91 466.645 193.777C465.762 192.895 463.996 190.035 462.81 186.728ZM456.954 179.88C459.476 177.358 471.567 182.031 474.979 185.443C478.392 188.929 478.392 194.492 474.979 197.905C471.567 201.317 465.93 201.317 462.518 197.905C459.031 194.418 453.987 182.847 456.954 179.88ZM461.893 182.641C461.896 182.561 461.903 182.526 461.906 182.528C461.909 182.531 461.907 182.571 461.893 182.641Z" fill="#4E931A"/>
<path opacity="0.05" fill-rule="evenodd" clip-rule="evenodd" d="M1033.08 158.5C1033.08 210.733 990.733 253.076 938.5 253.076C886.267 253.076 843.924 210.733 843.924 158.5C843.924 106.267 886.267 63.9243 938.5 63.9243C990.733 63.9243 1033.08 106.267 1033.08 158.5ZM938.5 257C992.9 257 1037 212.9 1037 158.5C1037 104.1 992.9 60 938.5 60C884.1 60 840 104.1 840 158.5C840 212.9 884.1 257 938.5 257ZM1022 158.5C1022 204.618 984.618 242.004 938.5 242.004C892.382 242.004 854.996 204.618 854.996 158.5C854.996 112.382 892.382 74.9963 938.5 74.9963C984.618 74.9963 1022 112.382 1022 158.5ZM938.5 245.928C986.785 245.928 1025.93 206.785 1025.93 158.5C1025.93 110.215 986.785 71.072 938.5 71.072C890.215 71.072 851.072 110.215 851.072 158.5C851.072 206.785 890.215 245.928 938.5 245.928ZM938.5 223.55C974.427 223.55 1003.55 194.426 1003.55 158.5C1003.55 122.573 974.427 93.4492 938.5 93.4492C902.574 93.4492 873.45 122.573 873.45 158.5C873.45 194.426 902.574 223.55 938.5 223.55ZM1007.48 158.5C1007.48 196.594 976.594 227.475 938.5 227.475C900.406 227.475 869.525 196.594 869.525 158.5C869.525 120.406 900.406 89.5249 938.5 89.5249C976.594 89.5249 1007.48 120.406 1007.48 158.5ZM961.308 158.5C961.308 171.096 951.096 181.308 938.5 181.308C925.903 181.308 915.692 171.096 915.692 158.5C915.692 145.903 925.903 135.692 938.5 135.692C951.096 135.692 961.308 145.903 961.308 158.5ZM938.5 185.232C953.264 185.232 965.232 173.264 965.232 158.5C965.232 143.736 953.264 131.768 938.5 131.768C923.736 131.768 911.768 143.736 911.768 158.5C911.768 173.264 923.736 185.232 938.5 185.232ZM938.016 196.369C937.007 198.51 936.49 200.712 936.49 201.541C936.49 202.665 937.376 203.552 938.5 203.552C939.625 203.552 940.511 202.665 940.511 201.541C940.511 201.274 940.416 200.585 940.092 199.525C939.787 198.528 939.35 197.429 938.85 196.421C938.702 196.123 938.555 195.845 938.41 195.589C938.281 195.828 938.149 196.088 938.016 196.369ZM939.585 193.937C939.585 193.939 939.565 193.957 939.526 193.983C939.565 193.947 939.585 193.934 939.585 193.937ZM932.565 201.541C932.565 198.249 935.657 190.319 938.5 190.319C940.894 190.319 944.435 198.199 944.435 201.541C944.435 204.833 941.792 207.476 938.5 207.476C935.209 207.476 932.565 204.833 932.565 201.541ZM936.49 115.459C936.49 114.335 937.376 113.449 938.5 113.449C939.596 113.449 940.511 114.357 940.511 115.459C940.511 116.288 939.993 118.491 938.984 120.631C938.849 120.917 938.715 121.181 938.584 121.422C938.438 121.162 938.288 120.877 938.137 120.572C937.64 119.561 937.207 118.46 936.905 117.464C936.583 116.402 936.49 115.717 936.49 115.459ZM937.416 123.064C937.416 123.061 937.435 123.043 937.474 123.017C937.435 123.053 937.416 123.066 937.416 123.064ZM938.5 109.525C935.209 109.525 932.565 112.168 932.565 115.459C932.565 118.751 936.056 126.681 938.5 126.681C941.343 126.681 944.435 118.751 944.435 115.459C944.435 112.168 941.742 109.525 938.5 109.525ZM895.46 156.489C894.335 156.489 893.449 157.376 893.449 158.5C893.449 159.624 894.335 160.511 895.46 160.511C895.717 160.511 896.402 160.417 897.464 160.095C898.46 159.794 899.561 159.36 900.572 158.863C900.885 158.709 901.176 158.555 901.441 158.405C901.197 158.273 900.93 158.137 900.639 158.001C898.508 157.002 896.3 156.489 895.46 156.489ZM903.053 159.554C903.051 159.554 903.034 159.535 903.009 159.498C903.043 159.535 903.055 159.554 903.053 159.554ZM889.525 158.5C889.525 155.208 892.168 152.565 895.46 152.565C898.751 152.565 906.681 155.607 906.681 158.5C906.681 160.944 898.751 164.435 895.46 164.435C892.168 164.435 889.525 161.792 889.525 158.5ZM976.319 158.984C976.034 158.849 975.77 158.715 975.528 158.584C975.789 158.437 976.073 158.288 976.379 158.137C977.389 157.64 978.491 157.206 979.487 156.904C980.549 156.583 981.234 156.489 981.491 156.489C982.615 156.489 983.502 157.376 983.502 158.5C983.502 159.624 982.615 160.511 981.491 160.511C980.662 160.511 978.46 159.993 976.319 158.984ZM973.933 157.474C973.897 157.435 973.884 157.415 973.887 157.415C973.889 157.415 973.907 157.435 973.933 157.474ZM981.491 152.565C978.199 152.565 970.27 156.056 970.27 158.5C970.27 161.343 978.199 164.435 981.491 164.435C984.783 164.435 987.426 161.792 987.426 158.5C987.426 155.208 984.783 152.565 981.491 152.565ZM911.403 184.93C909.179 185.727 907.256 186.915 906.663 187.508C905.901 188.27 905.901 189.576 906.663 190.337C907.419 191.094 908.712 191.099 909.476 190.353C909.669 190.149 910.081 189.591 910.591 188.629C911.081 187.704 911.554 186.614 911.919 185.544C912.023 185.237 912.114 184.945 912.193 184.67C911.944 184.744 911.68 184.831 911.403 184.93ZM914.227 184.322C914.225 184.324 914.198 184.323 914.151 184.313C914.205 184.316 914.228 184.32 914.227 184.322ZM912.267 193.112C909.973 195.406 906.182 195.406 903.888 193.112C901.594 190.818 901.594 187.028 903.888 184.733C906.232 182.389 914.012 178.998 916.007 180.993C917.703 182.689 914.561 190.768 912.267 193.112ZM967.509 126.663C968.27 125.901 969.576 125.901 970.338 126.663C971.079 127.404 971.125 128.671 970.323 129.506C969.713 130.104 967.803 131.279 965.598 132.07C965.319 132.17 965.053 132.257 964.803 132.331C964.883 132.049 964.976 131.749 965.083 131.435C965.448 130.362 965.92 129.272 966.408 128.353C966.931 127.369 967.342 126.83 967.509 126.663ZM960.993 136.007C962.988 138.002 970.769 134.611 973.113 132.267C975.407 129.922 975.407 126.182 973.113 123.888C970.818 121.594 967.028 121.594 964.734 123.888C962.44 126.182 959.298 134.311 960.993 136.007ZM962.774 132.678C962.776 132.676 962.803 132.677 962.85 132.686C962.796 132.684 962.772 132.68 962.774 132.678ZM909.492 126.663C908.73 125.901 907.425 125.901 906.663 126.663C905.901 127.424 905.901 128.73 906.663 129.492C906.83 129.659 907.37 130.069 908.353 130.592C909.272 131.081 910.362 131.553 911.435 131.917C911.748 132.024 912.046 132.116 912.326 132.196C912.249 131.938 912.159 131.663 912.054 131.373C911.25 129.145 910.062 127.232 909.492 126.663ZM912.673 134.22C912.671 134.219 912.672 134.193 912.681 134.148C912.679 134.2 912.675 134.222 912.673 134.22ZM903.888 123.888C906.182 121.594 909.973 121.594 912.267 123.888C914.561 126.182 918.002 133.962 916.007 136.007C914.312 137.703 906.182 134.561 903.888 132.267C901.594 129.972 901.594 126.182 903.888 123.888ZM964.931 185.548C964.83 185.268 964.743 185.002 964.669 184.753C964.951 184.832 965.251 184.926 965.565 185.033C966.638 185.397 967.728 185.869 968.647 186.358C969.607 186.868 970.144 187.271 970.325 187.446C971.125 188.281 971.078 189.547 970.338 190.287C969.576 191.049 968.27 191.049 967.509 190.287C966.915 189.694 965.727 187.771 964.931 185.548ZM960.993 180.943C962.689 179.247 970.818 182.389 973.112 184.683C975.407 187.027 975.407 190.768 973.112 193.062C970.818 195.356 967.028 195.356 964.734 193.062C962.39 190.718 958.998 182.938 960.993 180.943ZM964.314 182.8C964.316 182.745 964.321 182.722 964.322 182.724C964.324 182.726 964.323 182.753 964.314 182.8Z" fill="#4E931A"/>
<path opacity="0.05" fill-rule="evenodd" clip-rule="evenodd" d="M1376.61 236C1376.61 281.074 1340.07 317.614 1295 317.614C1249.93 317.614 1213.39 281.074 1213.39 236C1213.39 190.926 1249.93 154.386 1295 154.386C1340.07 154.386 1376.61 190.926 1376.61 236ZM1295 321C1341.94 321 1380 282.944 1380 236C1380 189.056 1341.94 151 1295 151C1248.06 151 1210 189.056 1210 236C1210 282.944 1248.06 321 1295 321ZM1367.06 236C1367.06 275.797 1334.8 308.059 1295 308.059C1255.2 308.059 1222.94 275.797 1222.94 236C1222.94 196.203 1255.2 163.941 1295 163.941C1334.8 163.941 1367.06 196.203 1367.06 236ZM1295 311.446C1336.67 311.446 1370.45 277.667 1370.45 236C1370.45 194.333 1336.67 160.554 1295 160.554C1253.33 160.554 1219.55 194.333 1219.55 236C1219.55 277.667 1253.33 311.446 1295 311.446ZM1295 292.135C1326 292.135 1351.14 267.002 1351.14 236C1351.14 204.997 1326 179.865 1295 179.865C1264 179.865 1238.87 204.997 1238.87 236C1238.87 267.002 1264 292.135 1295 292.135ZM1354.52 236C1354.52 268.873 1327.87 295.521 1295 295.521C1262.13 295.521 1235.48 268.873 1235.48 236C1235.48 203.127 1262.13 176.478 1295 176.478C1327.87 176.478 1354.52 203.127 1354.52 236ZM1314.68 236C1314.68 246.87 1305.87 255.682 1295 255.682C1284.13 255.682 1275.32 246.87 1275.32 236C1275.32 225.13 1284.13 216.318 1295 216.318C1305.87 216.318 1314.68 225.13 1314.68 236ZM1295 259.068C1307.74 259.068 1318.07 248.74 1318.07 236C1318.07 223.26 1307.74 212.932 1295 212.932C1282.26 212.932 1271.93 223.26 1271.93 236C1271.93 248.74 1282.26 259.068 1295 259.068ZM1294.58 268.679C1293.71 270.526 1293.27 272.427 1293.27 273.142C1293.27 274.112 1294.03 274.877 1295 274.877C1295.97 274.877 1296.74 274.112 1296.74 273.142C1296.74 272.912 1296.65 272.317 1296.37 271.402C1296.11 270.542 1295.73 269.594 1295.3 268.724C1295.17 268.466 1295.05 268.226 1294.92 268.006C1294.81 268.212 1294.7 268.436 1294.58 268.679ZM1295.94 266.58C1295.94 266.582 1295.92 266.597 1295.89 266.62C1295.92 266.589 1295.94 266.578 1295.94 266.58ZM1289.88 273.142C1289.88 270.301 1292.55 263.458 1295 263.458C1297.07 263.458 1300.12 270.258 1300.12 273.142C1300.12 275.982 1297.84 278.263 1295 278.263C1292.16 278.263 1289.88 275.982 1289.88 273.142ZM1293.27 198.858C1293.27 197.888 1294.03 197.123 1295 197.123C1295.95 197.123 1296.74 197.907 1296.74 198.858C1296.74 199.574 1296.29 201.474 1295.42 203.322C1295.3 203.568 1295.19 203.796 1295.07 204.004C1294.95 203.779 1294.82 203.534 1294.69 203.27C1294.26 202.398 1293.88 201.448 1293.62 200.588C1293.35 199.672 1293.27 199.081 1293.27 198.858ZM1294.06 205.421C1294.06 205.418 1294.08 205.403 1294.11 205.38C1294.08 205.411 1294.06 205.423 1294.06 205.421ZM1295 193.737C1292.16 193.737 1289.88 196.018 1289.88 198.858C1289.88 201.699 1292.89 208.542 1295 208.542C1297.45 208.542 1300.12 201.699 1300.12 198.858C1300.12 196.018 1297.8 193.737 1295 193.737ZM1257.86 234.265C1256.89 234.265 1256.12 235.03 1256.12 236C1256.12 236.97 1256.89 237.735 1257.86 237.735C1258.08 237.735 1258.67 237.654 1259.59 237.377C1260.45 237.116 1261.4 236.742 1262.27 236.313C1262.54 236.18 1262.79 236.048 1263.02 235.918C1262.81 235.804 1262.58 235.687 1262.33 235.569C1260.49 234.707 1258.58 234.265 1257.86 234.265ZM1264.41 236.909C1264.41 236.909 1264.41 236.905 1264.4 236.898L1264.4 236.892L1264.39 236.885C1264.39 236.879 1264.38 236.871 1264.37 236.861C1264.4 236.893 1264.41 236.909 1264.41 236.909ZM1252.74 236C1252.74 233.159 1255.02 230.878 1257.86 230.878C1260.7 230.878 1267.54 233.504 1267.54 236C1267.54 238.109 1260.7 241.121 1257.86 241.121C1255.02 241.121 1252.74 238.84 1252.74 236ZM1327.64 236.417C1327.39 236.301 1327.16 236.186 1326.95 236.072C1327.18 235.946 1327.42 235.817 1327.69 235.687C1328.56 235.258 1329.51 234.884 1330.37 234.623C1331.29 234.345 1331.88 234.265 1332.1 234.265C1333.07 234.265 1333.83 235.03 1333.83 236C1333.83 236.97 1333.07 237.735 1332.1 237.735C1331.38 237.735 1329.48 237.288 1327.64 236.417ZM1325.58 235.115C1325.55 235.081 1325.53 235.064 1325.54 235.064C1325.54 235.064 1325.55 235.081 1325.58 235.115ZM1332.1 230.878C1329.26 230.878 1322.42 233.891 1322.42 236C1322.42 238.453 1329.26 241.121 1332.1 241.121C1334.94 241.121 1337.22 238.84 1337.22 236C1337.22 233.159 1334.94 230.878 1332.1 230.878ZM1271.62 258.808C1269.7 259.495 1268.04 260.521 1267.53 261.033C1266.87 261.69 1266.87 262.817 1267.53 263.474C1268.18 264.126 1269.29 264.131 1269.95 263.488C1270.12 263.311 1270.48 262.829 1270.92 262C1271.34 261.202 1271.75 260.26 1272.06 259.337C1272.15 259.073 1272.23 258.821 1272.3 258.583C1272.08 258.647 1271.86 258.722 1271.62 258.808ZM1274.05 258.283C1274.05 258.285 1274.03 258.284 1273.99 258.276C1274.03 258.277 1274.05 258.282 1274.05 258.283ZM1272.36 265.868C1270.38 267.848 1267.11 267.848 1265.13 265.868C1263.15 263.889 1263.15 260.618 1265.13 258.638C1267.15 256.615 1273.87 253.689 1275.59 255.41C1277.05 256.873 1274.34 263.846 1272.36 265.868ZM1320.03 208.526C1320.69 207.869 1321.82 207.869 1322.47 208.526C1323.11 209.165 1323.15 210.259 1322.46 210.98C1321.93 211.496 1320.29 212.51 1318.38 213.192C1318.14 213.279 1317.91 213.354 1317.7 213.418C1317.77 213.174 1317.85 212.916 1317.94 212.644C1318.25 211.718 1318.66 210.778 1319.08 209.985C1319.53 209.136 1319.89 208.67 1320.03 208.526ZM1314.41 216.59C1316.13 218.311 1322.85 215.385 1324.87 213.362C1326.85 211.339 1326.85 208.111 1324.87 206.132C1322.89 204.152 1319.62 204.152 1317.64 206.132C1315.66 208.111 1312.95 215.127 1314.41 216.59ZM1315.95 213.717C1315.95 213.715 1315.97 213.716 1316.01 213.724C1315.97 213.722 1315.95 213.718 1315.95 213.717ZM1269.97 208.526C1269.31 207.869 1268.18 207.869 1267.53 208.526C1266.87 209.183 1266.87 210.31 1267.53 210.967C1267.67 211.112 1268.14 211.466 1268.98 211.917C1269.78 212.339 1270.72 212.746 1271.64 213.061C1271.91 213.152 1272.17 213.232 1272.41 213.301C1272.35 213.078 1272.27 212.841 1272.18 212.591C1271.48 210.668 1270.46 209.018 1269.97 208.526ZM1272.71 215.048C1272.71 215.046 1272.71 215.024 1272.72 214.986C1272.72 215.03 1272.71 215.049 1272.71 215.048ZM1265.13 206.132C1267.11 204.152 1270.38 204.152 1272.36 206.132C1274.34 208.111 1277.31 214.825 1275.59 216.59C1274.13 218.053 1267.11 215.342 1265.13 213.362C1263.15 211.382 1263.15 208.111 1265.13 206.132ZM1317.81 259.341C1317.72 259.099 1317.65 258.87 1317.58 258.655C1317.83 258.723 1318.08 258.804 1318.36 258.896C1319.28 259.211 1320.22 259.618 1321.02 260.04C1321.84 260.48 1322.31 260.828 1322.46 260.979C1323.15 261.7 1323.11 262.792 1322.47 263.431C1321.82 264.088 1320.69 264.088 1320.03 263.431C1319.52 262.919 1318.5 261.259 1317.81 259.341ZM1314.41 255.367C1315.87 253.904 1322.89 256.615 1324.87 258.595C1326.85 260.618 1326.85 263.845 1324.87 265.825C1322.89 267.805 1319.62 267.805 1317.64 265.825C1315.62 263.802 1312.69 257.089 1314.41 255.367ZM1317.28 256.969C1317.28 256.923 1317.28 256.902 1317.28 256.904C1317.28 256.905 1317.28 256.929 1317.28 256.969Z" fill="#4E931A"/>
<path opacity="0.05" fill-rule="evenodd" clip-rule="evenodd" d="M954.614 614C954.614 659.074 918.074 695.614 873 695.614C827.926 695.614 791.386 659.074 791.386 614C791.386 568.926 827.926 532.386 873 532.386C918.074 532.386 954.614 568.926 954.614 614ZM873 699C919.944 699 958 660.944 958 614C958 567.056 919.944 529 873 529C826.056 529 788 567.056 788 614C788 660.944 826.056 699 873 699ZM945.059 614C945.059 653.797 912.797 686.059 873 686.059C833.203 686.059 800.941 653.797 800.941 614C800.941 574.203 833.203 541.941 873 541.941C912.797 541.941 945.059 574.203 945.059 614ZM873 689.446C914.668 689.446 948.446 655.667 948.446 614C948.446 572.333 914.668 538.554 873 538.554C831.333 538.554 797.554 572.333 797.554 614C797.554 655.667 831.333 689.446 873 689.446ZM873 670.135C904.003 670.135 929.135 645.002 929.135 614C929.135 582.997 904.003 557.865 873 557.865C841.998 557.865 816.865 582.997 816.865 614C816.865 645.002 841.998 670.135 873 670.135ZM932.522 614C932.522 646.873 905.873 673.521 873 673.521C840.127 673.521 813.479 646.873 813.479 614C813.479 581.127 840.127 554.478 873 554.478C905.873 554.478 932.522 581.127 932.522 614ZM892.682 614C892.682 624.87 883.87 633.682 873 633.682C862.13 633.682 853.318 624.87 853.318 614C853.318 603.13 862.13 594.318 873 594.318C883.87 594.318 892.682 603.13 892.682 614ZM873 637.068C885.74 637.068 896.068 626.74 896.068 614C896.068 601.26 885.74 590.932 873 590.932C860.26 590.932 849.932 601.26 849.932 614C849.932 626.74 860.26 637.068 873 637.068ZM872.583 646.679C871.712 648.526 871.265 650.427 871.265 651.142C871.265 652.112 872.03 652.877 873 652.877C873.97 652.877 874.735 652.112 874.735 651.142C874.735 650.912 874.653 650.317 874.373 649.402C874.111 648.542 873.734 647.594 873.302 646.724C873.174 646.466 873.047 646.226 872.923 646.006C872.811 646.212 872.697 646.436 872.583 646.679ZM873.936 644.58C873.936 644.582 873.919 644.597 873.886 644.62C873.919 644.589 873.936 644.578 873.936 644.58ZM867.879 651.142C867.879 648.301 870.547 641.458 873 641.458C875.066 641.458 878.122 648.258 878.122 651.142C878.122 653.982 875.841 656.263 873 656.263C870.16 656.263 867.879 653.982 867.879 651.142ZM871.265 576.858C871.265 575.888 872.03 575.123 873 575.123C873.946 575.123 874.735 575.907 874.735 576.858C874.735 577.574 874.288 579.474 873.418 581.322C873.302 581.568 873.186 581.796 873.073 582.004C872.946 581.779 872.817 581.534 872.687 581.27C872.258 580.398 871.884 579.448 871.623 578.588C871.346 577.672 871.265 577.081 871.265 576.858ZM872.064 583.421C872.064 583.418 872.081 583.403 872.115 583.38C872.081 583.411 872.064 583.423 872.064 583.421ZM873 571.737C870.16 571.737 867.879 574.018 867.879 576.858C867.879 579.699 870.891 586.542 873 586.542C875.453 586.542 878.122 579.699 878.122 576.858C878.122 574.018 875.798 571.737 873 571.737ZM835.859 612.265C834.888 612.265 834.124 613.03 834.124 614C834.124 614.97 834.888 615.735 835.859 615.735C836.081 615.735 836.672 615.654 837.588 615.377C838.448 615.116 839.398 614.742 840.27 614.313C840.541 614.18 840.791 614.048 841.021 613.918C840.81 613.804 840.579 613.687 840.328 613.569C838.489 612.707 836.583 612.265 835.859 612.265ZM842.411 614.909C842.41 614.909 842.406 614.905 842.4 614.898L842.395 614.892L842.39 614.885C842.385 614.879 842.38 614.871 842.373 614.861C842.402 614.893 842.413 614.909 842.411 614.909ZM830.737 614C830.737 611.159 833.018 608.878 835.859 608.878C838.699 608.878 845.542 611.504 845.542 614C845.542 616.109 838.699 619.121 835.859 619.121C833.018 619.121 830.737 616.84 830.737 614ZM905.636 614.417C905.389 614.301 905.162 614.186 904.953 614.072C905.178 613.946 905.424 613.817 905.687 613.687C906.559 613.258 907.51 612.884 908.369 612.623C909.286 612.345 909.877 612.265 910.099 612.265C911.069 612.265 911.834 613.03 911.834 614C911.834 614.97 911.069 615.735 910.099 615.735C909.384 615.735 907.483 615.288 905.636 614.417ZM903.577 613.115C903.546 613.081 903.535 613.064 903.537 613.064C903.539 613.064 903.554 613.081 903.577 613.115ZM910.099 608.878C907.258 608.878 900.415 611.891 900.415 614C900.415 616.453 907.258 619.121 910.099 619.121C912.939 619.121 915.22 616.84 915.22 614C915.22 611.159 912.939 608.878 910.099 608.878ZM849.616 636.808C847.698 637.495 846.038 638.521 845.526 639.033C844.869 639.69 844.869 640.817 845.526 641.474C846.179 642.126 847.295 642.131 847.954 641.488C848.121 641.311 848.476 640.829 848.916 640C849.339 639.202 849.747 638.26 850.062 637.337C850.152 637.073 850.231 636.821 850.298 636.583C850.084 636.647 849.856 636.722 849.616 636.808ZM852.053 636.283C852.052 636.285 852.028 636.284 851.988 636.276C852.035 636.277 852.055 636.282 852.053 636.283ZM850.362 643.868C848.383 645.848 845.112 645.848 843.132 643.868C841.152 641.889 841.152 638.618 843.132 636.638C845.155 634.615 851.869 631.689 853.59 633.41C855.053 634.873 852.342 641.846 850.362 643.868ZM898.033 586.526C898.69 585.869 899.817 585.869 900.474 586.526C901.114 587.165 901.154 588.259 900.461 588.98C899.935 589.496 898.287 590.51 896.384 591.192C896.143 591.279 895.914 591.354 895.698 591.418C895.767 591.174 895.847 590.916 895.94 590.644C896.254 589.718 896.662 588.778 897.083 587.985C897.534 587.136 897.889 586.67 898.033 586.526ZM892.411 594.59C894.132 596.311 900.846 593.385 902.869 591.362C904.849 589.339 904.849 586.111 902.869 584.132C900.889 582.152 897.618 582.152 895.638 584.132C893.659 586.111 890.947 593.127 892.411 594.59ZM893.947 591.717C893.949 591.715 893.972 591.716 894.013 591.724C893.966 591.722 893.946 591.718 893.947 591.717ZM847.968 586.526C847.31 585.869 846.184 585.869 845.526 586.526C844.869 587.183 844.869 588.31 845.526 588.967C845.671 589.112 846.136 589.466 846.985 589.917C847.778 590.339 848.719 590.746 849.644 591.061C849.914 591.152 850.171 591.232 850.414 591.301C850.347 591.078 850.269 590.841 850.179 590.591C849.485 588.668 848.459 587.018 847.968 586.526ZM850.713 593.048C850.711 593.046 850.712 593.024 850.72 592.986C850.718 593.03 850.714 593.049 850.713 593.048ZM843.132 584.132C845.112 582.152 848.383 582.152 850.362 584.132C852.342 586.111 855.312 592.825 853.59 594.59C852.127 596.053 845.112 593.342 843.132 591.362C841.152 589.382 841.152 586.111 843.132 584.132ZM895.808 637.341C895.722 637.099 895.647 636.87 895.582 636.655C895.826 636.723 896.085 636.804 896.356 636.896C897.282 637.211 898.222 637.618 899.016 638.04C899.844 638.48 900.307 638.828 900.463 638.979C901.153 639.7 901.113 640.792 900.474 641.431C899.817 642.088 898.69 642.088 898.033 641.431C897.521 640.919 896.496 639.259 895.808 637.341ZM892.41 633.367C893.874 631.904 900.889 634.615 902.869 636.595C904.848 638.618 904.848 641.845 902.869 643.825C900.889 645.805 897.618 645.805 895.638 643.825C893.615 641.802 890.689 635.089 892.41 633.367ZM895.276 634.969C895.278 634.923 895.282 634.902 895.283 634.904C895.285 634.905 895.284 634.929 895.276 634.969Z" fill="#4E931A"/>
<path opacity="0.1" fill-rule="evenodd" clip-rule="evenodd" d="M1153.23 398.5C1153.23 422.098 1134.1 441.227 1110.5 441.227C1086.9 441.227 1067.77 422.098 1067.77 398.5C1067.77 374.902 1086.9 355.773 1110.5 355.773C1134.1 355.773 1153.23 374.902 1153.23 398.5ZM1110.5 443C1135.08 443 1155 423.077 1155 398.5C1155 373.923 1135.08 354 1110.5 354C1085.92 354 1066 373.923 1066 398.5C1066 423.077 1085.92 443 1110.5 443ZM1148.23 398.5C1148.23 419.335 1131.34 436.225 1110.5 436.225C1089.67 436.225 1072.77 419.335 1072.77 398.5C1072.77 377.665 1089.67 360.775 1110.5 360.775C1131.34 360.775 1148.23 377.665 1148.23 398.5ZM1110.5 437.998C1132.31 437.998 1150 420.314 1150 398.5C1150 376.686 1132.31 359.002 1110.5 359.002C1088.69 359.002 1071 376.686 1071 398.5C1071 420.314 1088.69 437.998 1110.5 437.998ZM1110.5 427.888C1126.73 427.888 1139.89 414.731 1139.89 398.5C1139.89 382.269 1126.73 369.112 1110.5 369.112C1094.27 369.112 1081.11 382.269 1081.11 398.5C1081.11 414.731 1094.27 427.888 1110.5 427.888ZM1141.66 398.5C1141.66 415.71 1127.71 429.661 1110.5 429.661C1093.29 429.661 1079.34 415.71 1079.34 398.5C1079.34 381.29 1093.29 367.339 1110.5 367.339C1127.71 367.339 1141.66 381.29 1141.66 398.5ZM1120.8 398.5C1120.8 404.191 1116.19 408.804 1110.5 408.804C1104.81 408.804 1100.2 404.191 1100.2 398.5C1100.2 392.809 1104.81 388.196 1110.5 388.196C1116.19 388.196 1120.8 392.809 1120.8 398.5ZM1110.5 410.577C1117.17 410.577 1122.58 405.17 1122.58 398.5C1122.58 391.83 1117.17 386.423 1110.5 386.423C1103.83 386.423 1098.42 391.83 1098.42 398.5C1098.42 405.17 1103.83 410.577 1110.5 410.577ZM1110.28 415.608C1109.83 416.575 1109.59 417.57 1109.59 417.945C1109.59 418.453 1109.99 418.853 1110.5 418.853C1111.01 418.853 1111.41 418.453 1111.41 417.945C1111.41 417.824 1111.37 417.513 1111.22 417.034C1111.08 416.584 1110.88 416.087 1110.66 415.632C1110.59 415.497 1110.52 415.371 1110.46 415.256C1110.4 415.364 1110.34 415.481 1110.28 415.608ZM1110.99 414.509C1110.99 414.511 1110.98 414.519 1110.96 414.53C1110.98 414.514 1110.99 414.508 1110.99 414.509ZM1107.82 417.945C1107.82 416.458 1109.22 412.875 1110.5 412.875C1111.58 412.875 1113.18 416.435 1113.18 417.945C1113.18 419.432 1111.99 420.626 1110.5 420.626C1109.01 420.626 1107.82 419.432 1107.82 417.945ZM1109.59 379.055C1109.59 378.547 1109.99 378.147 1110.5 378.147C1111 378.147 1111.41 378.557 1111.41 379.055C1111.41 379.43 1111.17 380.425 1110.72 381.392C1110.66 381.521 1110.6 381.64 1110.54 381.749C1110.47 381.631 1110.4 381.503 1110.34 381.365C1110.11 380.908 1109.92 380.411 1109.78 379.961C1109.63 379.481 1109.59 379.172 1109.59 379.055ZM1110.01 382.491C1110.01 382.49 1110.02 382.482 1110.04 382.47C1110.02 382.486 1110.01 382.492 1110.01 382.491ZM1110.5 376.374C1109.01 376.374 1107.82 377.568 1107.82 379.055C1107.82 380.542 1109.4 384.125 1110.5 384.125C1111.78 384.125 1113.18 380.542 1113.18 379.055C1113.18 377.568 1111.96 376.374 1110.5 376.374ZM1091.06 397.592C1090.55 397.592 1090.15 397.992 1090.15 398.5C1090.15 399.008 1090.55 399.408 1091.06 399.408C1091.17 399.408 1091.48 399.366 1091.96 399.221C1092.41 399.084 1092.91 398.889 1093.36 398.664C1093.51 398.594 1093.64 398.525 1093.76 398.457C1093.65 398.397 1093.53 398.336 1093.4 398.275C1092.43 397.823 1091.43 397.592 1091.06 397.592ZM1094.49 398.976C1094.48 398.976 1094.48 398.968 1094.47 398.951C1094.48 398.968 1094.49 398.976 1094.49 398.976ZM1088.37 398.5C1088.37 397.013 1089.57 395.819 1091.06 395.819C1092.54 395.819 1096.13 397.193 1096.13 398.5C1096.13 399.604 1092.54 401.181 1091.06 401.181C1089.57 401.181 1088.37 399.987 1088.37 398.5ZM1127.59 398.719C1127.46 398.658 1127.34 398.597 1127.23 398.538C1127.35 398.472 1127.47 398.404 1127.61 398.336C1128.07 398.111 1128.57 397.916 1129.02 397.779C1129.5 397.634 1129.81 397.592 1129.92 397.592C1130.43 397.592 1130.83 397.992 1130.83 398.5C1130.83 399.008 1130.43 399.408 1129.92 399.408C1129.55 399.408 1128.55 399.174 1127.59 398.719ZM1126.51 398.036C1126.49 398.019 1126.49 398.01 1126.49 398.01C1126.49 398.01 1126.5 398.019 1126.51 398.036ZM1129.92 395.819C1128.44 395.819 1124.85 397.396 1124.85 398.5C1124.85 399.784 1128.44 401.181 1129.92 401.181C1131.41 401.181 1132.6 399.987 1132.6 398.5C1132.6 397.013 1131.41 395.819 1129.92 395.819ZM1098.26 410.441C1097.25 410.801 1096.38 411.337 1096.12 411.605C1095.77 411.949 1095.77 412.539 1096.12 412.883C1096.46 413.225 1097.04 413.227 1097.39 412.891C1097.48 412.798 1097.66 412.546 1097.89 412.112C1098.11 411.694 1098.33 411.201 1098.49 410.718C1098.54 410.579 1098.58 410.447 1098.62 410.323C1098.5 410.357 1098.38 410.396 1098.26 410.441ZM1099.53 410.166C1099.53 410.167 1099.52 410.166 1099.5 410.162C1099.52 410.163 1099.53 410.165 1099.53 410.166ZM1098.65 414.137C1097.61 415.173 1095.9 415.173 1094.86 414.137C1093.83 413.101 1093.83 411.388 1094.86 410.352C1095.92 409.293 1099.44 407.761 1100.34 408.662C1101.1 409.428 1099.68 413.078 1098.65 414.137ZM1123.61 384.117C1123.95 383.773 1124.54 383.773 1124.88 384.117C1125.22 384.451 1125.24 385.024 1124.88 385.401C1124.6 385.672 1123.74 386.202 1122.74 386.559C1122.62 386.605 1122.5 386.644 1122.38 386.678C1122.42 386.55 1122.46 386.415 1122.51 386.273C1122.67 385.788 1122.89 385.295 1123.11 384.88C1123.34 384.436 1123.53 384.192 1123.61 384.117ZM1120.66 388.338C1121.56 389.239 1125.08 387.707 1126.14 386.648C1127.17 385.589 1127.17 383.899 1126.14 382.863C1125.1 381.827 1123.39 381.827 1122.35 382.863C1121.32 383.899 1119.9 387.572 1120.66 388.338ZM1121.47 386.834C1121.47 386.833 1121.48 386.834 1121.5 386.838C1121.48 386.837 1121.47 386.835 1121.47 386.834ZM1097.39 384.117C1097.05 383.773 1096.46 383.773 1096.12 384.117C1095.77 384.461 1095.77 385.051 1096.12 385.395C1096.19 385.47 1096.44 385.656 1096.88 385.892C1097.3 386.113 1097.79 386.326 1098.27 386.491C1098.41 386.539 1098.55 386.58 1098.68 386.616C1098.64 386.5 1098.6 386.376 1098.55 386.245C1098.19 385.238 1097.65 384.374 1097.39 384.117ZM1098.83 387.531C1098.83 387.53 1098.83 387.519 1098.84 387.499C1098.83 387.522 1098.83 387.532 1098.83 387.531ZM1094.86 382.863C1095.9 381.827 1097.61 381.827 1098.65 382.863C1099.68 383.899 1101.24 387.414 1100.34 388.338C1099.57 389.104 1095.9 387.685 1094.86 386.648C1093.83 385.612 1093.83 383.899 1094.86 382.863ZM1122.44 410.719C1122.4 410.593 1122.36 410.473 1122.32 410.36C1122.45 410.396 1122.59 410.438 1122.73 410.487C1123.21 410.651 1123.7 410.865 1124.12 411.086C1124.55 411.316 1124.8 411.498 1124.88 411.577C1125.24 411.954 1125.22 412.526 1124.88 412.861C1124.54 413.205 1123.95 413.205 1123.61 412.861C1123.34 412.593 1122.8 411.724 1122.44 410.719ZM1120.66 408.639C1121.43 407.873 1125.1 409.293 1126.14 410.329C1127.17 411.388 1127.17 413.078 1126.14 414.114C1125.1 415.151 1123.39 415.151 1122.35 414.114C1121.29 413.055 1119.76 409.54 1120.66 408.639ZM1122.16 409.478C1122.16 409.454 1122.17 409.443 1122.17 409.444C1122.17 409.445 1122.17 409.457 1122.16 409.478Z" fill="#4E931A"/>
<path opacity="0.05" fill-rule="evenodd" clip-rule="evenodd" d="M168.574 148C168.574 193.604 131.604 230.574 86 230.574C40.3958 230.574 3.42629 193.604 3.42629 148C3.42629 102.396 40.3958 65.4263 86 65.4263C131.604 65.4263 168.574 102.396 168.574 148ZM86 234C133.496 234 172 195.496 172 148C172 100.504 133.496 62 86 62C38.5035 62 0 100.504 0 148C0 195.496 38.5035 234 86 234ZM158.907 148C158.907 188.265 126.265 220.907 86.0001 220.907C45.7347 220.907 13.0932 188.265 13.0932 148C13.0932 107.735 45.7347 75.0932 86.0001 75.0932C126.265 75.0932 158.907 107.735 158.907 148ZM86.0001 224.333C128.158 224.333 162.333 190.158 162.333 148C162.333 105.842 128.158 71.6669 86.0001 71.6669C43.8425 71.6669 9.66693 105.842 9.66693 148C9.66693 190.158 43.8425 224.333 86.0001 224.333ZM86.0002 204.795C117.367 204.795 142.796 179.367 142.796 148C142.796 116.633 117.367 91.2044 86.0002 91.2044C54.6329 91.2044 29.2047 116.633 29.2047 148C29.2047 179.367 54.6329 204.795 86.0002 204.795ZM146.222 148C146.222 181.259 119.26 208.222 86.0002 208.222C52.7406 208.222 25.7784 181.259 25.7784 148C25.7784 114.74 52.7406 87.7781 86.0002 87.7781C119.26 87.7781 146.222 114.74 146.222 148ZM105.913 148C105.913 158.998 96.9977 167.913 85.9999 167.913C75.002 167.913 66.0864 158.998 66.0864 148C66.0864 137.002 75.002 128.086 85.9999 128.086C96.9977 128.086 105.913 137.002 105.913 148ZM85.9999 171.34C98.89 171.34 109.34 160.89 109.34 148C109.34 135.11 98.89 124.66 85.9999 124.66C73.1097 124.66 62.6601 135.11 62.6601 148C62.6601 160.89 73.1097 171.34 85.9999 171.34ZM85.5778 181.063C84.6968 182.932 84.2447 184.855 84.2447 185.579C84.2447 186.561 85.0186 187.334 86.0002 187.334C86.9818 187.334 87.7557 186.561 87.7557 185.579C87.7557 185.346 87.6726 184.745 87.3895 183.819C87.1237 182.949 86.7423 181.989 86.3055 181.109C86.1762 180.848 86.0476 180.606 85.9217 180.382C85.8088 180.591 85.6935 180.818 85.5778 181.063ZM86.9473 178.939C86.9473 178.942 86.9302 178.957 86.896 178.98C86.9301 178.949 86.9473 178.937 86.9473 178.939ZM80.8184 185.579C80.8184 182.705 83.5182 175.781 86.0002 175.781C88.0903 175.781 91.182 182.661 91.182 185.579C91.182 188.453 88.8741 190.761 86.0002 190.761C83.1263 190.761 80.8184 188.453 80.8184 185.579ZM84.2447 110.421C84.2447 109.44 85.0186 108.666 86.0002 108.666C86.957 108.666 87.7557 109.459 87.7557 110.421C87.7557 111.145 87.3036 113.068 86.4226 114.937C86.3051 115.186 86.1881 115.417 86.0734 115.627C85.9456 115.4 85.8147 115.152 85.6833 114.885C85.2491 114.003 84.8707 113.041 84.6071 112.171C84.3262 111.244 84.2447 110.646 84.2447 110.421ZM85.0531 117.061C85.0531 117.059 85.0702 117.043 85.1044 117.02C85.0703 117.052 85.0531 117.063 85.0531 117.061ZM86.0002 105.24C83.1263 105.24 80.8184 107.548 80.8184 110.421C80.8184 113.295 83.8665 120.219 86.0002 120.219C88.4822 120.219 91.182 113.295 91.182 110.421C91.182 107.548 88.8306 105.24 86.0002 105.24ZM48.4217 146.244C47.4401 146.244 46.6662 147.018 46.6662 148C46.6662 148.982 47.4401 149.755 48.4217 149.755C48.6466 149.755 49.2444 149.674 50.1715 149.393C51.0415 149.129 52.0028 148.751 52.8851 148.317C53.1586 148.182 53.4123 148.048 53.6443 147.917C53.4312 147.802 53.1974 147.683 52.9439 147.564C51.0827 146.692 49.155 146.244 48.4217 146.244ZM55.0512 148.92C55.0492 148.92 55.0345 148.904 55.013 148.871C55.0424 148.904 55.0532 148.92 55.0512 148.92ZM43.2399 148C43.2399 145.126 45.5478 142.818 48.4217 142.818C51.2956 142.818 58.2192 145.474 58.2192 148C58.2192 150.134 51.2956 153.182 48.4217 153.182C45.5478 153.182 43.2399 150.874 43.2399 148ZM119.02 148.422C118.771 148.305 118.54 148.188 118.329 148.073C118.557 147.945 118.805 147.814 119.072 147.683C119.954 147.249 120.916 146.87 121.786 146.607C122.713 146.326 123.31 146.244 123.535 146.244C124.517 146.244 125.291 147.018 125.291 148C125.291 148.982 124.517 149.755 123.535 149.755C122.812 149.755 120.889 149.303 119.02 148.422ZM116.896 147.053C116.894 147.053 116.905 147.07 116.937 147.104C116.931 147.096 116.926 147.088 116.921 147.082C116.917 147.076 116.913 147.071 116.91 147.067C116.902 147.058 116.897 147.053 116.896 147.053ZM123.535 142.818C120.661 142.818 113.738 145.866 113.738 148C113.738 150.482 120.661 153.182 123.535 153.182C126.409 153.182 128.717 150.874 128.717 148C128.717 145.126 126.409 142.818 123.535 142.818ZM62.3413 171.076C60.4001 171.772 58.7212 172.809 58.2032 173.327C57.5382 173.992 57.5382 175.132 58.2032 175.797C58.8635 176.457 59.9921 176.462 60.659 175.811C60.828 175.633 61.1873 175.145 61.6325 174.306C62.0609 173.498 62.4736 172.546 62.7919 171.612C62.8831 171.344 62.9627 171.089 63.0312 170.849C62.8143 170.914 62.5838 170.989 62.3413 171.076ZM64.8069 170.545C64.806 170.546 64.7981 170.546 64.784 170.545C64.776 170.544 64.766 170.542 64.7542 170.54L64.7406 170.538C64.7879 170.54 64.8084 170.544 64.8069 170.545ZM63.0959 178.22C61.0928 180.223 57.7835 180.223 55.7804 178.22C53.7774 176.217 53.7774 172.907 55.7804 170.904C57.827 168.858 64.6199 165.897 66.3617 167.638C67.8422 169.119 65.0989 176.173 63.0959 178.22ZM111.327 120.203C111.992 119.538 113.132 119.538 113.797 120.203C114.444 120.85 114.485 121.956 113.784 122.686C113.252 123.208 111.585 124.234 109.659 124.924C109.415 125.011 109.183 125.087 108.965 125.152C109.035 124.906 109.116 124.644 109.21 124.369C109.528 123.433 109.94 122.481 110.367 121.679C110.823 120.82 111.182 120.349 111.327 120.203ZM105.639 128.361C107.381 130.103 114.174 127.142 116.22 125.096C118.223 123.049 118.223 119.783 116.22 117.78C114.217 115.777 110.908 115.777 108.905 117.78C106.902 119.783 104.158 126.881 105.639 128.361ZM107.201 125.454C107.197 125.454 107.194 125.454 107.194 125.455C107.192 125.456 107.213 125.46 107.26 125.462C107.231 125.457 107.211 125.454 107.201 125.454ZM60.6731 120.203C60.0081 119.538 58.8682 119.538 58.2032 120.203C57.5382 120.868 57.5382 122.008 58.2032 122.673C58.3491 122.819 58.8202 123.177 59.6788 123.634C60.4813 124.06 61.433 124.472 62.3696 124.791C62.6426 124.884 62.9028 124.965 63.1479 125.034C63.0805 124.808 63.0015 124.568 62.9102 124.316C62.2082 122.37 61.1706 120.7 60.6731 120.203ZM63.4505 126.801C63.449 126.8 63.45 126.778 63.4578 126.739C63.4558 126.783 63.452 126.803 63.4505 126.801ZM55.7804 117.78C57.7835 115.777 61.0928 115.777 63.0959 117.78C65.0989 119.783 68.1035 126.576 66.3617 128.361C64.8812 129.842 57.7835 127.099 55.7804 125.096C53.7774 123.093 53.7774 119.783 55.7804 117.78ZM109.076 171.615C108.989 171.371 108.913 171.139 108.848 170.921C109.094 170.991 109.356 171.072 109.631 171.165C110.567 171.484 111.519 171.896 112.322 172.323C113.159 172.768 113.628 173.12 113.786 173.272C114.485 174.002 114.444 175.107 113.797 175.753C113.132 176.418 111.992 176.418 111.327 175.753C110.809 175.235 109.772 173.556 109.076 171.615ZM105.639 167.595C107.119 166.114 114.217 168.858 116.22 170.861C118.223 172.907 118.223 176.173 116.22 178.176C114.217 180.179 110.908 180.179 108.905 178.176C106.858 176.13 103.897 169.337 105.639 167.595ZM108.538 169.216C108.54 169.169 108.544 169.148 108.545 169.15C108.547 169.151 108.546 169.175 108.538 169.216Z" fill="#4E931A"/>
<g opacity="0.1">
<path d="M1185.5 586C1219.47 586 1247 558.466 1247 524.5C1247 490.534 1219.47 463 1185.5 463C1151.53 463 1124 490.534 1124 524.5C1124 558.466 1151.53 586 1185.5 586Z" fill="#6B5436"/>
<path d="M1185.5 579.087C1215.65 579.087 1240.09 554.648 1240.09 524.5C1240.09 494.352 1215.65 469.913 1185.5 469.913C1155.35 469.913 1130.91 494.352 1130.91 524.5C1130.91 554.648 1155.35 579.087 1185.5 579.087Z" fill="#4E931A"/>
<path d="M1185.5 567.566C1209.28 567.566 1228.57 548.284 1228.57 524.5C1228.57 500.716 1209.28 481.434 1185.5 481.434C1161.72 481.434 1142.43 500.716 1142.43 524.5C1142.43 548.284 1161.72 567.566 1185.5 567.566Z" fill="#77BD41"/>
<path d="M1185.5 541.191C1194.72 541.191 1202.19 533.718 1202.19 524.5C1202.19 515.282 1194.72 507.809 1185.5 507.809C1176.28 507.809 1168.81 515.282 1168.81 524.5C1168.81 533.718 1176.28 541.191 1185.5 541.191Z" fill="#E8D84C"/>
<path d="M1185.5 544.367C1183.73 544.367 1181.79 549.318 1181.79 551.373C1181.79 553.428 1183.44 555.079 1185.5 555.079C1187.56 555.079 1189.21 553.428 1189.21 551.373C1189.21 549.287 1186.99 544.367 1185.5 544.367Z" fill="#6B5436"/>
<path d="M1185.5 493.921C1183.44 493.921 1181.79 495.572 1181.79 497.627C1181.79 499.682 1183.97 504.633 1185.5 504.633C1187.28 504.633 1189.21 499.682 1189.21 497.627C1189.21 495.572 1187.52 493.921 1185.5 493.921Z" fill="#6B5436"/>
<path d="M1158.63 520.794C1156.57 520.794 1154.92 522.445 1154.92 524.5C1154.92 526.555 1156.57 528.206 1158.63 528.206C1160.68 528.206 1165.63 526.026 1165.63 524.5C1165.63 522.694 1160.68 520.794 1158.63 520.794Z" fill="#6B5436"/>
<path d="M1212.34 520.794C1210.29 520.794 1205.34 522.974 1205.34 524.5C1205.34 526.275 1210.29 528.206 1212.34 528.206C1214.4 528.206 1216.05 526.555 1216.05 524.5C1216.05 522.445 1214.4 520.794 1212.34 520.794Z" fill="#6B5436"/>
<path d="M1171.46 538.544C1170.21 537.298 1165.35 539.416 1163.89 540.879C1162.46 542.312 1162.46 544.678 1163.89 546.111C1165.32 547.543 1167.69 547.543 1169.12 546.111C1170.55 544.647 1172.52 539.602 1171.46 538.544Z" fill="#6B5436"/>
<path d="M1207.11 502.889C1205.68 501.457 1203.31 501.457 1201.88 502.889C1200.45 504.322 1198.49 509.397 1199.54 510.456C1200.79 511.702 1205.65 509.584 1207.11 508.121C1208.54 506.657 1208.54 504.322 1207.11 502.889Z" fill="#6B5436"/>
<path d="M1169.12 502.889C1167.69 501.457 1165.32 501.457 1163.89 502.889C1162.46 504.322 1162.46 506.688 1163.89 508.121C1165.32 509.553 1170.4 511.515 1171.46 510.456C1172.7 509.179 1170.55 504.322 1169.12 502.889Z" fill="#6B5436"/>
<path d="M1207.11 540.848C1205.68 539.416 1200.6 537.454 1199.54 538.513C1198.3 539.758 1200.42 544.616 1201.88 546.079C1203.31 547.512 1205.68 547.512 1207.11 546.079C1208.54 544.647 1208.54 542.312 1207.11 540.848Z" fill="#6B5436"/>
</g>
<g opacity="0.1">
<path d="M277.5 402C311.466 402 339 374.466 339 340.5C339 306.534 311.466 279 277.5 279C243.534 279 216 306.534 216 340.5C216 374.466 243.534 402 277.5 402Z" fill="#6B5436"/>
<path d="M277.5 395.087C307.648 395.087 332.087 370.648 332.087 340.5C332.087 310.352 307.648 285.913 277.5 285.913C247.352 285.913 222.913 310.352 222.913 340.5C222.913 370.648 247.352 395.087 277.5 395.087Z" fill="#4E931A"/>
<path d="M277.5 383.566C301.284 383.566 320.566 364.284 320.566 340.5C320.566 316.716 301.284 297.434 277.5 297.434C253.716 297.434 234.434 316.716 234.434 340.5C234.434 364.284 253.716 383.566 277.5 383.566Z" fill="#77BD41"/>
<path d="M277.5 357.191C286.718 357.191 294.191 349.718 294.191 340.5C294.191 331.282 286.718 323.809 277.5 323.809C268.282 323.809 260.809 331.282 260.809 340.5C260.809 349.718 268.282 357.191 277.5 357.191Z" fill="#E8D84C"/>
<path d="M277.5 360.367C275.725 360.367 273.795 365.318 273.795 367.373C273.795 369.428 275.445 371.079 277.5 371.079C279.555 371.079 281.206 369.428 281.206 367.373C281.206 365.287 278.995 360.367 277.5 360.367Z" fill="#6B5436"/>
<path d="M277.5 309.921C275.445 309.921 273.795 311.572 273.795 313.627C273.795 315.682 275.974 320.633 277.5 320.633C279.275 320.633 281.206 315.682 281.206 313.627C281.206 311.572 279.524 309.921 277.5 309.921Z" fill="#6B5436"/>
<path d="M250.627 336.794C248.572 336.794 246.921 338.445 246.921 340.5C246.921 342.555 248.572 344.206 250.627 344.206C252.682 344.206 257.633 342.026 257.633 340.5C257.633 338.694 252.682 336.794 250.627 336.794Z" fill="#6B5436"/>
<path d="M304.342 336.794C302.287 336.794 297.336 338.974 297.336 340.5C297.336 342.275 302.287 344.206 304.342 344.206C306.397 344.206 308.048 342.555 308.048 340.5C308.048 338.445 306.397 336.794 304.342 336.794Z" fill="#6B5436"/>
<path d="M263.456 354.544C262.211 353.298 257.353 355.416 255.889 356.879C254.457 358.312 254.457 360.678 255.889 362.111C257.322 363.543 259.688 363.543 261.121 362.111C262.553 360.647 264.515 355.602 263.456 354.544Z" fill="#6B5436"/>
<path d="M299.111 318.889C297.678 317.457 295.312 317.457 293.879 318.889C292.447 320.322 290.485 325.397 291.544 326.456C292.79 327.702 297.647 325.584 299.111 324.121C300.543 322.657 300.543 320.322 299.111 318.889Z" fill="#6B5436"/>
<path d="M261.121 318.889C259.688 317.457 257.322 317.457 255.889 318.889C254.457 320.322 254.457 322.688 255.889 324.121C257.322 325.553 262.398 327.515 263.456 326.456C264.702 325.179 262.553 320.322 261.121 318.889Z" fill="#6B5436"/>
<path d="M299.111 356.848C297.678 355.416 292.603 353.454 291.544 354.513C290.298 355.758 292.416 360.616 293.879 362.079C295.312 363.512 297.678 363.512 299.111 362.079C300.543 360.647 300.543 358.312 299.111 356.848Z" fill="#6B5436"/>
</g>
</svg>
