<svg width="1662" height="974" viewBox="0 0 1662 974" fill="none" xmlns="http://www.w3.org/2000/svg">
<rect width="1662" height="974" fill="#F9FDF5"/>
<path opacity="0.05" fill-rule="evenodd" clip-rule="evenodd" d="M513.163 723.5C513.163 801.186 450.186 864.163 372.5 864.163C294.814 864.163 231.837 801.186 231.837 723.5C231.837 645.814 294.814 582.837 372.5 582.837C450.186 582.837 513.163 645.814 513.163 723.5ZM372.5 870C453.41 870 519 804.41 519 723.5C519 642.59 453.41 577 372.5 577C291.59 577 226 642.59 226 723.5C226 804.41 291.59 870 372.5 870ZM496.696 723.5C496.696 792.092 441.092 847.696 372.5 847.696C303.909 847.696 248.304 792.092 248.304 723.5C248.304 654.909 303.909 599.304 372.5 599.304C441.092 599.304 496.696 654.909 496.696 723.5ZM372.5 853.533C444.315 853.533 502.533 795.315 502.533 723.5C502.533 651.685 444.315 593.467 372.5 593.467C300.685 593.467 242.467 651.685 242.467 723.5C242.467 795.315 300.685 853.533 372.5 853.533ZM372.5 820.25C425.934 820.25 469.251 776.934 469.251 723.5C469.251 670.066 425.934 626.749 372.5 626.749C319.066 626.749 275.75 670.066 275.75 723.5C275.75 776.934 319.066 820.25 372.5 820.25ZM475.087 723.5C475.087 780.157 429.158 826.087 372.5 826.087C315.843 826.087 269.913 780.157 269.913 723.5C269.913 666.842 315.843 620.913 372.5 620.913C429.158 620.913 475.087 666.842 475.087 723.5ZM406.422 723.5C406.422 742.235 391.235 757.422 372.5 757.422C353.765 757.422 338.577 742.235 338.577 723.5C338.577 704.765 353.765 689.577 372.5 689.577C391.235 689.577 406.422 704.765 406.422 723.5ZM372.5 763.259C394.458 763.259 412.259 745.458 412.259 723.5C412.259 701.542 394.458 683.741 372.5 683.741C350.541 683.741 332.741 701.542 332.741 723.5C332.741 745.458 350.541 763.259 372.5 763.259ZM371.781 779.823C370.28 783.007 369.51 786.283 369.51 787.515C369.51 789.187 370.828 790.506 372.5 790.506C374.173 790.506 375.491 789.187 375.491 787.515C375.491 787.118 375.349 786.094 374.867 784.517C374.414 783.035 373.764 781.4 373.02 779.9C372.8 779.457 372.581 779.043 372.367 778.663C372.174 779.018 371.978 779.405 371.781 779.823ZM374.114 776.205C374.114 776.207 374.108 776.213 374.097 776.222C374.083 776.234 374.059 776.252 374.026 776.274L374.041 776.261L374.055 776.249L374.069 776.237L374.08 776.228L374.089 776.22C374.106 776.208 374.114 776.203 374.114 776.205ZM363.673 787.515C363.673 782.62 368.272 770.825 372.5 770.825C376.061 770.825 381.327 782.545 381.327 787.515C381.327 792.411 377.396 796.342 372.5 796.342C367.605 796.342 363.673 792.411 363.673 787.515ZM369.51 659.485C369.51 657.813 370.828 656.495 372.5 656.495C374.13 656.495 375.491 657.845 375.491 659.485C375.491 660.718 374.721 663.994 373.22 667.178C373.02 667.602 372.82 667.995 372.625 668.354C372.407 667.966 372.184 667.544 371.961 667.089C371.221 665.586 370.576 663.948 370.127 662.466C369.649 660.887 369.51 659.868 369.51 659.485ZM370.887 670.795C370.887 670.792 370.916 670.765 370.974 670.726C370.916 670.78 370.887 670.799 370.887 670.795ZM372.5 650.658C367.605 650.658 363.673 654.59 363.673 659.485C363.673 664.381 368.866 676.175 372.5 676.175C376.728 676.175 381.327 664.381 381.327 659.485C381.327 654.59 377.322 650.658 372.5 650.658ZM308.486 720.509C306.814 720.509 305.495 721.828 305.495 723.5C305.495 725.172 306.814 726.49 308.486 726.49C308.869 726.49 309.887 726.351 311.467 725.873C312.949 725.424 314.586 724.779 316.089 724.04C316.555 723.81 316.987 723.582 317.382 723.359C317.019 723.162 316.621 722.96 316.189 722.758C313.019 721.272 309.735 720.509 308.486 720.509ZM319.779 725.067C319.776 725.067 319.751 725.04 319.714 724.985C319.764 725.039 319.782 725.067 319.779 725.067ZM299.659 723.5C299.659 718.604 303.59 714.673 308.486 714.673C313.382 714.673 325.176 719.198 325.176 723.5C325.176 727.135 313.382 732.327 308.486 732.327C303.59 732.327 299.659 728.396 299.659 723.5ZM428.749 724.219C428.324 724.019 427.932 723.82 427.573 723.625C427.96 723.407 428.383 723.184 428.838 722.96C430.341 722.22 431.978 721.576 433.46 721.127C435.04 720.648 436.058 720.509 436.441 720.509C438.113 720.509 439.432 721.828 439.432 723.5C439.432 725.172 438.113 726.49 436.441 726.49C435.208 726.49 431.933 725.72 428.749 724.219ZM425.2 721.974C425.147 721.916 425.127 721.887 425.131 721.887C425.135 721.887 425.161 721.916 425.2 721.974ZM436.441 714.673C431.545 714.673 419.751 719.865 419.751 723.5C419.751 727.728 431.545 732.327 436.441 732.327C441.337 732.327 445.268 728.396 445.268 723.5C445.268 718.604 441.337 714.673 436.441 714.673ZM332.198 762.81C328.891 763.995 326.031 765.762 325.149 766.644C324.016 767.777 324.016 769.719 325.149 770.852C326.273 771.977 328.196 771.985 329.332 770.876C329.62 770.572 330.232 769.741 330.99 768.311C331.72 766.936 332.423 765.314 332.965 763.722C333.121 763.267 333.256 762.832 333.373 762.423C333.004 762.533 332.611 762.662 332.198 762.81ZM336.398 761.905C336.395 761.908 336.355 761.906 336.285 761.893C336.366 761.896 336.4 761.903 336.398 761.905ZM333.483 774.979C330.071 778.391 324.434 778.391 321.021 774.979C317.609 771.567 317.609 765.929 321.021 762.517C324.508 759.031 336.079 753.987 339.046 756.954C341.568 759.476 336.895 771.493 333.483 774.979ZM415.645 676.148C416.778 675.015 418.72 675.015 419.853 676.148C420.954 677.25 421.023 679.135 419.83 680.377C418.923 681.267 416.083 683.014 412.803 684.19C412.387 684.339 411.992 684.468 411.621 684.579C411.739 684.159 411.878 683.713 412.037 683.246C412.579 681.65 413.282 680.029 414.008 678.662C414.786 677.199 415.396 676.397 415.645 676.148ZM405.955 690.046C408.922 693.013 420.493 687.969 423.98 684.483C427.392 680.996 427.392 675.433 423.98 672.021C420.568 668.609 414.93 668.609 411.518 672.021C408.106 675.433 403.433 687.524 405.955 690.046ZM408.603 685.094C408.606 685.092 408.646 685.093 408.716 685.107C408.636 685.104 408.601 685.097 408.603 685.094ZM329.356 676.148C328.223 675.015 326.281 675.015 325.149 676.148C324.016 677.281 324.016 679.223 325.149 680.356C325.397 680.604 326.2 681.215 327.662 681.992C329.029 682.719 330.651 683.421 332.246 683.963C332.711 684.121 333.154 684.259 333.572 684.378C333.457 683.993 333.322 683.585 333.167 683.154C331.971 679.84 330.203 676.995 329.356 676.148ZM334.087 687.388C334.085 687.386 334.086 687.348 334.1 687.282C334.096 687.358 334.09 687.391 334.087 687.388ZM321.021 672.021C324.434 668.609 330.071 668.609 333.483 672.021C336.895 675.433 342.014 687.005 339.046 690.046C336.524 692.568 324.434 687.895 321.021 684.483C317.609 681.071 317.609 675.433 321.021 672.021ZM411.81 763.728C411.661 763.312 411.532 762.917 411.421 762.546C411.841 762.664 412.287 762.803 412.755 762.962C414.35 763.504 415.972 764.206 417.339 764.933C418.766 765.692 419.564 766.292 419.833 766.551C421.023 767.794 420.953 769.677 419.852 770.777C418.72 771.91 416.778 771.91 415.645 770.777C414.762 769.895 412.996 767.035 411.81 763.728ZM405.954 756.88C408.476 754.358 420.567 759.031 423.979 762.443C427.392 765.929 427.392 771.492 423.979 774.905C420.567 778.317 414.93 778.317 411.518 774.905C408.031 771.418 402.987 759.847 405.954 756.88ZM410.893 759.641C410.896 759.561 410.903 759.526 410.906 759.528C410.909 759.531 410.907 759.571 410.893 759.641Z" fill="#4E931A"/>
<path opacity="0.05" fill-rule="evenodd" clip-rule="evenodd" d="M674.163 254.5C674.163 332.186 611.186 395.163 533.5 395.163C455.814 395.163 392.837 332.186 392.837 254.5C392.837 176.814 455.814 113.837 533.5 113.837C611.186 113.837 674.163 176.814 674.163 254.5ZM533.5 401C614.41 401 680 335.41 680 254.5C680 173.59 614.41 108 533.5 108C452.59 108 387 173.59 387 254.5C387 335.41 452.59 401 533.5 401ZM657.696 254.5C657.696 323.092 602.092 378.696 533.5 378.696C464.909 378.696 409.304 323.092 409.304 254.5C409.304 185.909 464.909 130.304 533.5 130.304C602.092 130.304 657.696 185.909 657.696 254.5ZM533.5 384.533C605.315 384.533 663.533 326.315 663.533 254.5C663.533 182.685 605.315 124.467 533.5 124.467C461.685 124.467 403.467 182.685 403.467 254.5C403.467 326.315 461.685 384.533 533.5 384.533ZM533.5 351.25C586.934 351.25 630.251 307.934 630.251 254.5C630.251 201.066 586.934 157.749 533.5 157.749C480.066 157.749 436.75 201.066 436.75 254.5C436.75 307.934 480.066 351.25 533.5 351.25ZM636.087 254.5C636.087 311.157 590.158 357.087 533.5 357.087C476.843 357.087 430.913 311.157 430.913 254.5C430.913 197.842 476.843 151.913 533.5 151.913C590.158 151.913 636.087 197.842 636.087 254.5ZM567.422 254.5C567.422 273.235 552.235 288.422 533.5 288.422C514.765 288.422 499.577 273.235 499.577 254.5C499.577 235.765 514.765 220.577 533.5 220.577C552.235 220.577 567.422 235.765 567.422 254.5ZM533.5 294.259C555.458 294.259 573.259 276.458 573.259 254.5C573.259 232.542 555.458 214.741 533.5 214.741C511.541 214.741 493.741 232.542 493.741 254.5C493.741 276.458 511.541 294.259 533.5 294.259ZM532.781 310.823C531.28 314.007 530.51 317.283 530.51 318.515C530.51 320.187 531.828 321.506 533.5 321.506C535.173 321.506 536.491 320.187 536.491 318.515C536.491 318.118 536.349 317.094 535.867 315.517C535.414 314.035 534.764 312.4 534.02 310.9C533.8 310.457 533.581 310.043 533.367 309.663C533.174 310.018 532.978 310.405 532.781 310.823ZM535.114 307.205C535.114 307.207 535.108 307.213 535.097 307.222C535.083 307.234 535.059 307.252 535.026 307.274L535.041 307.261L535.055 307.249L535.069 307.237L535.08 307.228L535.089 307.22C535.106 307.208 535.114 307.203 535.114 307.205ZM524.673 318.515C524.673 313.62 529.272 301.825 533.5 301.825C537.061 301.825 542.327 313.545 542.327 318.515C542.327 323.411 538.396 327.342 533.5 327.342C528.605 327.342 524.673 323.411 524.673 318.515ZM530.51 190.485C530.51 188.813 531.828 187.495 533.5 187.495C535.13 187.495 536.491 188.845 536.491 190.485C536.491 191.718 535.721 194.994 534.22 198.178C534.02 198.602 533.82 198.995 533.625 199.354C533.407 198.966 533.184 198.544 532.961 198.089C532.221 196.586 531.576 194.948 531.127 193.466C530.649 191.887 530.51 190.868 530.51 190.485ZM531.887 201.795C531.887 201.792 531.916 201.765 531.974 201.726C531.916 201.78 531.887 201.799 531.887 201.795ZM533.5 181.658C528.605 181.658 524.673 185.59 524.673 190.485C524.673 195.381 529.866 207.175 533.5 207.175C537.728 207.175 542.327 195.381 542.327 190.485C542.327 185.59 538.322 181.658 533.5 181.658ZM469.486 251.509C467.814 251.509 466.495 252.828 466.495 254.5C466.495 256.172 467.814 257.49 469.486 257.49C469.869 257.49 470.887 257.351 472.467 256.873C473.949 256.424 475.586 255.779 477.089 255.04C477.555 254.81 477.987 254.582 478.382 254.359C478.019 254.162 477.621 253.96 477.189 253.758C474.019 252.272 470.735 251.509 469.486 251.509ZM480.779 256.067C480.776 256.067 480.751 256.04 480.714 255.985C480.764 256.039 480.782 256.067 480.779 256.067ZM460.659 254.5C460.659 249.604 464.59 245.673 469.486 245.673C474.382 245.673 486.176 250.198 486.176 254.5C486.176 258.135 474.382 263.327 469.486 263.327C464.59 263.327 460.659 259.396 460.659 254.5ZM589.749 255.219C589.324 255.019 588.932 254.82 588.573 254.625C588.96 254.407 589.383 254.184 589.838 253.96C591.341 253.22 592.978 252.576 594.46 252.127C596.04 251.648 597.058 251.509 597.441 251.509C599.113 251.509 600.432 252.828 600.432 254.5C600.432 256.172 599.113 257.49 597.441 257.49C596.208 257.49 592.933 256.72 589.749 255.219ZM586.2 252.974C586.147 252.916 586.127 252.887 586.131 252.887C586.135 252.887 586.161 252.916 586.2 252.974ZM597.441 245.673C592.545 245.673 580.751 250.865 580.751 254.5C580.751 258.728 592.545 263.327 597.441 263.327C602.337 263.327 606.268 259.396 606.268 254.5C606.268 249.604 602.337 245.673 597.441 245.673ZM493.198 293.81C489.891 294.995 487.031 296.762 486.149 297.644C485.016 298.777 485.016 300.719 486.149 301.852C487.273 302.977 489.196 302.985 490.332 301.876C490.62 301.572 491.232 300.741 491.99 299.311C492.72 297.936 493.423 296.314 493.965 294.722C494.121 294.267 494.256 293.832 494.373 293.423C494.004 293.533 493.611 293.662 493.198 293.81ZM497.398 292.905C497.395 292.908 497.355 292.906 497.285 292.893C497.366 292.896 497.4 292.903 497.398 292.905ZM494.483 305.979C491.071 309.391 485.434 309.391 482.021 305.979C478.609 302.567 478.609 296.929 482.021 293.517C485.508 290.031 497.079 284.987 500.046 287.954C502.568 290.476 497.895 302.493 494.483 305.979ZM576.645 207.148C577.778 206.015 579.72 206.015 580.853 207.148C581.954 208.25 582.023 210.135 580.83 211.377C579.923 212.267 577.083 214.014 573.803 215.19C573.387 215.339 572.992 215.468 572.621 215.579C572.739 215.159 572.878 214.713 573.037 214.246C573.579 212.65 574.282 211.029 575.008 209.662C575.786 208.199 576.396 207.397 576.645 207.148ZM566.955 221.046C569.922 224.013 581.493 218.969 584.98 215.483C588.392 211.996 588.392 206.433 584.98 203.021C581.568 199.609 575.93 199.609 572.518 203.021C569.106 206.433 564.433 218.524 566.955 221.046ZM569.603 216.094C569.606 216.092 569.646 216.093 569.716 216.107C569.636 216.104 569.601 216.097 569.603 216.094ZM490.356 207.148C489.223 206.015 487.281 206.015 486.149 207.148C485.016 208.281 485.016 210.223 486.149 211.356C486.397 211.604 487.2 212.215 488.662 212.992C490.029 213.719 491.651 214.421 493.246 214.963C493.711 215.121 494.154 215.259 494.572 215.378C494.457 214.993 494.322 214.585 494.167 214.154C492.971 210.84 491.203 207.995 490.356 207.148ZM495.087 218.388C495.085 218.386 495.086 218.348 495.1 218.282C495.096 218.358 495.09 218.391 495.087 218.388ZM482.021 203.021C485.434 199.609 491.071 199.609 494.483 203.021C497.895 206.433 503.014 218.005 500.046 221.046C497.524 223.568 485.434 218.895 482.021 215.483C478.609 212.071 478.609 206.433 482.021 203.021ZM572.81 294.728C572.661 294.312 572.532 293.917 572.421 293.546C572.841 293.664 573.287 293.803 573.755 293.962C575.35 294.504 576.972 295.206 578.339 295.933C579.766 296.692 580.564 297.292 580.833 297.551C582.023 298.794 581.953 300.677 580.852 301.777C579.72 302.91 577.778 302.91 576.645 301.777C575.762 300.895 573.996 298.035 572.81 294.728ZM566.954 287.88C569.476 285.358 581.567 290.031 584.979 293.443C588.392 296.929 588.392 302.492 584.979 305.905C581.567 309.317 575.93 309.317 572.518 305.905C569.031 302.418 563.987 290.847 566.954 287.88ZM571.893 290.641C571.896 290.561 571.903 290.526 571.906 290.528C571.909 290.531 571.907 290.571 571.893 290.641Z" fill="#4E931A"/>
<path opacity="0.05" fill-rule="evenodd" clip-rule="evenodd" d="M1143.08 266.5C1143.08 318.733 1100.73 361.076 1048.5 361.076C996.267 361.076 953.924 318.733 953.924 266.5C953.924 214.267 996.267 171.924 1048.5 171.924C1100.73 171.924 1143.08 214.267 1143.08 266.5ZM1048.5 365C1102.9 365 1147 320.9 1147 266.5C1147 212.1 1102.9 168 1048.5 168C994.1 168 950 212.1 950 266.5C950 320.9 994.1 365 1048.5 365ZM1132 266.5C1132 312.618 1094.62 350.004 1048.5 350.004C1002.38 350.004 964.996 312.618 964.996 266.5C964.996 220.382 1002.38 182.996 1048.5 182.996C1094.62 182.996 1132 220.382 1132 266.5ZM1048.5 353.928C1096.79 353.928 1135.93 314.785 1135.93 266.5C1135.93 218.215 1096.79 179.072 1048.5 179.072C1000.21 179.072 961.072 218.215 961.072 266.5C961.072 314.785 1000.21 353.928 1048.5 353.928ZM1048.5 331.55C1084.43 331.55 1113.55 302.426 1113.55 266.5C1113.55 230.573 1084.43 201.449 1048.5 201.449C1012.57 201.449 983.45 230.573 983.45 266.5C983.45 302.426 1012.57 331.55 1048.5 331.55ZM1117.48 266.5C1117.48 304.594 1086.59 335.475 1048.5 335.475C1010.41 335.475 979.525 304.594 979.525 266.5C979.525 228.406 1010.41 197.525 1048.5 197.525C1086.59 197.525 1117.48 228.406 1117.48 266.5ZM1071.31 266.5C1071.31 279.096 1061.1 289.308 1048.5 289.308C1035.9 289.308 1025.69 279.096 1025.69 266.5C1025.69 253.903 1035.9 243.692 1048.5 243.692C1061.1 243.692 1071.31 253.903 1071.31 266.5ZM1048.5 293.232C1063.26 293.232 1075.23 281.264 1075.23 266.5C1075.23 251.736 1063.26 239.768 1048.5 239.768C1033.74 239.768 1021.77 251.736 1021.77 266.5C1021.77 281.264 1033.74 293.232 1048.5 293.232ZM1048.02 304.369C1047.01 306.51 1046.49 308.712 1046.49 309.541C1046.49 310.665 1047.38 311.552 1048.5 311.552C1049.62 311.552 1050.51 310.665 1050.51 309.541C1050.51 309.274 1050.42 308.585 1050.09 307.525C1049.79 306.528 1049.35 305.429 1048.85 304.421C1048.7 304.123 1048.55 303.845 1048.41 303.589C1048.28 303.828 1048.15 304.088 1048.02 304.369ZM1049.58 301.937C1049.59 301.939 1049.57 301.957 1049.53 301.983C1049.57 301.947 1049.58 301.934 1049.58 301.937ZM1042.57 309.541C1042.57 306.249 1045.66 298.319 1048.5 298.319C1050.89 298.319 1054.44 306.199 1054.44 309.541C1054.44 312.833 1051.79 315.476 1048.5 315.476C1045.21 315.476 1042.57 312.833 1042.57 309.541ZM1046.49 223.459C1046.49 222.335 1047.38 221.449 1048.5 221.449C1049.6 221.449 1050.51 222.357 1050.51 223.459C1050.51 224.288 1049.99 226.491 1048.98 228.631C1048.85 228.917 1048.72 229.181 1048.58 229.422C1048.44 229.162 1048.29 228.877 1048.14 228.572C1047.64 227.561 1047.21 226.46 1046.9 225.464C1046.58 224.402 1046.49 223.717 1046.49 223.459ZM1047.42 231.064C1047.42 231.061 1047.44 231.043 1047.47 231.017C1047.44 231.053 1047.42 231.066 1047.42 231.064ZM1048.5 217.525C1045.21 217.525 1042.57 220.168 1042.57 223.459C1042.57 226.751 1046.06 234.681 1048.5 234.681C1051.34 234.681 1054.44 226.751 1054.44 223.459C1054.44 220.168 1051.74 217.525 1048.5 217.525ZM1005.46 264.489C1004.34 264.489 1003.45 265.376 1003.45 266.5C1003.45 267.624 1004.34 268.511 1005.46 268.511C1005.72 268.511 1006.4 268.417 1007.46 268.095C1008.46 267.794 1009.56 267.36 1010.57 266.863C1010.89 266.709 1011.18 266.555 1011.44 266.405C1011.2 266.273 1010.93 266.137 1010.64 266.001C1008.51 265.002 1006.3 264.489 1005.46 264.489ZM1013.05 267.554C1013.05 267.554 1013.03 267.535 1013.01 267.498C1013.04 267.535 1013.06 267.554 1013.05 267.554ZM999.525 266.5C999.525 263.208 1002.17 260.565 1005.46 260.565C1008.75 260.565 1016.68 263.607 1016.68 266.5C1016.68 268.944 1008.75 272.435 1005.46 272.435C1002.17 272.435 999.525 269.792 999.525 266.5ZM1086.32 266.984C1086.03 266.849 1085.77 266.715 1085.53 266.584C1085.79 266.437 1086.07 266.288 1086.38 266.137C1087.39 265.64 1088.49 265.206 1089.49 264.904C1090.55 264.583 1091.23 264.489 1091.49 264.489C1092.62 264.489 1093.5 265.376 1093.5 266.5C1093.5 267.624 1092.62 268.511 1091.49 268.511C1090.66 268.511 1088.46 267.993 1086.32 266.984ZM1083.93 265.474C1083.9 265.435 1083.88 265.415 1083.89 265.415C1083.89 265.415 1083.91 265.435 1083.93 265.474ZM1091.49 260.565C1088.2 260.565 1080.27 264.056 1080.27 266.5C1080.27 269.343 1088.2 272.435 1091.49 272.435C1094.78 272.435 1097.43 269.792 1097.43 266.5C1097.43 263.208 1094.78 260.565 1091.49 260.565ZM1021.4 292.93C1019.18 293.727 1017.26 294.915 1016.66 295.508C1015.9 296.27 1015.9 297.576 1016.66 298.337C1017.42 299.094 1018.71 299.099 1019.48 298.353C1019.67 298.149 1020.08 297.591 1020.59 296.629C1021.08 295.704 1021.55 294.614 1021.92 293.544C1022.02 293.237 1022.11 292.945 1022.19 292.67C1021.94 292.744 1021.68 292.831 1021.4 292.93ZM1024.23 292.322C1024.22 292.324 1024.2 292.323 1024.15 292.313C1024.2 292.316 1024.23 292.32 1024.23 292.322ZM1022.27 301.112C1019.97 303.406 1016.18 303.406 1013.89 301.112C1011.59 298.818 1011.59 295.028 1013.89 292.733C1016.23 290.389 1024.01 286.998 1026.01 288.993C1027.7 290.689 1024.56 298.768 1022.27 301.112ZM1077.51 234.663C1078.27 233.901 1079.58 233.901 1080.34 234.663C1081.08 235.404 1081.12 236.671 1080.32 237.506C1079.71 238.104 1077.8 239.279 1075.6 240.07C1075.32 240.17 1075.05 240.257 1074.8 240.331C1074.88 240.049 1074.98 239.749 1075.08 239.435C1075.45 238.362 1075.92 237.272 1076.41 236.353C1076.93 235.369 1077.34 234.83 1077.51 234.663ZM1070.99 244.007C1072.99 246.002 1080.77 242.611 1083.11 240.267C1085.41 237.922 1085.41 234.182 1083.11 231.888C1080.82 229.594 1077.03 229.594 1074.73 231.888C1072.44 234.182 1069.3 242.311 1070.99 244.007ZM1072.77 240.678C1072.78 240.676 1072.8 240.677 1072.85 240.686C1072.8 240.684 1072.77 240.68 1072.77 240.678ZM1019.49 234.663C1018.73 233.901 1017.42 233.901 1016.66 234.663C1015.9 235.424 1015.9 236.73 1016.66 237.492C1016.83 237.659 1017.37 238.069 1018.35 238.592C1019.27 239.081 1020.36 239.553 1021.44 239.917C1021.75 240.024 1022.05 240.116 1022.33 240.196C1022.25 239.938 1022.16 239.663 1022.05 239.373C1021.25 237.145 1020.06 235.232 1019.49 234.663ZM1022.67 242.22C1022.67 242.219 1022.67 242.193 1022.68 242.148C1022.68 242.2 1022.67 242.222 1022.67 242.22ZM1013.89 231.888C1016.18 229.594 1019.97 229.594 1022.27 231.888C1024.56 234.182 1028 241.962 1026.01 244.007C1024.31 245.703 1016.18 242.561 1013.89 240.267C1011.59 237.972 1011.59 234.182 1013.89 231.888ZM1074.93 293.548C1074.83 293.268 1074.74 293.002 1074.67 292.753C1074.95 292.832 1075.25 292.926 1075.57 293.033C1076.64 293.397 1077.73 293.869 1078.65 294.358C1079.61 294.868 1080.14 295.271 1080.32 295.446C1081.12 296.281 1081.08 297.547 1080.34 298.287C1079.58 299.049 1078.27 299.049 1077.51 298.287C1076.92 297.694 1075.73 295.771 1074.93 293.548ZM1070.99 288.943C1072.69 287.247 1080.82 290.389 1083.11 292.683C1085.41 295.027 1085.41 298.768 1083.11 301.062C1080.82 303.356 1077.03 303.356 1074.73 301.062C1072.39 298.718 1069 290.938 1070.99 288.943ZM1074.31 290.8C1074.32 290.745 1074.32 290.722 1074.32 290.724C1074.32 290.726 1074.32 290.753 1074.31 290.8Z" fill="#4E931A"/>
<path opacity="0.05" fill-rule="evenodd" clip-rule="evenodd" d="M1486.61 344C1486.61 389.074 1450.07 425.614 1405 425.614C1359.93 425.614 1323.39 389.074 1323.39 344C1323.39 298.926 1359.93 262.386 1405 262.386C1450.07 262.386 1486.61 298.926 1486.61 344ZM1405 429C1451.94 429 1490 390.944 1490 344C1490 297.056 1451.94 259 1405 259C1358.06 259 1320 297.056 1320 344C1320 390.944 1358.06 429 1405 429ZM1477.06 344C1477.06 383.797 1444.8 416.059 1405 416.059C1365.2 416.059 1332.94 383.797 1332.94 344C1332.94 304.203 1365.2 271.941 1405 271.941C1444.8 271.941 1477.06 304.203 1477.06 344ZM1405 419.446C1446.67 419.446 1480.45 385.667 1480.45 344C1480.45 302.333 1446.67 268.554 1405 268.554C1363.33 268.554 1329.55 302.333 1329.55 344C1329.55 385.667 1363.33 419.446 1405 419.446ZM1405 400.135C1436 400.135 1461.14 375.002 1461.14 344C1461.14 312.997 1436 287.865 1405 287.865C1374 287.865 1348.87 312.997 1348.87 344C1348.87 375.002 1374 400.135 1405 400.135ZM1464.52 344C1464.52 376.873 1437.87 403.521 1405 403.521C1372.13 403.521 1345.48 376.873 1345.48 344C1345.48 311.127 1372.13 284.478 1405 284.478C1437.87 284.478 1464.52 311.127 1464.52 344ZM1424.68 344C1424.68 354.87 1415.87 363.682 1405 363.682C1394.13 363.682 1385.32 354.87 1385.32 344C1385.32 333.13 1394.13 324.318 1405 324.318C1415.87 324.318 1424.68 333.13 1424.68 344ZM1405 367.068C1417.74 367.068 1428.07 356.74 1428.07 344C1428.07 331.26 1417.74 320.932 1405 320.932C1392.26 320.932 1381.93 331.26 1381.93 344C1381.93 356.74 1392.26 367.068 1405 367.068ZM1404.58 376.679C1403.71 378.526 1403.27 380.427 1403.27 381.142C1403.27 382.112 1404.03 382.877 1405 382.877C1405.97 382.877 1406.74 382.112 1406.74 381.142C1406.74 380.912 1406.65 380.317 1406.37 379.402C1406.11 378.542 1405.73 377.594 1405.3 376.724C1405.17 376.466 1405.05 376.226 1404.92 376.006C1404.81 376.212 1404.7 376.436 1404.58 376.679ZM1405.94 374.58C1405.94 374.582 1405.92 374.597 1405.89 374.62C1405.92 374.589 1405.94 374.578 1405.94 374.58ZM1399.88 381.142C1399.88 378.301 1402.55 371.458 1405 371.458C1407.07 371.458 1410.12 378.258 1410.12 381.142C1410.12 383.982 1407.84 386.263 1405 386.263C1402.16 386.263 1399.88 383.982 1399.88 381.142ZM1403.27 306.858C1403.27 305.888 1404.03 305.123 1405 305.123C1405.95 305.123 1406.74 305.907 1406.74 306.858C1406.74 307.574 1406.29 309.474 1405.42 311.322C1405.3 311.568 1405.19 311.796 1405.07 312.004C1404.95 311.779 1404.82 311.534 1404.69 311.27C1404.26 310.398 1403.88 309.448 1403.62 308.588C1403.35 307.672 1403.27 307.081 1403.27 306.858ZM1404.06 313.421C1404.06 313.418 1404.08 313.403 1404.11 313.38C1404.08 313.411 1404.06 313.423 1404.06 313.421ZM1405 301.737C1402.16 301.737 1399.88 304.018 1399.88 306.858C1399.88 309.699 1402.89 316.542 1405 316.542C1407.45 316.542 1410.12 309.699 1410.12 306.858C1410.12 304.018 1407.8 301.737 1405 301.737ZM1367.86 342.265C1366.89 342.265 1366.12 343.03 1366.12 344C1366.12 344.97 1366.89 345.735 1367.86 345.735C1368.08 345.735 1368.67 345.654 1369.59 345.377C1370.45 345.116 1371.4 344.742 1372.27 344.313C1372.54 344.18 1372.79 344.048 1373.02 343.918C1372.81 343.804 1372.58 343.687 1372.33 343.569C1370.49 342.707 1368.58 342.265 1367.86 342.265ZM1374.41 344.909C1374.41 344.909 1374.41 344.905 1374.4 344.898L1374.4 344.892L1374.39 344.885C1374.39 344.879 1374.38 344.871 1374.37 344.861C1374.4 344.893 1374.41 344.909 1374.41 344.909ZM1362.74 344C1362.74 341.159 1365.02 338.878 1367.86 338.878C1370.7 338.878 1377.54 341.504 1377.54 344C1377.54 346.109 1370.7 349.121 1367.86 349.121C1365.02 349.121 1362.74 346.84 1362.74 344ZM1437.64 344.417C1437.39 344.301 1437.16 344.186 1436.95 344.072C1437.18 343.946 1437.42 343.817 1437.69 343.687C1438.56 343.258 1439.51 342.884 1440.37 342.623C1441.29 342.345 1441.88 342.265 1442.1 342.265C1443.07 342.265 1443.83 343.03 1443.83 344C1443.83 344.97 1443.07 345.735 1442.1 345.735C1441.38 345.735 1439.48 345.288 1437.64 344.417ZM1435.58 343.115C1435.55 343.081 1435.53 343.064 1435.54 343.064C1435.54 343.064 1435.55 343.081 1435.58 343.115ZM1442.1 338.878C1439.26 338.878 1432.42 341.891 1432.42 344C1432.42 346.453 1439.26 349.121 1442.1 349.121C1444.94 349.121 1447.22 346.84 1447.22 344C1447.22 341.159 1444.94 338.878 1442.1 338.878ZM1381.62 366.808C1379.7 367.495 1378.04 368.521 1377.53 369.033C1376.87 369.69 1376.87 370.817 1377.53 371.474C1378.18 372.126 1379.29 372.131 1379.95 371.488C1380.12 371.311 1380.48 370.829 1380.92 370C1381.34 369.202 1381.75 368.26 1382.06 367.337C1382.15 367.073 1382.23 366.821 1382.3 366.583C1382.08 366.647 1381.86 366.722 1381.62 366.808ZM1384.05 366.283C1384.05 366.285 1384.03 366.284 1383.99 366.276C1384.03 366.277 1384.05 366.282 1384.05 366.283ZM1382.36 373.868C1380.38 375.848 1377.11 375.848 1375.13 373.868C1373.15 371.889 1373.15 368.618 1375.13 366.638C1377.15 364.615 1383.87 361.689 1385.59 363.41C1387.05 364.873 1384.34 371.846 1382.36 373.868ZM1430.03 316.526C1430.69 315.869 1431.82 315.869 1432.47 316.526C1433.11 317.165 1433.15 318.259 1432.46 318.98C1431.93 319.496 1430.29 320.51 1428.38 321.192C1428.14 321.279 1427.91 321.354 1427.7 321.418C1427.77 321.174 1427.85 320.916 1427.94 320.644C1428.25 319.718 1428.66 318.778 1429.08 317.985C1429.53 317.136 1429.89 316.67 1430.03 316.526ZM1424.41 324.59C1426.13 326.311 1432.85 323.385 1434.87 321.362C1436.85 319.339 1436.85 316.111 1434.87 314.132C1432.89 312.152 1429.62 312.152 1427.64 314.132C1425.66 316.111 1422.95 323.127 1424.41 324.59ZM1425.95 321.717C1425.95 321.715 1425.97 321.716 1426.01 321.724C1425.97 321.722 1425.95 321.718 1425.95 321.717ZM1379.97 316.526C1379.31 315.869 1378.18 315.869 1377.53 316.526C1376.87 317.183 1376.87 318.31 1377.53 318.967C1377.67 319.112 1378.14 319.466 1378.98 319.917C1379.78 320.339 1380.72 320.746 1381.64 321.061C1381.91 321.152 1382.17 321.232 1382.41 321.301C1382.35 321.078 1382.27 320.841 1382.18 320.591C1381.48 318.668 1380.46 317.018 1379.97 316.526ZM1382.71 323.048C1382.71 323.046 1382.71 323.024 1382.72 322.986C1382.72 323.03 1382.71 323.049 1382.71 323.048ZM1375.13 314.132C1377.11 312.152 1380.38 312.152 1382.36 314.132C1384.34 316.111 1387.31 322.825 1385.59 324.59C1384.13 326.053 1377.11 323.342 1375.13 321.362C1373.15 319.382 1373.15 316.111 1375.13 314.132ZM1427.81 367.341C1427.72 367.099 1427.65 366.87 1427.58 366.655C1427.83 366.723 1428.08 366.804 1428.36 366.896C1429.28 367.211 1430.22 367.618 1431.02 368.04C1431.84 368.48 1432.31 368.828 1432.46 368.979C1433.15 369.7 1433.11 370.792 1432.47 371.431C1431.82 372.088 1430.69 372.088 1430.03 371.431C1429.52 370.919 1428.5 369.259 1427.81 367.341ZM1424.41 363.367C1425.87 361.904 1432.89 364.615 1434.87 366.595C1436.85 368.618 1436.85 371.845 1434.87 373.825C1432.89 375.805 1429.62 375.805 1427.64 373.825C1425.62 371.802 1422.69 365.089 1424.41 363.367ZM1427.28 364.969C1427.28 364.923 1427.28 364.902 1427.28 364.904C1427.28 364.905 1427.28 364.929 1427.28 364.969Z" fill="#4E931A"/>
<path opacity="0.05" fill-rule="evenodd" clip-rule="evenodd" d="M1064.61 722C1064.61 767.074 1028.07 803.614 983 803.614C937.926 803.614 901.386 767.074 901.386 722C901.386 676.926 937.926 640.386 983 640.386C1028.07 640.386 1064.61 676.926 1064.61 722ZM983 807C1029.94 807 1068 768.944 1068 722C1068 675.056 1029.94 637 983 637C936.056 637 898 675.056 898 722C898 768.944 936.056 807 983 807ZM1055.06 722C1055.06 761.797 1022.8 794.059 983 794.059C943.203 794.059 910.941 761.797 910.941 722C910.941 682.203 943.203 649.941 983 649.941C1022.8 649.941 1055.06 682.203 1055.06 722ZM983 797.446C1024.67 797.446 1058.45 763.667 1058.45 722C1058.45 680.333 1024.67 646.554 983 646.554C941.333 646.554 907.554 680.333 907.554 722C907.554 763.667 941.333 797.446 983 797.446ZM983 778.135C1014 778.135 1039.14 753.002 1039.14 722C1039.14 690.997 1014 665.865 983 665.865C951.998 665.865 926.865 690.997 926.865 722C926.865 753.002 951.998 778.135 983 778.135ZM1042.52 722C1042.52 754.873 1015.87 781.521 983 781.521C950.127 781.521 923.479 754.873 923.479 722C923.479 689.127 950.127 662.478 983 662.478C1015.87 662.478 1042.52 689.127 1042.52 722ZM1002.68 722C1002.68 732.87 993.87 741.682 983 741.682C972.13 741.682 963.318 732.87 963.318 722C963.318 711.13 972.13 702.318 983 702.318C993.87 702.318 1002.68 711.13 1002.68 722ZM983 745.068C995.74 745.068 1006.07 734.74 1006.07 722C1006.07 709.26 995.74 698.932 983 698.932C970.26 698.932 959.932 709.26 959.932 722C959.932 734.74 970.26 745.068 983 745.068ZM982.583 754.679C981.712 756.526 981.265 758.427 981.265 759.142C981.265 760.112 982.03 760.877 983 760.877C983.97 760.877 984.735 760.112 984.735 759.142C984.735 758.912 984.653 758.317 984.373 757.402C984.111 756.542 983.734 755.594 983.302 754.724C983.174 754.466 983.047 754.226 982.923 754.006C982.811 754.212 982.697 754.436 982.583 754.679ZM983.936 752.58C983.936 752.582 983.919 752.597 983.886 752.62C983.919 752.589 983.936 752.578 983.936 752.58ZM977.879 759.142C977.879 756.301 980.547 749.458 983 749.458C985.066 749.458 988.122 756.258 988.122 759.142C988.122 761.982 985.841 764.263 983 764.263C980.16 764.263 977.879 761.982 977.879 759.142ZM981.265 684.858C981.265 683.888 982.03 683.123 983 683.123C983.946 683.123 984.735 683.907 984.735 684.858C984.735 685.574 984.288 687.474 983.418 689.322C983.302 689.568 983.186 689.796 983.073 690.004C982.946 689.779 982.817 689.534 982.687 689.27C982.258 688.398 981.884 687.448 981.623 686.588C981.346 685.672 981.265 685.081 981.265 684.858ZM982.064 691.421C982.064 691.418 982.081 691.403 982.115 691.38C982.081 691.411 982.064 691.423 982.064 691.421ZM983 679.737C980.16 679.737 977.879 682.018 977.879 684.858C977.879 687.699 980.891 694.542 983 694.542C985.453 694.542 988.122 687.699 988.122 684.858C988.122 682.018 985.798 679.737 983 679.737ZM945.859 720.265C944.888 720.265 944.124 721.03 944.124 722C944.124 722.97 944.888 723.735 945.859 723.735C946.081 723.735 946.672 723.654 947.588 723.377C948.448 723.116 949.398 722.742 950.27 722.313C950.541 722.18 950.791 722.048 951.021 721.918C950.81 721.804 950.579 721.687 950.328 721.569C948.489 720.707 946.583 720.265 945.859 720.265ZM952.411 722.909C952.41 722.909 952.406 722.905 952.4 722.898L952.395 722.892L952.39 722.885C952.385 722.879 952.38 722.871 952.373 722.861C952.402 722.893 952.413 722.909 952.411 722.909ZM940.737 722C940.737 719.159 943.018 716.878 945.859 716.878C948.699 716.878 955.542 719.504 955.542 722C955.542 724.109 948.699 727.121 945.859 727.121C943.018 727.121 940.737 724.84 940.737 722ZM1015.64 722.417C1015.39 722.301 1015.16 722.186 1014.95 722.072C1015.18 721.946 1015.42 721.817 1015.69 721.687C1016.56 721.258 1017.51 720.884 1018.37 720.623C1019.29 720.345 1019.88 720.265 1020.1 720.265C1021.07 720.265 1021.83 721.03 1021.83 722C1021.83 722.97 1021.07 723.735 1020.1 723.735C1019.38 723.735 1017.48 723.288 1015.64 722.417ZM1013.58 721.115C1013.55 721.081 1013.53 721.064 1013.54 721.064C1013.54 721.064 1013.55 721.081 1013.58 721.115ZM1020.1 716.878C1017.26 716.878 1010.42 719.891 1010.42 722C1010.42 724.453 1017.26 727.121 1020.1 727.121C1022.94 727.121 1025.22 724.84 1025.22 722C1025.22 719.159 1022.94 716.878 1020.1 716.878ZM959.616 744.808C957.698 745.495 956.038 746.521 955.526 747.033C954.869 747.69 954.869 748.817 955.526 749.474C956.179 750.126 957.295 750.131 957.954 749.488C958.121 749.311 958.476 748.829 958.916 748C959.339 747.202 959.747 746.26 960.062 745.337C960.152 745.073 960.231 744.821 960.298 744.583C960.084 744.647 959.856 744.722 959.616 744.808ZM962.053 744.283C962.052 744.285 962.028 744.284 961.988 744.276C962.035 744.277 962.055 744.282 962.053 744.283ZM960.362 751.868C958.383 753.848 955.112 753.848 953.132 751.868C951.152 749.889 951.152 746.618 953.132 744.638C955.155 742.615 961.869 739.689 963.59 741.41C965.053 742.873 962.342 749.846 960.362 751.868ZM1008.03 694.526C1008.69 693.869 1009.82 693.869 1010.47 694.526C1011.11 695.165 1011.15 696.259 1010.46 696.98C1009.93 697.496 1008.29 698.51 1006.38 699.192C1006.14 699.279 1005.91 699.354 1005.7 699.418C1005.77 699.174 1005.85 698.916 1005.94 698.644C1006.25 697.718 1006.66 696.778 1007.08 695.985C1007.53 695.136 1007.89 694.67 1008.03 694.526ZM1002.41 702.59C1004.13 704.311 1010.85 701.385 1012.87 699.362C1014.85 697.339 1014.85 694.111 1012.87 692.132C1010.89 690.152 1007.62 690.152 1005.64 692.132C1003.66 694.111 1000.95 701.127 1002.41 702.59ZM1003.95 699.717C1003.95 699.715 1003.97 699.716 1004.01 699.724C1003.97 699.722 1003.95 699.718 1003.95 699.717ZM957.968 694.526C957.31 693.869 956.184 693.869 955.526 694.526C954.869 695.183 954.869 696.31 955.526 696.967C955.671 697.112 956.136 697.466 956.985 697.917C957.778 698.339 958.719 698.746 959.644 699.061C959.914 699.152 960.171 699.232 960.414 699.301C960.347 699.078 960.269 698.841 960.179 698.591C959.485 696.668 958.459 695.018 957.968 694.526ZM960.713 701.048C960.711 701.046 960.712 701.024 960.72 700.986C960.718 701.03 960.714 701.049 960.713 701.048ZM953.132 692.132C955.112 690.152 958.383 690.152 960.362 692.132C962.342 694.111 965.312 700.825 963.59 702.59C962.127 704.053 955.112 701.342 953.132 699.362C951.152 697.382 951.152 694.111 953.132 692.132ZM1005.81 745.341C1005.72 745.099 1005.65 744.87 1005.58 744.655C1005.83 744.723 1006.08 744.804 1006.36 744.896C1007.28 745.211 1008.22 745.618 1009.02 746.04C1009.84 746.48 1010.31 746.828 1010.46 746.979C1011.15 747.7 1011.11 748.792 1010.47 749.431C1009.82 750.088 1008.69 750.088 1008.03 749.431C1007.52 748.919 1006.5 747.259 1005.81 745.341ZM1002.41 741.367C1003.87 739.904 1010.89 742.615 1012.87 744.595C1014.85 746.618 1014.85 749.845 1012.87 751.825C1010.89 753.805 1007.62 753.805 1005.64 751.825C1003.62 749.802 1000.69 743.089 1002.41 741.367ZM1005.28 742.969C1005.28 742.923 1005.28 742.902 1005.28 742.904C1005.28 742.905 1005.28 742.929 1005.28 742.969Z" fill="#4E931A"/>
<path opacity="0.1" fill-rule="evenodd" clip-rule="evenodd" d="M1263.23 506.5C1263.23 530.098 1244.1 549.227 1220.5 549.227C1196.9 549.227 1177.77 530.098 1177.77 506.5C1177.77 482.902 1196.9 463.773 1220.5 463.773C1244.1 463.773 1263.23 482.902 1263.23 506.5ZM1220.5 551C1245.08 551 1265 531.077 1265 506.5C1265 481.923 1245.08 462 1220.5 462C1195.92 462 1176 481.923 1176 506.5C1176 531.077 1195.92 551 1220.5 551ZM1258.23 506.5C1258.23 527.335 1241.34 544.225 1220.5 544.225C1199.67 544.225 1182.77 527.335 1182.77 506.5C1182.77 485.665 1199.67 468.775 1220.5 468.775C1241.34 468.775 1258.23 485.665 1258.23 506.5ZM1220.5 545.998C1242.31 545.998 1260 528.314 1260 506.5C1260 484.686 1242.31 467.002 1220.5 467.002C1198.69 467.002 1181 484.686 1181 506.5C1181 528.314 1198.69 545.998 1220.5 545.998ZM1220.5 535.888C1236.73 535.888 1249.89 522.731 1249.89 506.5C1249.89 490.269 1236.73 477.112 1220.5 477.112C1204.27 477.112 1191.11 490.269 1191.11 506.5C1191.11 522.731 1204.27 535.888 1220.5 535.888ZM1251.66 506.5C1251.66 523.71 1237.71 537.661 1220.5 537.661C1203.29 537.661 1189.34 523.71 1189.34 506.5C1189.34 489.29 1203.29 475.339 1220.5 475.339C1237.71 475.339 1251.66 489.29 1251.66 506.5ZM1230.8 506.5C1230.8 512.191 1226.19 516.804 1220.5 516.804C1214.81 516.804 1210.2 512.191 1210.2 506.5C1210.2 500.809 1214.81 496.196 1220.5 496.196C1226.19 496.196 1230.8 500.809 1230.8 506.5ZM1220.5 518.577C1227.17 518.577 1232.58 513.17 1232.58 506.5C1232.58 499.83 1227.17 494.423 1220.5 494.423C1213.83 494.423 1208.42 499.83 1208.42 506.5C1208.42 513.17 1213.83 518.577 1220.5 518.577ZM1220.28 523.608C1219.83 524.575 1219.59 525.57 1219.59 525.945C1219.59 526.453 1219.99 526.853 1220.5 526.853C1221.01 526.853 1221.41 526.453 1221.41 525.945C1221.41 525.824 1221.37 525.513 1221.22 525.034C1221.08 524.584 1220.88 524.087 1220.66 523.632C1220.59 523.497 1220.52 523.371 1220.46 523.256C1220.4 523.364 1220.34 523.481 1220.28 523.608ZM1220.99 522.509C1220.99 522.511 1220.98 522.519 1220.96 522.53C1220.98 522.514 1220.99 522.508 1220.99 522.509ZM1217.82 525.945C1217.82 524.458 1219.22 520.875 1220.5 520.875C1221.58 520.875 1223.18 524.435 1223.18 525.945C1223.18 527.432 1221.99 528.626 1220.5 528.626C1219.01 528.626 1217.82 527.432 1217.82 525.945ZM1219.59 487.055C1219.59 486.547 1219.99 486.147 1220.5 486.147C1221 486.147 1221.41 486.557 1221.41 487.055C1221.41 487.43 1221.17 488.425 1220.72 489.392C1220.66 489.521 1220.6 489.64 1220.54 489.749C1220.47 489.631 1220.4 489.503 1220.34 489.365C1220.11 488.908 1219.92 488.411 1219.78 487.961C1219.63 487.481 1219.59 487.172 1219.59 487.055ZM1220.01 490.491C1220.01 490.49 1220.02 490.482 1220.04 490.47C1220.02 490.486 1220.01 490.492 1220.01 490.491ZM1220.5 484.374C1219.01 484.374 1217.82 485.568 1217.82 487.055C1217.82 488.542 1219.4 492.125 1220.5 492.125C1221.78 492.125 1223.18 488.542 1223.18 487.055C1223.18 485.568 1221.96 484.374 1220.5 484.374ZM1201.06 505.592C1200.55 505.592 1200.15 505.992 1200.15 506.5C1200.15 507.008 1200.55 507.408 1201.06 507.408C1201.17 507.408 1201.48 507.366 1201.96 507.221C1202.41 507.084 1202.91 506.889 1203.36 506.664C1203.51 506.594 1203.64 506.525 1203.76 506.457C1203.65 506.397 1203.53 506.336 1203.4 506.275C1202.43 505.823 1201.43 505.592 1201.06 505.592ZM1204.49 506.976C1204.48 506.976 1204.48 506.968 1204.47 506.951C1204.48 506.968 1204.49 506.976 1204.49 506.976ZM1198.37 506.5C1198.37 505.013 1199.57 503.819 1201.06 503.819C1202.54 503.819 1206.13 505.193 1206.13 506.5C1206.13 507.604 1202.54 509.181 1201.06 509.181C1199.57 509.181 1198.37 507.987 1198.37 506.5ZM1237.59 506.719C1237.46 506.658 1237.34 506.597 1237.23 506.538C1237.35 506.472 1237.47 506.404 1237.61 506.336C1238.07 506.111 1238.57 505.916 1239.02 505.779C1239.5 505.634 1239.81 505.592 1239.92 505.592C1240.43 505.592 1240.83 505.992 1240.83 506.5C1240.83 507.008 1240.43 507.408 1239.92 507.408C1239.55 507.408 1238.55 507.174 1237.59 506.719ZM1236.51 506.036C1236.49 506.019 1236.49 506.01 1236.49 506.01C1236.49 506.01 1236.5 506.019 1236.51 506.036ZM1239.92 503.819C1238.44 503.819 1234.85 505.396 1234.85 506.5C1234.85 507.784 1238.44 509.181 1239.92 509.181C1241.41 509.181 1242.6 507.987 1242.6 506.5C1242.6 505.013 1241.41 503.819 1239.92 503.819ZM1208.26 518.441C1207.25 518.801 1206.38 519.337 1206.12 519.605C1205.77 519.949 1205.77 520.539 1206.12 520.883C1206.46 521.225 1207.04 521.227 1207.39 520.891C1207.48 520.798 1207.66 520.546 1207.89 520.112C1208.11 519.694 1208.33 519.201 1208.49 518.718C1208.54 518.579 1208.58 518.447 1208.62 518.323C1208.5 518.357 1208.38 518.396 1208.26 518.441ZM1209.53 518.166C1209.53 518.167 1209.52 518.166 1209.5 518.162C1209.52 518.163 1209.53 518.165 1209.53 518.166ZM1208.65 522.137C1207.61 523.173 1205.9 523.173 1204.86 522.137C1203.83 521.101 1203.83 519.388 1204.86 518.352C1205.92 517.293 1209.44 515.761 1210.34 516.662C1211.1 517.428 1209.68 521.078 1208.65 522.137ZM1233.61 492.117C1233.95 491.773 1234.54 491.773 1234.88 492.117C1235.22 492.451 1235.24 493.024 1234.88 493.401C1234.6 493.672 1233.74 494.202 1232.74 494.559C1232.62 494.605 1232.5 494.644 1232.38 494.678C1232.42 494.55 1232.46 494.415 1232.51 494.273C1232.67 493.788 1232.89 493.295 1233.11 492.88C1233.34 492.436 1233.53 492.192 1233.61 492.117ZM1230.66 496.338C1231.56 497.239 1235.08 495.707 1236.14 494.648C1237.17 493.589 1237.17 491.899 1236.14 490.863C1235.1 489.827 1233.39 489.827 1232.35 490.863C1231.32 491.899 1229.9 495.572 1230.66 496.338ZM1231.47 494.834C1231.47 494.833 1231.48 494.834 1231.5 494.838C1231.48 494.837 1231.47 494.835 1231.47 494.834ZM1207.39 492.117C1207.05 491.773 1206.46 491.773 1206.12 492.117C1205.77 492.461 1205.77 493.051 1206.12 493.395C1206.19 493.47 1206.44 493.656 1206.88 493.892C1207.3 494.113 1207.79 494.326 1208.27 494.491C1208.41 494.539 1208.55 494.58 1208.68 494.616C1208.64 494.5 1208.6 494.376 1208.55 494.245C1208.19 493.238 1207.65 492.374 1207.39 492.117ZM1208.83 495.531C1208.83 495.53 1208.83 495.519 1208.84 495.499C1208.83 495.522 1208.83 495.532 1208.83 495.531ZM1204.86 490.863C1205.9 489.827 1207.61 489.827 1208.65 490.863C1209.68 491.899 1211.24 495.414 1210.34 496.338C1209.57 497.104 1205.9 495.685 1204.86 494.648C1203.83 493.612 1203.83 491.899 1204.86 490.863ZM1232.44 518.719C1232.4 518.593 1232.36 518.473 1232.32 518.36C1232.45 518.396 1232.59 518.438 1232.73 518.487C1233.21 518.651 1233.7 518.865 1234.12 519.086C1234.55 519.316 1234.8 519.498 1234.88 519.577C1235.24 519.954 1235.22 520.526 1234.88 520.861C1234.54 521.205 1233.95 521.205 1233.61 520.861C1233.34 520.593 1232.8 519.724 1232.44 518.719ZM1230.66 516.639C1231.43 515.873 1235.1 517.293 1236.14 518.329C1237.17 519.388 1237.17 521.078 1236.14 522.114C1235.1 523.151 1233.39 523.151 1232.35 522.114C1231.29 521.055 1229.76 517.54 1230.66 516.639ZM1232.16 517.478C1232.16 517.454 1232.17 517.443 1232.17 517.444C1232.17 517.445 1232.17 517.457 1232.16 517.478Z" fill="#4E931A"/>
<path opacity="0.05" fill-rule="evenodd" clip-rule="evenodd" d="M278.574 256C278.574 301.604 241.604 338.574 196 338.574C150.396 338.574 113.426 301.604 113.426 256C113.426 210.396 150.396 173.426 196 173.426C241.604 173.426 278.574 210.396 278.574 256ZM196 342C243.496 342 282 303.496 282 256C282 208.504 243.496 170 196 170C148.504 170 110 208.504 110 256C110 303.496 148.504 342 196 342ZM268.907 256C268.907 296.265 236.265 328.907 196 328.907C155.735 328.907 123.093 296.265 123.093 256C123.093 215.735 155.735 183.093 196 183.093C236.265 183.093 268.907 215.735 268.907 256ZM196 332.333C238.158 332.333 272.333 298.158 272.333 256C272.333 213.842 238.158 179.667 196 179.667C153.842 179.667 119.667 213.842 119.667 256C119.667 298.158 153.842 332.333 196 332.333ZM196 312.795C227.367 312.795 252.796 287.367 252.796 256C252.796 224.633 227.367 199.204 196 199.204C164.633 199.204 139.205 224.633 139.205 256C139.205 287.367 164.633 312.795 196 312.795ZM256.222 256C256.222 289.259 229.26 316.222 196 316.222C162.741 316.222 135.778 289.259 135.778 256C135.778 222.74 162.741 195.778 196 195.778C229.26 195.778 256.222 222.74 256.222 256ZM215.913 256C215.913 266.998 206.998 275.913 196 275.913C185.002 275.913 176.086 266.998 176.086 256C176.086 245.002 185.002 236.086 196 236.086C206.998 236.086 215.913 245.002 215.913 256ZM196 279.34C208.89 279.34 219.34 268.89 219.34 256C219.34 243.11 208.89 232.66 196 232.66C183.11 232.66 172.66 243.11 172.66 256C172.66 268.89 183.11 279.34 196 279.34ZM195.578 289.063C194.697 290.932 194.245 292.855 194.245 293.579C194.245 294.561 195.019 295.334 196 295.334C196.982 295.334 197.756 294.561 197.756 293.579C197.756 293.346 197.673 292.745 197.39 291.819C197.124 290.949 196.742 289.989 196.306 289.109C196.176 288.848 196.048 288.606 195.922 288.382C195.809 288.591 195.694 288.818 195.578 289.063ZM196.947 286.939C196.947 286.942 196.93 286.957 196.896 286.98C196.93 286.949 196.947 286.937 196.947 286.939ZM190.818 293.579C190.818 290.705 193.518 283.781 196 283.781C198.09 283.781 201.182 290.661 201.182 293.579C201.182 296.453 198.874 298.761 196 298.761C193.126 298.761 190.818 296.453 190.818 293.579ZM194.245 218.421C194.245 217.44 195.019 216.666 196 216.666C196.957 216.666 197.756 217.459 197.756 218.421C197.756 219.145 197.304 221.068 196.423 222.937C196.305 223.186 196.188 223.417 196.073 223.627C195.946 223.4 195.815 223.152 195.683 222.885C195.249 222.003 194.871 221.041 194.607 220.171C194.326 219.244 194.245 218.646 194.245 218.421ZM195.053 225.061C195.053 225.059 195.07 225.043 195.104 225.02C195.07 225.052 195.053 225.063 195.053 225.061ZM196 213.24C193.126 213.24 190.818 215.548 190.818 218.421C190.818 221.295 193.867 228.219 196 228.219C198.482 228.219 201.182 221.295 201.182 218.421C201.182 215.548 198.831 213.24 196 213.24ZM158.422 254.244C157.44 254.244 156.666 255.018 156.666 256C156.666 256.982 157.44 257.755 158.422 257.755C158.647 257.755 159.244 257.674 160.172 257.393C161.041 257.129 162.003 256.751 162.885 256.317C163.159 256.182 163.412 256.048 163.644 255.917C163.431 255.802 163.197 255.683 162.944 255.564C161.083 254.692 159.155 254.244 158.422 254.244ZM165.051 256.92C165.049 256.92 165.035 256.904 165.013 256.871C165.042 256.904 165.053 256.92 165.051 256.92ZM153.24 256C153.24 253.126 155.548 250.818 158.422 250.818C161.296 250.818 168.219 253.474 168.219 256C168.219 258.134 161.296 261.182 158.422 261.182C155.548 261.182 153.24 258.874 153.24 256ZM229.02 256.422C228.771 256.305 228.54 256.188 228.329 256.073C228.557 255.945 228.805 255.814 229.072 255.683C229.954 255.249 230.916 254.87 231.786 254.607C232.713 254.326 233.31 254.244 233.535 254.244C234.517 254.244 235.291 255.018 235.291 256C235.291 256.982 234.517 257.755 233.535 257.755C232.812 257.755 230.889 257.303 229.02 256.422ZM226.896 255.053C226.894 255.053 226.905 255.07 226.937 255.104C226.931 255.096 226.926 255.088 226.921 255.082C226.917 255.076 226.913 255.071 226.91 255.067C226.902 255.058 226.897 255.053 226.896 255.053ZM233.535 250.818C230.661 250.818 223.738 253.866 223.738 256C223.738 258.482 230.661 261.182 233.535 261.182C236.409 261.182 238.717 258.874 238.717 256C238.717 253.126 236.409 250.818 233.535 250.818ZM172.341 279.076C170.4 279.772 168.721 280.809 168.203 281.327C167.538 281.992 167.538 283.132 168.203 283.797C168.863 284.457 169.992 284.462 170.659 283.811C170.828 283.633 171.187 283.145 171.633 282.306C172.061 281.498 172.474 280.546 172.792 279.612C172.883 279.344 172.963 279.089 173.031 278.849C172.814 278.914 172.584 278.989 172.341 279.076ZM174.807 278.545C174.806 278.546 174.798 278.546 174.784 278.545C174.776 278.544 174.766 278.542 174.754 278.54L174.741 278.538C174.788 278.54 174.808 278.544 174.807 278.545ZM173.096 286.22C171.093 288.223 167.783 288.223 165.78 286.22C163.777 284.217 163.777 280.907 165.78 278.904C167.827 276.858 174.62 273.897 176.362 275.638C177.842 277.119 175.099 284.173 173.096 286.22ZM221.327 228.203C221.992 227.538 223.132 227.538 223.797 228.203C224.444 228.85 224.485 229.956 223.784 230.686C223.252 231.208 221.585 232.234 219.659 232.924C219.415 233.011 219.183 233.087 218.965 233.152C219.035 232.906 219.116 232.644 219.21 232.369C219.528 231.433 219.94 230.481 220.367 229.679C220.823 228.82 221.182 228.349 221.327 228.203ZM215.639 236.361C217.381 238.103 224.174 235.142 226.22 233.096C228.223 231.049 228.223 227.783 226.22 225.78C224.217 223.777 220.908 223.777 218.905 225.78C216.902 227.783 214.158 234.881 215.639 236.361ZM217.201 233.454C217.197 233.454 217.194 233.454 217.194 233.455C217.192 233.456 217.213 233.46 217.26 233.462C217.231 233.457 217.211 233.454 217.201 233.454ZM170.673 228.203C170.008 227.538 168.868 227.538 168.203 228.203C167.538 228.868 167.538 230.008 168.203 230.673C168.349 230.819 168.82 231.177 169.679 231.634C170.481 232.06 171.433 232.472 172.37 232.791C172.643 232.884 172.903 232.965 173.148 233.034C173.08 232.808 173.001 232.568 172.91 232.316C172.208 230.37 171.171 228.7 170.673 228.203ZM173.451 234.801C173.449 234.8 173.45 234.778 173.458 234.739C173.456 234.783 173.452 234.803 173.451 234.801ZM165.78 225.78C167.783 223.777 171.093 223.777 173.096 225.78C175.099 227.783 178.103 234.576 176.362 236.361C174.881 237.842 167.783 235.099 165.78 233.096C163.777 231.093 163.777 227.783 165.78 225.78ZM219.076 279.615C218.989 279.371 218.913 279.139 218.848 278.921C219.094 278.991 219.356 279.072 219.631 279.165C220.567 279.484 221.519 279.896 222.322 280.323C223.159 280.768 223.628 281.12 223.786 281.272C224.485 282.002 224.444 283.107 223.797 283.753C223.132 284.418 221.992 284.418 221.327 283.753C220.809 283.235 219.772 281.556 219.076 279.615ZM215.639 275.595C217.119 274.114 224.217 276.858 226.22 278.861C228.223 280.907 228.223 284.173 226.22 286.176C224.217 288.179 220.908 288.179 218.905 286.176C216.858 284.13 213.897 277.337 215.639 275.595ZM218.538 277.216C218.54 277.169 218.544 277.148 218.545 277.15C218.547 277.151 218.546 277.175 218.538 277.216Z" fill="#4E931A"/>
<g opacity="0.1">
<path d="M1295.5 694C1329.47 694 1357 666.466 1357 632.5C1357 598.534 1329.47 571 1295.5 571C1261.53 571 1234 598.534 1234 632.5C1234 666.466 1261.53 694 1295.5 694Z" fill="#6B5436"/>
<path d="M1295.5 687.087C1325.65 687.087 1350.09 662.648 1350.09 632.5C1350.09 602.352 1325.65 577.913 1295.5 577.913C1265.35 577.913 1240.91 602.352 1240.91 632.5C1240.91 662.648 1265.35 687.087 1295.5 687.087Z" fill="#4E931A"/>
<path d="M1295.5 675.566C1319.28 675.566 1338.57 656.284 1338.57 632.5C1338.57 608.716 1319.28 589.434 1295.5 589.434C1271.72 589.434 1252.43 608.716 1252.43 632.5C1252.43 656.284 1271.72 675.566 1295.5 675.566Z" fill="#77BD41"/>
<path d="M1295.5 649.191C1304.72 649.191 1312.19 641.718 1312.19 632.5C1312.19 623.282 1304.72 615.809 1295.5 615.809C1286.28 615.809 1278.81 623.282 1278.81 632.5C1278.81 641.718 1286.28 649.191 1295.5 649.191Z" fill="#E8D84C"/>
<path d="M1295.5 652.367C1293.73 652.367 1291.79 657.318 1291.79 659.373C1291.79 661.428 1293.45 663.079 1295.5 663.079C1297.56 663.079 1299.21 661.428 1299.21 659.373C1299.21 657.287 1296.99 652.367 1295.5 652.367Z" fill="#6B5436"/>
<path d="M1295.5 601.921C1293.45 601.921 1291.79 603.572 1291.79 605.627C1291.79 607.682 1293.97 612.633 1295.5 612.633C1297.28 612.633 1299.21 607.682 1299.21 605.627C1299.21 603.572 1297.52 601.921 1295.5 601.921Z" fill="#6B5436"/>
<path d="M1268.63 628.794C1266.57 628.794 1264.92 630.445 1264.92 632.5C1264.92 634.555 1266.57 636.205 1268.63 636.205C1270.68 636.205 1275.63 634.026 1275.63 632.5C1275.63 630.694 1270.68 628.794 1268.63 628.794Z" fill="#6B5436"/>
<path d="M1322.34 628.794C1320.29 628.794 1315.34 630.974 1315.34 632.5C1315.34 634.275 1320.29 636.205 1322.34 636.205C1324.4 636.205 1326.05 634.555 1326.05 632.5C1326.05 630.445 1324.4 628.794 1322.34 628.794Z" fill="#6B5436"/>
<path d="M1281.46 646.544C1280.21 645.298 1275.35 647.416 1273.89 648.879C1272.46 650.312 1272.46 652.678 1273.89 654.111C1275.32 655.543 1277.69 655.543 1279.12 654.111C1280.55 652.647 1282.52 647.602 1281.46 646.544Z" fill="#6B5436"/>
<path d="M1317.11 610.889C1315.68 609.457 1313.31 609.457 1311.88 610.889C1310.45 612.322 1308.49 617.397 1309.54 618.456C1310.79 619.702 1315.65 617.584 1317.11 616.121C1318.54 614.657 1318.54 612.322 1317.11 610.889Z" fill="#6B5436"/>
<path d="M1279.12 610.889C1277.69 609.457 1275.32 609.457 1273.89 610.889C1272.46 612.322 1272.46 614.688 1273.89 616.121C1275.32 617.553 1280.4 619.515 1281.46 618.456C1282.7 617.179 1280.55 612.322 1279.12 610.889Z" fill="#6B5436"/>
<path d="M1317.11 648.848C1315.68 647.416 1310.6 645.454 1309.54 646.513C1308.3 647.758 1310.42 652.616 1311.88 654.079C1313.31 655.512 1315.68 655.512 1317.11 654.079C1318.54 652.647 1318.54 650.312 1317.11 648.848Z" fill="#6B5436"/>
</g>
<g opacity="0.1">
<path d="M387.5 510C421.466 510 449 482.466 449 448.5C449 414.534 421.466 387 387.5 387C353.534 387 326 414.534 326 448.5C326 482.466 353.534 510 387.5 510Z" fill="#6B5436"/>
<path d="M387.5 503.087C417.648 503.087 442.087 478.648 442.087 448.5C442.087 418.352 417.648 393.913 387.5 393.913C357.353 393.913 332.913 418.352 332.913 448.5C332.913 478.648 357.353 503.087 387.5 503.087Z" fill="#4E931A"/>
<path d="M387.5 491.566C411.285 491.566 430.566 472.284 430.566 448.5C430.566 424.716 411.285 405.434 387.5 405.434C363.716 405.434 344.435 424.716 344.435 448.5C344.435 472.284 363.716 491.566 387.5 491.566Z" fill="#77BD41"/>
<path d="M387.5 465.191C396.718 465.191 404.191 457.718 404.191 448.5C404.191 439.282 396.718 431.809 387.5 431.809C378.282 431.809 370.81 439.282 370.81 448.5C370.81 457.718 378.282 465.191 387.5 465.191Z" fill="#E8D84C"/>
<path d="M387.5 468.367C385.725 468.367 383.794 473.318 383.794 475.373C383.794 477.428 385.445 479.079 387.5 479.079C389.555 479.079 391.206 477.428 391.206 475.373C391.206 473.287 388.995 468.367 387.5 468.367Z" fill="#6B5436"/>
<path d="M387.5 417.921C385.445 417.921 383.794 419.572 383.794 421.627C383.794 423.682 385.974 428.633 387.5 428.633C389.275 428.633 391.206 423.682 391.206 421.627C391.206 419.572 389.524 417.921 387.5 417.921Z" fill="#6B5436"/>
<path d="M360.627 444.794C358.572 444.794 356.921 446.445 356.921 448.5C356.921 450.555 358.572 452.205 360.627 452.205C362.682 452.205 367.633 450.026 367.633 448.5C367.633 446.694 362.682 444.794 360.627 444.794Z" fill="#6B5436"/>
<path d="M414.342 444.794C412.287 444.794 407.336 446.974 407.336 448.5C407.336 450.275 412.287 452.205 414.342 452.205C416.397 452.205 418.048 450.555 418.048 448.5C418.048 446.445 416.397 444.794 414.342 444.794Z" fill="#6B5436"/>
<path d="M373.456 462.544C372.211 461.298 367.353 463.416 365.889 464.879C364.457 466.312 364.457 468.678 365.889 470.111C367.322 471.543 369.688 471.543 371.121 470.111C372.553 468.647 374.515 463.602 373.456 462.544Z" fill="#6B5436"/>
<path d="M409.111 426.889C407.678 425.457 405.312 425.457 403.879 426.889C402.447 428.322 400.485 433.397 401.544 434.456C402.789 435.702 407.647 433.584 409.111 432.121C410.543 430.657 410.543 428.322 409.111 426.889Z" fill="#6B5436"/>
<path d="M371.121 426.889C369.688 425.457 367.322 425.457 365.889 426.889C364.457 428.322 364.457 430.688 365.889 432.121C367.322 433.553 372.397 435.515 373.456 434.456C374.702 433.179 372.553 428.322 371.121 426.889Z" fill="#6B5436"/>
<path d="M409.111 464.848C407.678 463.416 402.603 461.454 401.544 462.513C400.298 463.758 402.416 468.616 403.879 470.079C405.312 471.512 407.678 471.512 409.111 470.079C410.543 468.647 410.543 466.312 409.111 464.848Z" fill="#6B5436"/>
</g>
</svg>
