<svg width="1196" height="1021" viewBox="0 0 1196 1021" fill="none" xmlns="http://www.w3.org/2000/svg">
<path d="M0 786.26C0 770.637 0 755.015 0 739.392C1.31573 739.057 2.63146 738.723 3.94719 738.165C40.6681 722.765 77.2693 707.366 113.99 691.967C195.446 657.821 277.021 623.675 358.597 589.417C412.9 566.653 467.204 543.889 521.388 521.013C527.489 518.446 534.307 517.107 539.45 512.755C540.168 512.644 540.885 512.532 541.722 512.532C541.722 512.42 541.603 512.197 541.603 512.086C540.885 512.309 540.287 512.532 539.569 512.867C538.015 513.313 536.46 513.648 535.024 514.094C476.295 533.846 417.446 553.597 358.716 573.348C296.518 594.215 234.439 615.194 172.241 635.949C114.588 655.366 57.2941 674.447 0 693.641C0 679.469 0 665.409 0 651.237C2.0334 651.683 3.94719 650.902 5.86099 650.456C80.14 630.258 154.419 610.172 228.698 589.975C295.561 571.786 362.305 553.597 429.168 535.519C461.582 526.704 493.997 518 527.01 509.073C524.259 508.068 522.106 508.403 520.073 508.738C452.253 522.017 384.313 535.408 316.374 548.575C254.534 560.627 192.575 572.567 130.736 584.507C87.1971 592.988 43.5387 601.468 0 609.949C0 596.893 0 583.949 0 570.893C7.05711 570 14.2338 569.108 21.2909 568.103C52.7489 563.863 84.2068 559.511 115.665 555.271C147.482 551.03 179.418 546.79 211.235 542.549C245.683 537.863 280.131 533.176 314.46 528.601C346.396 524.36 378.213 520.232 410.149 515.88C444.956 511.193 479.764 506.506 514.571 501.596C522.943 500.48 531.436 500.257 540.407 497.802C537.895 497.802 536.34 497.691 534.785 497.802C501.772 499.923 468.879 502.043 435.866 504.051C416.848 505.279 397.71 506.395 378.691 507.511C344.363 509.631 310.034 511.863 275.706 513.983C255.85 515.21 235.994 516.326 216.139 517.554C181.81 519.674 147.482 521.905 113.153 524.026C98.4406 524.918 83.7284 525.923 69.1357 526.815C46.0506 528.154 23.0851 529.382 0 530.721C0 518.111 0 505.39 0 492.781C2.15301 492.781 4.42564 492.892 6.57866 492.892C88.0344 492.446 169.49 492.781 251.065 492.111C336.947 491.33 422.828 491.665 508.71 491.553C517.202 491.553 525.695 491.553 535.742 491.553C528.326 488.875 522.106 489.768 516.006 489.322C485.864 487.09 455.721 484.97 425.579 482.961C407.159 481.734 388.619 480.618 370.199 479.279C339.818 477.158 309.556 474.927 279.174 472.918C260.874 471.691 242.693 470.575 224.392 469.236C193.891 467.115 163.27 464.884 132.769 462.763C114.469 461.536 96.2876 460.308 77.987 459.081C52.0312 457.296 26.0754 455.51 0 453.836C0 440.78 0 427.836 0 414.78C13.1573 417.57 26.6735 418.463 40.07 420.248C68.418 424.042 96.7661 427.501 125.114 431.184C154.897 434.978 184.561 438.772 214.345 442.566C242.693 446.137 271.041 449.708 299.389 453.39C326.421 456.849 353.334 460.308 380.366 463.768C408.475 467.339 436.703 470.909 464.932 474.48C488.974 477.493 512.896 480.618 536.938 483.742C535.263 482.738 533.469 482.18 531.675 481.845C450.219 465.442 368.883 449.038 287.428 432.634C219.368 418.909 151.429 405.184 83.3695 391.458C55.6196 385.879 27.75 380.299 0 374.831C0 361.441 0 348.05 0 334.659C21.0517 340.127 42.1034 345.595 63.1551 351.063C209.799 389.673 356.324 428.282 502.968 466.892C512.418 469.347 521.747 471.691 531.197 474.146C522.345 469.794 513.016 466.557 503.686 463.433C418.522 434.197 333.359 404.96 248.314 375.613C176.667 350.951 104.9 326.29 33.2521 301.741C22.2478 297.947 11.6024 293.372 0.119612 291.028C0.119612 276.187 0.119612 261.234 0.119612 246.393C29.7834 258.556 59.4471 270.719 89.1109 282.882C151.19 308.436 213.268 333.99 275.347 359.432C347.832 389.226 420.197 419.021 492.801 448.703C506.676 454.394 520.192 460.643 534.426 465.218C535.024 466.111 535.981 466.223 537.058 465.999C537.416 467.339 538.373 467.227 539.45 467.115C539.809 467.45 540.048 467.785 540.407 468.008C540.526 467.785 540.766 467.673 540.885 467.45C540.407 467.339 539.928 467.227 539.33 467.115C538.852 466.111 538.015 465.999 536.938 465.999C536.579 464.995 535.622 464.772 534.665 464.772C533.828 464.214 533.11 463.656 532.273 463.21C508.231 451.158 484.309 439.107 460.267 427.055C361.707 377.733 263.027 328.299 164.466 278.977C122.004 257.663 79.5419 236.461 37.0797 215.148C24.7597 209.01 12.4396 203.208 0 197.182C0 180.444 0 163.705 0 146.967C2.27263 148.083 4.54525 149.199 6.81788 150.426C78.5851 191.937 150.233 233.337 222 274.848C311.828 326.737 401.657 378.625 491.485 430.514C506.557 439.218 521.747 447.587 536.818 456.18C537.775 457.072 538.373 458.3 540.168 457.854C540.048 456.18 538.493 456.068 537.297 455.622C535.503 454.171 533.709 452.72 531.795 451.381C494.715 425.939 457.635 400.608 420.556 375.278C346.157 324.505 271.758 273.732 197.36 222.959C141.022 184.461 84.6853 145.851 28.2284 107.465C19.0183 101.216 10.2866 93.9623 0 89.164C0 69.078 0 48.992 0 28.906C2.27263 28.906 3.34913 30.6914 4.90409 31.8073C32.1756 52.8976 59.3275 74.2111 86.599 95.3014C134.563 132.46 182.528 169.508 230.373 206.667C270.443 237.8 310.393 269.045 350.463 300.178C397.351 336.668 444.358 373.158 491.366 409.536C506.796 421.476 522.345 433.304 537.895 445.244C538.373 445.579 538.732 445.914 539.211 446.248C541.722 448.815 544.115 451.493 547.703 452.832C549.138 455.064 551.411 456.514 553.803 457.742C552.009 455.956 550.933 453.055 547.703 452.944C546.627 449.15 543.038 447.587 539.928 445.69C539.569 445.356 539.211 444.909 538.852 444.574C538.015 442.343 535.862 441.115 534.187 439.553C477.85 388.334 421.393 337.226 365.056 286.118C335.392 259.114 305.848 232.109 276.184 205.105C230.612 163.817 185.04 122.529 139.468 81.2412C111.957 56.2453 84.3264 31.361 56.8157 6.25347C44.9741 -4.79382 32.5344 -15.2832 21.5302 -27C45.4525 -27 69.3749 -27 93.2973 -27C93.7758 -26.4421 94.1346 -25.7725 94.613 -25.2146C122.841 3.79852 151.07 32.8116 179.298 61.8247C207.527 90.8378 235.875 119.851 264.103 148.864C319.723 206.109 375.342 263.466 430.962 320.711C465.649 356.308 500.217 392.016 534.905 427.613C541.244 434.085 547.584 440.446 553.923 446.806C554.282 445.579 554.043 445.021 553.564 444.463C516.245 399.493 478.926 354.634 441.607 309.775C390.055 247.843 338.621 185.912 287.069 123.98C254.295 84.4773 221.402 45.0864 188.748 5.47235C180.016 -5.24018 170.447 -15.5063 162.672 -27C181.81 -27 200.948 -27 220.086 -27C222.598 -23.206 225.11 -19.412 227.741 -15.7295C311.47 99.0954 395.317 214.032 479.046 328.968C506.557 366.685 534.067 404.402 561.578 442.231C562.655 439.888 560.98 438.549 560.023 436.986C549.019 418.909 537.895 400.832 526.771 382.866C486.223 316.805 445.674 250.745 405.126 184.572C368.046 124.091 330.847 63.7217 293.887 3.24058C287.786 -6.69083 280.849 -16.2875 276.184 -26.8884C292.092 -26.8884 308.12 -26.8884 324.029 -26.8884C358.836 39.0606 393.643 105.01 428.45 170.959C466.487 242.822 504.523 314.797 542.56 386.66C551.77 403.956 560.143 421.587 570.19 438.437C570.31 438.883 570.549 439.441 570.669 439.888C570.908 439.776 571.267 439.441 571.267 439.441C571.027 438.995 570.788 438.66 570.429 438.214C570.429 435.313 568.874 432.858 567.798 430.291C544.354 375.724 520.91 321.046 497.586 266.479C459.908 178.547 422.35 90.7262 384.792 2.79422C380.605 -7.0256 375.462 -16.3991 373.07 -26.7768C387.423 -26.7768 401.777 -26.7768 416.13 -26.7768C415.891 -24.2103 417.206 -22.0901 417.924 -19.8583C430.603 16.0733 443.282 52.0049 455.961 88.0481C477.491 149.199 499.021 210.461 520.551 271.612C538.732 323.277 557.033 374.831 575.333 426.497C576.53 429.845 577.726 433.192 579.041 436.54C577.486 425.827 574.855 415.45 572.104 405.072C557.272 348.943 542.44 292.702 527.608 236.573C508.112 162.589 488.734 88.4945 469.357 14.5111C465.769 0.785624 461.463 -12.7166 459.19 -26.6652C472.348 -26.6652 485.505 -26.6652 498.662 -26.6652C504.164 1.78992 509.786 30.2451 515.288 58.7002C526.173 115.387 537.058 172.186 548.062 228.873C557.87 279.758 567.798 330.642 577.726 381.527C581.434 400.832 585.142 420.136 588.969 439.33C589.328 436.875 589.567 434.42 589.328 432.076C587.055 411.767 584.783 391.57 582.51 371.261C579.998 347.604 577.606 324.058 574.975 300.402C572.343 275.517 569.472 250.633 566.841 225.749C564.688 206.332 562.655 187.027 560.621 167.611C557.99 143.061 555.239 118.512 552.607 93.9623C550.454 73.9879 548.301 54.1251 546.148 34.1507C543.995 13.8415 541.723 -6.46765 539.45 -26.6652C552.248 -26.6652 564.927 -26.6652 577.726 -26.6652C578.085 -23.3176 578.563 -20.0815 578.802 -16.7338C579.639 1.45515 580.357 19.6441 581.194 37.8331C582.749 76.5544 584.424 115.387 585.979 154.109C587.175 182.675 588.371 211.242 589.567 239.809C591.242 278.977 592.916 318.033 594.352 357.2C595.428 384.874 596.266 412.548 597.342 440.111C597.342 441.45 597.701 442.677 597.82 444.017C599.854 430.626 599.376 417.235 600.093 403.956C602.127 364.677 603.442 325.286 605.117 286.007C606.313 258.221 607.509 230.324 608.586 202.538C610.26 162.255 611.935 121.971 613.49 81.7991C614.447 57.138 614.925 32.3653 616.48 7.81572C617.198 -3.67793 616.121 -15.2832 618.394 -26.6652C631.192 -26.6652 643.871 -26.6652 656.67 -26.6652C655.354 -13.9441 654.158 -1.22298 652.722 11.4982C650.091 35.4898 647.34 59.4814 644.828 83.473C642.675 103.782 640.522 124.091 638.369 144.4C635.738 168.392 633.106 192.384 630.475 216.375C628.322 236.35 626.169 256.212 624.016 276.187C621.384 300.178 618.753 324.17 616.121 348.162C614.207 365.123 612.413 382.085 610.499 399.046C608.705 414.892 607.031 430.849 605.356 446.695C605.595 446.695 605.715 446.695 605.954 446.806C636.455 289.02 666.956 131.233 697.457 -26.5536C710.615 -26.5536 723.772 -26.5536 736.929 -26.5536C736.81 -24.8798 736.929 -23.206 736.451 -21.6437C728.078 10.3823 719.705 42.5198 711.213 74.5458C699.61 118.623 687.769 162.813 676.166 206.89C660.258 267.371 644.35 327.964 628.561 388.445C624.494 403.956 619.59 419.244 616.958 434.978C614.805 438.102 614.447 441.673 614.686 445.356C615.643 442.008 616.48 438.66 617.437 435.313C618.155 433.639 619.111 431.965 619.709 430.291C628.561 405.072 637.412 379.853 646.383 354.634C676.645 269.157 706.787 183.68 737.049 98.2027C751.522 56.1337 766.234 14.6226 780.946 -27C795.3 -27 809.653 -27 824.007 -27C823.768 -26.3305 823.648 -25.5493 823.409 -24.8798C807.141 13.172 790.755 51.3354 774.368 89.3872C727.001 200.083 679.515 310.668 632.149 421.364C628.8 429.287 625.451 437.098 622.102 445.021C623.657 444.463 624.255 443.459 624.733 442.454C650.091 394.248 675.329 346.042 700.806 297.947C751.761 201.311 802.955 104.786 853.79 8.0389C860.01 -3.56634 866.828 -14.8368 871.852 -27C888.238 -27 904.506 -27 920.892 -27C920.414 -25.7725 920.055 -24.545 919.457 -23.4292C901.635 5.69553 883.693 34.9318 865.751 64.0565C826.997 127.216 788.243 190.375 749.488 253.534C714.083 311.337 678.439 369.14 643.153 427.055C638.01 435.536 631.551 443.459 627.963 452.72C627.604 453.055 627.125 453.502 626.767 453.836C626.647 453.948 626.647 454.059 626.527 454.171C626.527 454.283 626.408 454.394 626.408 454.506C626.527 454.283 626.647 453.948 626.647 453.725C627.006 453.39 627.484 452.944 627.843 452.609C631.551 448.926 634.063 444.463 637.053 440.334C698.653 355.861 760.373 271.5 821.854 187.027C870.057 120.967 918.141 54.9062 966.106 -11.1544C969.933 -16.2875 974.359 -21.0858 976.99 -27C996.487 -27 1016.1 -27 1035.6 -27C995.889 20.8716 956.298 68.8548 916.586 116.726C871.373 171.182 826.04 225.637 780.827 279.981C746.857 320.822 713.007 361.552 679.037 402.394C666.837 417.012 654.875 431.853 642.795 446.695C639.924 449.038 637.412 451.605 636.096 455.064C635.857 455.175 635.618 455.399 635.498 455.51C635.618 455.51 635.737 455.51 635.857 455.399C635.977 455.287 635.977 455.064 636.096 454.952C639.206 452.944 641.718 450.377 643.512 447.364C662.052 428.506 680.712 409.647 699.251 390.789C748.173 340.462 797.094 290.135 846.015 239.809C875.32 209.68 904.625 179.663 933.93 149.534C979.502 102.666 1025.19 55.7989 1070.77 8.82002C1082.25 -3.0084 1093.49 -14.9484 1104.98 -26.8884C1129.26 -26.8884 1153.66 -26.8884 1177.94 -26.8884C1175.91 -24.8798 1173.99 -22.7596 1171.84 -20.8626C1151.5 -2.45046 1131.17 15.8501 1110.96 34.2623C1079.5 62.7174 1048.16 91.2842 1016.7 119.851C959.049 172.186 901.276 224.521 843.623 276.856C798.769 317.586 753.914 358.205 709.179 398.935C695.663 411.209 681.908 423.484 668.511 435.87C660.617 443.124 653.081 450.6 645.306 457.965C646.503 458.523 647.101 457.407 647.699 456.961C672.339 437.879 696.979 418.686 721.619 399.493C771.975 360.325 822.332 321.269 872.689 282.101C925.916 240.702 979.263 199.525 1032.61 158.126C1087.15 115.834 1141.58 73.43 1196 31.1378C1196 51.5585 1196 72.0909 1196 92.5117C1194.44 92.2885 1193.37 93.2928 1192.29 94.0739C1178.3 103.559 1164.3 113.156 1150.31 122.752C1071.6 176.538 992.899 230.324 914.194 284.11C842.427 333.097 770.54 382.196 698.773 431.184C683.702 441.45 668.75 452.051 653.799 462.429C653.32 462.763 652.005 462.652 652.603 463.545C652.962 464.214 653.918 463.656 654.397 462.987C655.473 462.54 656.55 462.094 657.627 461.536C725.925 422.033 794.223 382.531 862.641 343.029C973.641 278.753 1084.76 214.59 1195.88 150.426C1195.88 167.165 1195.88 183.903 1195.88 200.641C1166.22 215.483 1136.67 230.435 1107.01 245.277C1049.12 274.29 991.224 303.191 933.332 332.093C847.57 375.055 761.808 417.905 676.166 460.978C667.195 465.553 657.507 469.012 649.373 475.15C648.177 475.485 646.981 475.819 645.785 476.266L645.546 476.489L645.665 476.266C646.861 476.043 648.297 476.266 649.254 475.15C664.444 469.012 679.515 462.875 694.706 456.738C756.426 431.407 818.146 405.965 879.985 380.522C959.407 347.827 1038.83 315.243 1118.25 282.659C1144.09 272.058 1170.04 261.569 1195.88 250.968C1195.88 265.809 1195.88 280.762 1195.88 295.603C1193.97 296.05 1191.93 296.273 1190.14 296.942C1136.55 315.355 1082.97 333.767 1029.5 352.179C916.826 390.677 804.151 429.398 691.357 468.231C678.559 472.695 665.76 477.27 652.962 481.734C652.603 482.068 651.526 481.287 651.646 482.515C652.005 482.291 652.483 481.957 652.842 481.734C659.421 481.734 665.162 479.055 671.262 477.382C740.398 459.193 809.414 441.004 878.43 422.815C953.188 403.063 1028.06 383.312 1102.82 363.561C1133.8 355.415 1164.78 347.157 1195.76 338.9C1195.76 352.625 1195.76 366.462 1195.76 380.188C1194.21 380.411 1192.65 380.411 1191.1 380.746C1148.16 389.45 1105.21 398.153 1062.27 406.857C987.038 422.033 911.921 437.21 836.686 452.386C785.97 462.652 735.255 472.806 684.539 483.073C673.296 485.304 662.052 487.648 650.928 489.88C653.081 490.437 654.995 490.214 657.028 489.991C675.09 487.648 693.271 485.193 711.332 482.849C741.714 478.944 771.975 475.261 802.357 471.356C830.466 467.785 858.694 464.102 886.803 460.532C917.304 456.626 947.805 452.72 978.306 448.815C1008.69 444.909 1038.95 441.004 1069.33 437.21C1097.32 433.639 1125.19 430.068 1153.18 426.497C1167.41 424.712 1181.53 423.149 1195.76 421.476C1195.76 434.085 1195.76 446.806 1195.76 459.416C1190.14 461.09 1184.28 460.42 1178.54 460.866C1148.75 463.098 1119.09 465.218 1089.31 467.227C1070.41 468.566 1051.63 469.57 1032.73 470.909C998.042 473.364 963.355 475.931 928.667 478.386C904.506 480.06 880.224 481.51 856.063 483.184C821.016 485.639 785.85 488.206 750.804 490.661C726.164 492.334 701.524 493.562 677.004 495.682C669.468 496.352 661.574 495.236 653.201 498.472C665.88 498.472 677.482 498.472 688.965 498.472C788.243 498.695 887.401 498.36 986.679 499.476C1000.67 499.588 1014.55 499.588 1028.54 499.588C1084.28 499.699 1140.14 499.699 1195.88 499.699C1195.88 512.755 1195.88 525.7 1195.88 538.755C1183.32 537.974 1170.88 537.082 1158.32 536.3C1123.63 534.069 1088.83 531.949 1054.14 529.828C1034.28 528.601 1014.43 527.485 994.573 526.257C959.886 524.137 925.079 521.905 890.391 519.785C852.714 517.442 814.916 515.21 777.238 512.867C764.918 512.086 752.598 511.305 740.278 510.523C709.777 508.515 679.157 506.506 648.656 504.498C648.656 504.721 648.536 504.944 648.536 505.167C830.944 529.717 1013.35 554.378 1195.88 578.927C1195.88 591.983 1195.88 604.928 1195.88 617.983C1193.97 617.76 1191.93 617.76 1190.02 617.314C1118.73 603.477 1047.56 589.528 976.392 575.691C879.148 556.721 781.784 537.863 684.42 518.893C674.013 516.884 663.487 514.875 651.407 512.532C653.201 513.648 653.44 513.871 653.799 513.983C709.538 529.159 765.277 544.335 821.016 559.399C936.203 590.644 1051.27 621.889 1166.46 653.022C1176.14 655.589 1185.59 659.271 1195.76 660.164C1195.76 674.336 1195.76 688.396 1195.76 702.568C1193.01 702.903 1190.74 701.564 1188.34 700.782C1108.92 674.224 1029.62 647.555 950.197 620.996C859.771 590.644 769.344 560.292 679.037 529.94C670.545 527.039 662.052 524.36 653.56 521.571C654.636 523.245 656.191 524.026 657.746 524.695C689.563 537.974 721.26 551.365 753.077 564.644C827.356 595.777 901.515 626.911 975.794 658.044C1040.98 685.383 1106.05 712.834 1171.24 740.062C1179.37 743.409 1187.15 747.761 1195.88 749.658C1195.88 765.616 1195.88 781.684 1195.88 797.642C1161.91 781.015 1127.82 764.388 1093.85 747.65C1003.54 703.237 913.237 658.713 822.811 614.301C766.593 586.627 710.375 559.176 654.158 531.614C651.646 530.386 649.134 529.047 646.622 527.82C649.373 530.721 652.722 532.618 655.952 534.515C727.839 576.807 799.725 619.099 871.612 661.392C967.661 717.856 1063.59 774.208 1159.64 830.56C1171.6 837.59 1183.08 845.29 1195.64 851.204C1195.64 869.839 1195.64 888.363 1195.64 906.999C1186.55 900.973 1177.46 894.947 1168.49 888.81C1077.58 827.659 986.679 766.508 895.893 705.358C814.677 650.791 733.46 596.112 652.244 541.657C649.373 539.76 647.101 536.97 643.153 536.635C642.316 533.846 639.685 533.064 637.173 532.172C637.053 532.06 636.934 531.948 636.694 531.837C636.814 531.948 637.053 532.06 637.173 532.06C638.847 533.957 640.522 535.854 643.153 536.524C643.632 537.082 643.991 537.863 644.589 538.309C669.109 557.614 693.63 576.919 718.03 596.224C762.287 631.151 806.543 665.967 850.8 700.894C888.956 731.023 927.112 761.152 965.268 791.281C1010.36 826.878 1055.58 862.586 1100.67 898.183C1132.25 923.067 1163.94 947.952 1195.64 972.948C1195.64 995.6 1195.64 1018.36 1195.64 1041.02C1187.99 1034.32 1180.21 1027.63 1172.56 1020.82C1123.75 977.3 1075.07 933.668 1026.27 890.037C979.383 848.08 932.495 806.234 885.607 764.276C846.494 729.349 807.381 694.31 768.268 659.383C725.088 620.773 682.027 582.163 638.967 543.554C638.01 542.773 637.412 541.322 635.259 541.768C645.904 552.927 656.43 563.974 666.956 575.022C695.663 604.928 724.37 634.722 753.077 664.739C798.171 711.83 843.264 759.032 888.358 806.122C919.936 839.153 951.513 872.071 983.091 904.99C1021.84 945.385 1060.6 985.892 1099.23 1026.4C1119.09 1047.15 1138.83 1068.02 1158.68 1088.89C1134.76 1088.89 1110.84 1088.89 1086.79 1088.89C1074 1073.49 1061.2 1058.09 1048.28 1042.8C1001.27 987.008 954.264 931.213 907.257 875.531C860.13 819.848 813.002 764.165 765.875 708.482C721.14 655.477 676.525 602.473 631.79 549.58C630.953 548.575 630.355 546.79 628.202 547.571C629.637 549.468 630.953 551.253 632.269 553.039C678.798 617.872 725.446 682.593 771.856 747.427C837.403 838.818 902.951 930.209 968.378 1021.71C984.406 1044.14 1000.31 1066.57 1016.22 1089C996.607 1089 976.99 1089 957.254 1089C935.963 1054.85 914.792 1020.6 893.382 986.45C851.876 918.604 809.892 851.427 767.909 784.251C731.905 726.671 696.142 669.091 660.138 611.511C647.938 591.983 635.498 572.567 623.178 553.15C622.7 551.253 622.102 549.58 619.949 548.129C620.308 550.472 621.025 552.258 622.939 553.374C622.7 555.382 624.016 556.944 624.853 558.618C645.546 598.567 666.239 638.627 686.931 678.576C739.68 780.457 792.429 882.226 845.178 984.106C863.239 1018.92 881.181 1053.74 899.123 1088.55C882.019 1088.55 865.034 1088.55 847.929 1088.55C827.117 1041.02 806.185 993.368 785.372 945.831C735.613 832.122 685.975 718.525 636.216 605.039C628.8 588.078 621.025 571.228 613.49 554.266C613.37 553.708 613.25 553.262 613.131 552.704C612.892 552.927 612.533 553.039 612.533 553.262C612.533 553.82 612.772 554.266 613.609 554.266C613.131 556.163 613.849 557.949 614.447 559.623C622.7 583.837 630.953 608.052 639.326 632.267C659.66 691.409 680.233 750.551 700.567 809.693C724.968 880.552 749.249 951.299 773.531 1022.16C781.066 1044.25 788.482 1066.35 795.898 1088.44C780.468 1088.44 765.158 1088.44 749.728 1088.44C700.926 909.23 652.244 730.019 603.562 550.919C604.16 559.399 605.834 567.657 607.389 576.026C615.882 622.447 624.374 668.868 632.986 715.289C641.12 759.478 649.493 803.667 657.627 847.857C665.042 887.805 672.339 927.866 679.755 967.926C687.171 1008.1 694.587 1048.27 702.003 1088.55C687.29 1088.55 672.578 1088.55 657.866 1088.55C657.746 1086.32 657.626 1084.09 657.387 1081.86C654.756 1059.54 652.005 1037.22 649.493 1014.91C646.981 992.922 644.469 971.051 641.957 949.068C639.326 926.527 636.575 904.097 633.943 881.668C631.312 859.573 628.92 837.367 626.408 815.273C623.776 792.732 621.025 770.302 618.394 747.761C615.882 726.002 613.37 704.242 610.858 682.482C607.868 656.482 604.758 630.482 601.648 604.481C599.495 586.627 597.462 568.773 595.309 550.919C595.189 569.108 595.907 587.297 596.624 605.486C597.94 642.198 599.136 679.023 600.332 715.735C601.05 738.946 601.887 762.156 602.605 785.367C603.921 824.758 605.117 864.037 606.433 903.428C607.15 923.514 607.988 943.488 608.586 963.574C609.901 1005.2 611.217 1046.71 612.413 1088.33C598.06 1088.33 583.706 1088.33 569.353 1088.33C570.071 1067.91 570.908 1047.49 571.506 1027.07C572.702 989.909 573.898 952.75 575.214 915.703C575.932 893.273 576.769 870.732 577.486 848.303C578.683 811.032 579.998 773.65 581.194 736.379C582.151 704.465 582.989 672.439 584.065 640.524C584.544 626.241 585.5 611.958 585.859 597.674C586.218 582.052 585.979 566.541 585.979 550.919C585.62 558.395 584.783 565.872 583.826 573.46C581.314 595.443 578.802 617.314 576.171 639.297C573.539 661.615 570.908 683.932 568.276 706.25C565.765 728.233 563.253 750.105 560.741 772.088C558.109 794.629 555.358 817.058 552.727 839.599C550.095 861.694 547.703 883.9 545.072 905.994C542.44 928.312 539.809 950.63 537.177 972.948C534.905 992.141 532.632 1011.33 530.359 1030.42C528.087 1049.83 526.053 1069.14 523.9 1088.55C509.188 1088.55 494.476 1088.55 479.764 1088.55C482.754 1071.93 485.744 1055.3 488.854 1038.67C495.792 1001.07 502.729 963.463 509.667 925.746C516.245 889.926 522.943 854.105 529.522 818.397C536.101 783.135 542.56 747.873 549.138 712.611C557.272 668.422 565.525 624.232 573.659 580.043C575.214 571.897 576.649 563.64 578.085 555.494C577.606 555.382 577.247 555.382 576.769 555.271C528.326 732.92 480.003 910.681 431.799 1088.44C416.25 1088.44 400.7 1088.44 385.15 1088.44C403.451 1035.33 421.632 982.098 439.933 928.982C480.601 810.809 521.269 692.748 561.698 574.464C565.166 564.421 569.592 554.601 571.625 544.223C571.745 543.888 571.865 543.554 571.984 543.331C571.865 543.665 571.745 544 571.745 544.335C568.874 548.575 567.559 553.485 565.525 558.06C537.536 622.001 509.427 685.83 481.438 749.77C443.162 837.032 405.006 924.295 366.85 1011.56C355.606 1037.11 344.602 1062.78 333.598 1088.44C316.493 1088.44 299.269 1088.44 282.165 1088.44C282.882 1086.88 283.48 1085.32 284.198 1083.87C308.36 1037 332.521 990.244 356.802 943.377C391.729 875.977 426.536 808.689 461.463 741.289C494.835 676.902 528.206 612.627 561.578 548.352C562.415 546.678 563.492 545.116 563.372 543.107C563.492 542.996 563.611 542.884 563.731 542.773C563.611 542.884 563.492 543.107 563.492 543.219C562.057 545.228 560.621 547.236 559.305 549.245C544.832 572.567 530.359 595.889 515.886 619.099C481.677 674.001 447.229 728.791 413.02 783.693C372.591 848.414 332.282 913.024 291.973 977.746C268.888 1014.68 245.922 1051.62 222.957 1088.44C203.34 1088.44 183.604 1088.44 163.988 1088.44C164.945 1086.88 165.782 1085.21 166.859 1083.64C196.044 1042.91 225.349 1002.18 254.534 961.342C301.063 895.951 347.832 830.672 394.719 765.281C445.674 694.199 496.629 623.228 547.583 552.258C549.258 549.914 550.813 547.459 552.488 545.004C546.148 550.695 540.646 556.944 535.263 563.305C479.764 629.142 424.264 694.98 368.644 760.817C312.426 827.324 256.209 893.943 200.111 960.45C164.108 1003.08 128.224 1045.7 92.3404 1088.33C68.2984 1088.33 44.2564 1088.33 20.2144 1088.33C25.3577 1082.75 30.501 1076.95 35.764 1071.48C71.1691 1034.54 106.694 997.609 142.219 960.561C184.561 916.372 226.904 872.183 269.127 827.882C317.809 776.998 366.491 726.113 415.173 675.34C454.286 634.499 493.519 593.657 532.752 552.816C536.579 548.798 540.407 544.67 544.713 540.095C542.081 540.095 541.364 541.322 540.526 542.215C510.504 568.884 480.601 595.554 450.578 622.336C402.853 664.962 355.008 707.701 307.283 750.439C272.237 781.796 237.19 813.264 202.144 844.732C149.156 892.046 96.168 939.359 43.2995 986.561C28.9461 999.394 14.473 1012.23 0.119612 1025.06C0.119612 1002.74 0.119612 980.424 0.119612 958.106C24.042 939.359 47.9644 920.612 71.8868 901.754C119.492 864.26 166.978 826.655 214.584 789.049C265.18 749.1 315.895 709.263 366.491 669.314C419.718 627.357 472.946 585.4 526.173 543.442C530.599 539.983 534.905 536.3 539.211 532.841C537.895 532.395 537.177 532.618 536.699 532.953C513.614 548.464 490.529 563.975 467.443 579.485C392.686 629.812 317.929 680.027 243.051 730.353C180.494 772.422 118.057 814.491 55.4999 856.449C37.0797 868.835 18.5399 880.998 0.119612 893.385C0.119612 875.196 0.119612 856.895 0.119612 838.706C1.67457 838.818 2.63146 837.925 3.82758 837.256C25.7166 824.423 47.6056 811.479 69.4945 798.646C148.558 752.225 227.502 705.804 306.565 659.383C370.558 621.778 434.55 584.172 498.662 546.567C511.461 539.09 524.14 531.614 536.818 524.026C535.024 523.691 533.589 524.249 532.273 524.807C516.126 532.841 499.978 540.876 483.711 548.798C388.858 595.331 294.126 641.863 199.274 688.396C132.769 720.98 66.3846 753.676 0 786.26ZM602.246 545.451C602.127 545.786 602.127 546.12 602.007 546.343C602.007 546.678 602.007 547.013 602.007 547.348C602.127 547.013 602.246 546.678 602.246 546.455C602.246 546.12 602.246 545.786 602.246 545.451ZM648.177 483.296C648.058 483.296 647.818 483.184 647.699 483.184C647.579 483.184 647.459 483.296 647.459 483.407C647.579 483.407 647.818 483.407 647.938 483.407C648.058 483.519 648.058 483.407 648.177 483.296ZM621.384 448.48C621.384 448.368 621.504 448.145 621.504 448.034C621.384 448.145 621.145 448.257 621.025 448.368C621.145 448.368 621.264 448.48 621.384 448.48Z" fill="url(#paint0_radial)"/>
<defs>
<radialGradient id="paint0_radial" cx="0" cy="0" r="1" gradientUnits="userSpaceOnUse" gradientTransform="translate(606.5 493) rotate(-135) scale(259.508 460.03)">
<stop offset="0.229167" stop-color="#F47820"/>
<stop offset="1" stop-color="#F47820" stop-opacity="0"/>
</radialGradient>
</defs>
</svg>
